<?xml version="1.0" standalone="no"?>
<!DOCTYPE svg PUBLIC "-//W3C//DTD SVG 1.1//EN" "http://www.w3.org/Graphics/SVG/1.1/DTD/svg11.dtd" >
<svg>
<metadata>
Created by FontForge 20120731 at Thu Apr 03 11:51:14 2014

Copyright (c) 2012 by TypeTogether. All rights reserved.
</metadata>
<defs>
<font id="AdelleSansTh" horiz-adv-x="570" >
  <font-face 
    font-family="Adelle Sans Th"
    font-weight="300"
    font-stretch="normal"
    units-per-em="1000"
    panose-1="2 0 5 3 0 0 0 2 0 4"
    ascent="755"
    descent="-245"
    x-height="508"
    cap-height="724"
    bbox="-144 -290 1116 1063"
    underline-thickness="50"
    underline-position="-50"
    unicode-range="U+0020-FB06"
  />
<missing-glyph horiz-adv-x="500" 
 />
    <glyph glyph-name="ij" unicode="ij" horiz-adv-x="469" 
d="M145 0h-49v508h49v-508zM169 677q0 -42 -46 -42t-46 42q0 43 46 43t46 -43zM262 -223q-6 0 -17 1t-22 3t-22 5t-17 6l9 43q17 -6 36 -9t35 -3q33 0 50.5 19.5t17.5 64.5v601h49v-597q0 -69 -28.5 -101.5t-90.5 -32.5zM406 689q0 -42 -46 -42t-46 42q0 43 46 43t46 -43z
" />
    <glyph glyph-name="ff" unicode="ff" horiz-adv-x="596" 
d="M601 708q-15 5 -35 9t-38 4q-35 0 -57.5 -20.5t-22.5 -74.5v-118h146v-43h-146v-465h-49v465h-247v-465h-49v465h-80v43h80v102q0 75 30.5 114t95.5 39q26 0 46 -4.5t33 -10.5l-3 -40q-15 5 -35 9t-38 4q-35 0 -57.5 -20.5t-22.5 -74.5v-118h247v102q0 75 30.5 114
t95.5 39q26 0 46 -4.5t33 -10.5z" />
    <glyph glyph-name="fi" unicode="fi" horiz-adv-x="539" 
d="M448 0h-49v465h-247v-465h-49v465h-80v43h80v102q0 75 30.5 114t95.5 39q26 0 46 -4.5t33 -10.5l-3 -40q-15 5 -35 9t-38 4q-35 0 -57.5 -20.5t-22.5 -74.5v-118h296v-508zM472 677q0 -42 -46 -42t-46 42q0 43 46 43t46 -43z" />
    <glyph glyph-name="fl" unicode="fl" horiz-adv-x="539" 
d="M448 0h-49v755h49v-755zM305 708q-15 5 -35 9t-38 4q-35 0 -57.5 -20.5t-22.5 -74.5v-118h146v-43h-146v-465h-49v465h-80v43h80v102q0 75 30.5 114t95.5 39q26 0 46 -4.5t33 -10.5z" />
    <glyph glyph-name="f_k" unicode="fk" horiz-adv-x="810" 
d="M305 708q-15 5 -35 9t-38 4q-35 0 -57.5 -20.5t-22.5 -74.5v-118h146v-43h-146v-465h-49v465h-80v43h80v102q0 75 30.5 114t95.5 39q26 0 46 -4.5t33 -10.5zM448 245l254 263h59l-180 -187l193 -321h-53l-175 286l-98 -99v-187h-49v755h49v-510z" />
    <glyph glyph-name="f_b" unicode="fb" horiz-adv-x="884" 
d="M305 708q-15 5 -35 9t-38 4q-35 0 -57.5 -20.5t-22.5 -74.5v-118h146v-43h-146v-465h-49v465h-80v43h80v102q0 75 30.5 114t95.5 39q26 0 46 -4.5t33 -10.5zM399 0v755h48v-311q35 29 79.5 51.5t106.5 22.5q42 0 76.5 -13t58.5 -42.5t37.5 -77.5t13.5 -118
q0 -74 -17 -127t-46.5 -87t-69.5 -49.5t-85 -15.5t-85.5 16.5t-68.5 38.5l-4 -43h-44zM448 93q10 -8 25 -18t35.5 -19.5t44.5 -16t52 -6.5q44 0 75 17.5t50.5 49.5t28.5 75.5t9 96.5q0 58 -9.5 97t-28 62.5t-45 33.5t-60.5 10q-27 0 -53.5 -8t-50 -20t-42.5 -26t-31 -26
v-302z" />
    <glyph glyph-name="f_h" unicode="fh" horiz-adv-x="884" 
d="M305 708q-15 5 -35 9t-38 4q-35 0 -57.5 -20.5t-22.5 -74.5v-118h146v-43h-146v-465h-49v465h-80v43h80v102q0 75 30.5 114t95.5 39q26 0 46 -4.5t33 -10.5zM796 0h-49v340q0 63 -24.5 97.5t-89.5 34.5q-27 0 -55 -8t-52.5 -19.5t-45 -25t-32.5 -25.5v-394h-49v755h49
v-312q45 32 93 53.5t101 21.5q81 0 117.5 -45t36.5 -131v-342z" />
    <glyph glyph-name="f_t" unicode="ft" horiz-adv-x="657" 
d="M637 18q-18 -13 -50 -21.5t-59 -8.5q-71 0 -100 30.5t-29 97.5v349h-247v-465h-49v465h-80v43h80v102q0 75 30.5 114t95.5 39q26 0 46 -4.5t33 -10.5l-3 -40q-15 5 -35 9t-38 4q-35 0 -57.5 -20.5t-22.5 -74.5v-118h247v145l49 8v-153h144v-43h-144v-339q0 -23 3.5 -41
t12.5 -30.5t25 -19t42 -6.5q23 0 49 8t43 19z" />
    <glyph glyph-name="f_j" unicode="fj" horiz-adv-x="535" 
d="M328 -223q-6 0 -17 1t-22 3t-22 5t-17 6l9 43q17 -6 36 -9t35 -3q33 0 50.5 19.5t17.5 64.5v558h-246v-465h-49v465h-80v43h80v102q0 75 30.5 114t95.5 39q26 0 46 -4.5t33 -10.5l-3 -40q-15 5 -35 9t-38 4q-35 0 -57.5 -20.5t-22.5 -74.5v-118h295v-597
q0 -69 -28.5 -101.5t-90.5 -32.5zM472 689q0 -42 -46 -42t-46 42q0 43 46 43t46 -43z" />
    <glyph glyph-name="f_f_j" unicode="ffj" horiz-adv-x="834" 
d="M627 -223q-6 0 -17 1t-22 3t-22 5t-17 6l9 43q17 -6 36 -9t35 -3q33 0 50.5 19.5t17.5 64.5v558h-249v-465h-49v465h-247v-465h-49v465h-80v43h80v102q0 75 30.5 114t95.5 39q26 0 46 -4.5t33 -10.5l-3 -40q-15 5 -35 9t-38 4q-35 0 -57.5 -20.5t-22.5 -74.5v-118h247
v102q0 75 30.5 114t95.5 39q26 0 46 -4.5t33 -10.5l-3 -40q-15 5 -35 9t-38 4q-35 0 -57.5 -20.5t-22.5 -74.5v-118h298v-597q0 -69 -28.5 -101.5t-90.5 -32.5zM771 689q0 -42 -46 -42t-46 42q0 43 46 43t46 -43z" />
    <glyph glyph-name="ffi" unicode="ffi" horiz-adv-x="836" 
d="M601 708q-15 5 -35 9t-38 4q-35 0 -57.5 -20.5t-22.5 -74.5v-118h146v-43h-146v-465h-49v465h-247v-465h-49v465h-80v43h80v102q0 75 31.5 114t97.5 39q26 0 46 -4.5t33 -10.5l-2 -40q-15 5 -35.5 9t-39.5 4q-36 0 -59 -20t-23 -76v-117h247v102q0 75 30.5 114t95.5 39
q26 0 46 -4.5t33 -10.5zM745 0h-49v508h49v-508zM769 677q0 -42 -46 -42t-46 42q0 43 46 43t46 -43z" />
    <glyph glyph-name="ffl" unicode="ffl" horiz-adv-x="835" 
d="M601 708q-15 5 -35 9t-38 4q-35 0 -57.5 -20.5t-22.5 -74.5v-118h146v-43h-146v-465h-49v465h-247v-465h-49v465h-80v43h80v102q0 75 30.5 114t95.5 39q26 0 46 -4.5t33 -10.5l-3 -40q-15 5 -35 9t-38 4q-35 0 -57.5 -20.5t-22.5 -74.5v-118h247v102q0 75 30.5 114
t95.5 39q26 0 46 -4.5t33 -10.5zM744 0h-49v755h49v-755z" />
    <glyph glyph-name="f_f_k" unicode="ffk" horiz-adv-x="1107" 
d="M601 708q-15 5 -35 9t-38 4q-35 0 -57.5 -20.5t-22.5 -74.5v-118h146v-43h-146v-465h-49v465h-247v-465h-49v465h-80v43h80v102q0 75 31.5 114t97.5 39q26 0 46 -4.5t33 -10.5l-2 -40q-15 5 -35.5 9t-39.5 4q-36 0 -59 -20t-23 -76v-117h247v102q0 75 30.5 114t95.5 39
q26 0 46 -4.5t33 -10.5zM745 245l254 263h59l-180 -187l193 -321h-53l-175 286l-98 -99v-187h-49v755h49v-510z" />
    <glyph glyph-name="f_f_b" unicode="ffb" horiz-adv-x="1181" 
d="M696 0v755h48v-311q35 29 79.5 51.5t106.5 22.5q42 0 76.5 -13t58.5 -42.5t37.5 -77.5t13.5 -118q0 -74 -17 -127t-46.5 -87t-69.5 -49.5t-85 -15.5t-85.5 16.5t-68.5 38.5l-4 -43h-44zM745 93q10 -8 25 -18t35.5 -19.5t44.5 -16t52 -6.5q44 0 75 17.5t50.5 49.5
t28.5 75.5t9 96.5q0 58 -9.5 97t-28 62.5t-45 33.5t-60.5 10q-27 0 -53.5 -8t-50 -20t-42.5 -26t-31 -26v-302zM601 708q-15 5 -35 9t-38 4q-35 0 -57.5 -20.5t-22.5 -74.5v-118h146v-43h-146v-465h-49v465h-247v-465h-49v465h-80v43h80v102q0 75 30.5 114t95.5 39
q26 0 46 -4.5t33 -10.5l-3 -40q-15 5 -35 9t-38 4q-35 0 -57.5 -20.5t-22.5 -74.5v-118h247v102q0 75 30.5 114t95.5 39q26 0 46 -4.5t33 -10.5z" />
    <glyph glyph-name="f_f_h" unicode="ffh" horiz-adv-x="1181" 
d="M601 708q-15 5 -35 9t-38 4q-35 0 -57.5 -20.5t-22.5 -74.5v-118h146v-43h-146v-465h-49v465h-247v-465h-49v465h-80v43h80v102q0 75 30.5 114t95.5 39q26 0 46 -4.5t33 -10.5l-3 -40q-15 5 -35 9t-38 4q-35 0 -57.5 -20.5t-22.5 -74.5v-118h247v102q0 75 30.5 114
t95.5 39q26 0 46 -4.5t33 -10.5zM1093 0h-49v340q0 63 -24.5 97.5t-89.5 34.5q-27 0 -55 -8t-52.5 -19.5t-45 -25t-32.5 -25.5v-394h-49v755h49v-312q45 32 93 53.5t101 21.5q81 0 117.5 -45t36.5 -131v-342z" />
    <glyph glyph-name="f_f_t" unicode="fft" horiz-adv-x="953" 
d="M305 708q-15 5 -35 9t-38 4q-35 0 -57.5 -20.5t-22.5 -74.5v-118h247v102q0 75 30.5 114t95.5 39q26 0 46 -4.5t33 -10.5l-3 -40q-15 5 -35 9t-38 4q-35 0 -57.5 -20.5t-22.5 -74.5v-118h247v145l49 8v-153h144v-43h-144v-339q0 -23 3.5 -41t12.5 -30.5t25 -19t42 -6.5
q23 0 49 8t43 19l14 -38q-18 -13 -50 -21.5t-59 -8.5q-71 0 -100 30.5t-29 97.5v349h-247v-465h-49v465h-247v-465h-49v465h-80v43h80v102q0 75 30.5 114t95.5 39q26 0 46 -4.5t33 -10.5z" />
    <glyph glyph-name="f_iacute" unicode="f&#xed;" horiz-adv-x="539" 
d="M305 708q-15 5 -35 9t-38 4q-35 0 -57.5 -20.5t-22.5 -74.5v-118h296v-508h-49v465h-247v-465h-49v465h-80v43h80v102q0 75 30.5 114t95.5 39q26 0 46 -4.5t33 -10.5zM411 572l-41 14l113 165h72z" />
    <glyph glyph-name="t_t" unicode="tt" horiz-adv-x="678" 
d="M658 18q-18 -13 -50 -21.5t-59 -8.5q-71 0 -100 30.5t-29 97.5v349h-265v-339q0 -23 3.5 -41t12.5 -30.5t25 -19t42 -6.5q23 0 49 8t43 19l14 -38q-18 -13 -50 -21.5t-59 -8.5q-71 0 -100 30.5t-29 97.5v349h-81v43h81v145l49 8v-153h265v145l49 8v-153h144v-43h-144
v-339q0 -23 3.5 -41t12.5 -30.5t25 -19t42 -6.5q23 0 49 8t43 19z" />
    <glyph glyph-name=".notdef" horiz-adv-x="500" 
 />
    <glyph glyph-name=".null" horiz-adv-x="0" 
 />
    <glyph glyph-name="nonmarkingreturn" horiz-adv-x="500" 
 />
    <glyph glyph-name="space" unicode=" " horiz-adv-x="242" 
 />
    <glyph glyph-name="uni00A0" unicode="&#xa0;" horiz-adv-x="242" 
 />
    <glyph glyph-name="quotesingle" unicode="'" horiz-adv-x="199" 
d="M70 465v259h59v-259h-59z" />
    <glyph glyph-name="quotedbl" unicode="&#x22;" horiz-adv-x="371" 
d="M242 465v259h59v-259h-59zM70 465v259h59v-259h-59z" />
    <glyph glyph-name="numbersign" unicode="#" horiz-adv-x="607" 
d="M337 0l22 148h-145l-23 -148h-44l21 148h-131l12 38h127l30 190h-130l10 39h127l21 128h43l-20 -128h143l19 128h44l-18 -128h130l-9 -39h-128l-28 -190h128l-9 -38h-126l-22 -148h-44zM394 376h-143l-31 -190h145z" />
    <glyph glyph-name="ampersand" unicode="&#x26;" horiz-adv-x="668" 
d="M449 564q0 -23 -7 -46.5t-24 -46t-44.5 -43t-67.5 -37.5l-53 -24q79 -139 196 -267q33 42 48 100.5t18 129.5h44q-2 -73 -19.5 -139.5t-58.5 -116.5q24 -23 49 -37t52 -14q23 0 51 14l15 -31q-13 -11 -31.5 -15t-33.5 -4q-41 0 -70.5 15.5t-59.5 41.5q-34 -26 -77 -41
t-99 -15q-44 0 -83 13.5t-68 38.5t-45.5 60.5t-16.5 78.5q0 74 34 121.5t97 82.5q-18 35 -29.5 68t-11.5 77q0 33 11 63.5t31.5 53.5t50.5 37t68 14q20 0 43.5 -4.5t43.5 -18.5t33.5 -40t13.5 -69zM280 28q46 0 81 11.5t63 31.5q-59 59 -110.5 129t-98.5 148
q-23 -13 -42 -28t-33 -34.5t-22 -43.5t-8 -55q0 -30 11 -58.5t32 -51t53 -36t74 -13.5zM311 656q-49 0 -79.5 -34t-30.5 -92q0 -38 9.5 -67t24.5 -63l47 21q61 28 90 62.5t29 79.5t-22.5 69t-67.5 24z" />
    <glyph glyph-name="asterisk" unicode="*" horiz-adv-x="467" 
d="M264 604l137 36l7 -19l-127 -64l84 -131l-18 -12l-113 107l-111 -109l-17 13l83 131l-130 64l9 19l138 -35l20 151h21z" />
    <glyph glyph-name="comma" unicode="," horiz-adv-x="200" 
d="M79 82h62l-75 -204l-38 7z" />
    <glyph glyph-name="hyphen" unicode="-" horiz-adv-x="318" 
d="M20 271v51h271v-51h-271z" />
    <glyph glyph-name="period" unicode="." horiz-adv-x="209" 
d="M155 37q0 -25 -13.5 -37t-37.5 -12q-23 0 -36.5 12t-13.5 37q0 24 13.5 36t36.5 12q24 0 37.5 -12t13.5 -36z" />
    <glyph glyph-name="colon" unicode=":" horiz-adv-x="209" 
d="M155 37q0 -25 -13.5 -37t-37.5 -12q-23 0 -36.5 12t-13.5 37q0 24 13.5 36t36.5 12q24 0 37.5 -12t13.5 -36zM155 442q0 -25 -13.5 -37t-37.5 -12q-23 0 -36.5 12t-13.5 37q0 24 13.5 36t36.5 12q24 0 37.5 -12t13.5 -36z" />
    <glyph glyph-name="semicolon" unicode=";" horiz-adv-x="200" 
d="M67 82h62l-75 -204l-38 7zM164 442q0 -25 -13.5 -37t-37.5 -12q-23 0 -36.5 12t-13.5 37q0 24 13.5 36t36.5 12q24 0 37.5 -12t13.5 -36z" />
    <glyph glyph-name="question" unicode="?" horiz-adv-x="481" 
d="M143 178v175q43 4 83 14t70 30t48 52.5t18 82.5q0 46 -11.5 75t-32 45.5t-47 22.5t-56.5 6q-27 0 -52 -5t-45.5 -18.5t-36 -38t-25.5 -62.5l-43 9q6 24 18 51.5t35.5 50.5t60 38t90.5 15q39 0 74.5 -9t61.5 -30t41.5 -55.5t15.5 -86.5q0 -56 -18.5 -95t-49 -64.5t-71 -40
t-84.5 -21.5v-141h-44zM215 39q0 -26 -13.5 -38.5t-37.5 -12.5t-38 12.5t-14 38.5t14 38t38 12t37.5 -12t13.5 -38z" />
    <glyph glyph-name="exclam" unicode="!" horiz-adv-x="249" 
d="M109 179l-15 545h59l-12 -545h-32zM177 39q0 -51 -52 -51q-24 0 -37.5 12.5t-13.5 38.5t13.5 38t37.5 12q52 0 52 -50z" />
    <glyph glyph-name="exclamdown" unicode="&#xa1;" horiz-adv-x="249" 
d="M151.007 328.011l14.999 -544.967h-58.9961l11.999 544.967h31.998zM83.0107 468.002q0 50.9971 51.9971 50.9971q23.998 0 37.4971 -12.499q13.5 -12.499 13.5 -38.498q0 -25.998 -13.5 -37.9971q-13.499 -11.999 -37.4971 -11.999q-51.9971 0 -51.9971 49.9961z" />
    <glyph glyph-name="questiondown" unicode="&#xbf;" horiz-adv-x="440" 
d="M312.009 329.011v-174.989q-42.9971 -4 -82.9951 -13.999q-39.9971 -9.99902 -69.9961 -29.998q-29.998 -19.999 -47.9961 -52.4971q-17.999 -32.498 -17.999 -82.4951q0 -45.9971 11.499 -74.9951t31.998 -45.4971t46.9971 -22.499q26.498 -5.99902 56.4961 -5.99902
q26.999 0 51.9971 4.99902q24.999 5 45.4971 18.499q20.499 13.499 35.998 37.998q15.499 24.498 25.499 62.4961l42.9971 -9q-6 -23.998 -17.999 -51.4961q-11.999 -27.499 -35.498 -50.4971q-23.498 -22.999 -59.9961 -37.998t-90.4941 -14.999
q-38.998 0 -74.4961 8.99902q-35.498 9 -61.4961 29.999q-25.998 20.998 -41.4971 55.4961t-15.499 86.4951q0 55.9961 18.498 94.9941q18.499 38.9971 48.9971 64.4961q30.499 25.498 70.9961 39.9971t84.4951 21.499v140.991h43.9971zM240.013 468.002
q0 25.999 13.5 38.498q13.499 12.499 37.4971 12.499q23.999 0 37.998 -12.499t13.999 -38.498q0 -25.998 -13.999 -37.9971t-37.998 -11.999q-23.998 0 -37.4971 11.999q-13.5 11.999 -13.5 37.9971z" />
    <glyph glyph-name="at" unicode="@" horiz-adv-x="833" 
d="M675 -73q-43 -45 -109.5 -66.5t-141.5 -21.5q-79 0 -147 22.5t-118 66.5t-78.5 110.5t-28.5 154.5q0 85 27.5 153.5t78 117t120.5 74.5t155 26q73 0 136.5 -19t110.5 -58t74 -99t27 -143q0 -63 -11.5 -109.5t-33 -76.5t-51.5 -44.5t-67 -14.5q-40 0 -62 15.5t-34 40.5
q-18 -25 -55 -44.5t-81 -19.5t-72.5 16t-45.5 42t-23.5 59.5t-6.5 68.5q0 47 12.5 87t35 69.5t54.5 46t72 16.5q29 0 57.5 -9.5t48.5 -26.5l3 30h39v-257q0 -22 1 -40.5t6.5 -32.5t17.5 -22t35 -8q19 0 40.5 9t38.5 31.5t28.5 62t11.5 99.5q0 82 -23 138.5t-64.5 91t-99 50
t-125.5 15.5q-78 0 -139.5 -24t-104 -68t-65.5 -105.5t-23 -136.5q0 -86 27 -146t73.5 -98.5t107 -56t128.5 -17.5q70 0 126.5 21t89.5 57zM516 322q-18 16 -44 27t-58 11q-56 0 -91.5 -45.5t-35.5 -137.5q0 -30 5 -57t16.5 -47t31 -32t49.5 -12q39 0 75 23t52 59v211z" />
    <glyph glyph-name="A" unicode="A" horiz-adv-x="637" 
d="M353 724l249 -724h-54l-84 248h-295l-84 -248h-50l248 724h70zM316 693l-133 -403h267z" />
    <glyph glyph-name="B" unicode="B" horiz-adv-x="638" 
d="M112 0v724h227q64 0 106 -13.5t66.5 -37.5t34.5 -56.5t10 -69.5q0 -40 -12.5 -69.5t-33.5 -50t-49 -32.5t-59 -18v-2q91 -13 133.5 -59.5t42.5 -121.5q0 -56 -19 -93t-54 -59.5t-83.5 -32t-107.5 -9.5h-202zM314 44q45 0 84 5t68 20.5t45.5 45t16.5 78.5q0 41 -14.5 70.5
t-40 48.5t-60.5 28t-75 9h-179v-305h155zM297 393q31 0 67.5 6.5t67 23.5t51 47.5t20.5 78.5q0 73 -40.5 102.5t-131.5 29.5h-172v-288h138z" />
    <glyph glyph-name="C" unicode="C" horiz-adv-x="716" 
d="M379 -12q-83 0 -141.5 26.5t-96 74.5t-54.5 114t-17 145q0 96 24 169t67.5 121.5t104 73.5t132.5 25q109 0 178 -56t80 -174l-46 -4q-7 46 -21.5 82t-40 60.5t-63 37.5t-88.5 13q-63 0 -114 -22t-87 -65t-56 -106.5t-20 -146.5q0 -87 18.5 -149t52.5 -101.5t82.5 -58
t108.5 -18.5q94 0 148 39t77 131l42 -10q-11 -56 -36 -94.5t-60.5 -62t-80 -34t-93.5 -10.5z" />
    <glyph glyph-name="D" unicode="D" horiz-adv-x="741" 
d="M112 0v724h200q94 0 162 -24.5t111.5 -70t64.5 -110.5t21 -146q0 -83 -22.5 -152t-68.5 -118t-117 -76t-168 -27h-183zM303 41q153 0 235 83t82 244q0 91 -22 151.5t-62.5 97t-98 51.5t-129.5 15h-148v-642h143z" />
    <glyph glyph-name="E" unicode="E" 
d="M160 42h358v-42h-406v724h398v-42h-350v-292h327v-43h-327v-305z" />
    <glyph glyph-name="F" unicode="F" horiz-adv-x="543" 
d="M160 0h-48v724h399v-42h-351v-305h325v-44h-325v-333z" />
    <glyph glyph-name="G" unicode="G" horiz-adv-x="756" 
d="M607 115q-10 -25 -30 -48t-48.5 -40.5t-66 -28t-82.5 -10.5q-82 0 -140.5 27t-96 75.5t-55.5 116t-18 148.5q0 96 24 167.5t67.5 119.5t104 71.5t134.5 23.5q55 0 100 -13.5t78 -41.5t53 -72t25 -105l-46 -5q-6 56 -23 93.5t-44 60.5t-64 32.5t-82 9.5
q-64 0 -115.5 -22.5t-87.5 -65t-55.5 -105.5t-19.5 -144q0 -101 22.5 -165.5t60 -101t85.5 -50t99 -13.5q55 0 97 19.5t70.5 50t42.5 68.5t14 75v87h-235v45h277v-374h-37z" />
    <glyph glyph-name="H" unicode="H" horiz-adv-x="725" 
d="M613 0h-48v350h-405v-350h-48v724h48v-330h405v330h48v-724z" />
    <glyph glyph-name="I" unicode="I" horiz-adv-x="272" 
d="M160 0h-48v724h48v-724z" />
    <glyph glyph-name="J" unicode="J" horiz-adv-x="487" 
d="M338 724h48v-551q0 -54 -13 -89.5t-36.5 -57t-56 -30t-71.5 -8.5q-45 0 -76 12t-51 33t-30 49.5t-12 61.5l47 8q3 -25 10 -47t20.5 -38.5t37 -26t59.5 -9.5q24 0 46.5 5.5t40 21t27.5 44t10 74.5v548z" />
    <glyph glyph-name="K" unicode="K" horiz-adv-x="623" 
d="M160 342l357 382h60l-299 -319l326 -405h-58l-301 373l-85 -90v-283h-48v724h48v-382z" />
    <glyph glyph-name="L" unicode="L" horiz-adv-x="552" 
d="M160 41h337v-41h-385v724h48v-683z" />
    <glyph glyph-name="M" unicode="M" horiz-adv-x="885" 
d="M773 0h-47v675h-2l-250 -675h-66l-248 676h-2v-676h-46v724h81l249 -687h1l252 687h78v-724z" />
    <glyph glyph-name="N" unicode="N" horiz-adv-x="745" 
d="M568 0l-409 683v-683h-47v724h77l398 -671v671h46v-724h-65z" />
    <glyph glyph-name="O" unicode="O" horiz-adv-x="781" 
d="M386 -12q-80 0 -139.5 28t-98.5 78.5t-58.5 119.5t-19.5 150t22 149.5t64 118t103.5 77.5t140.5 28q78 0 136.5 -27.5t97 -76t58 -114t19.5 -140.5q0 -89 -21 -161t-62.5 -123t-102 -79t-139.5 -28zM390 29q59 0 108.5 21.5t85.5 64.5t56.5 106.5t20.5 147.5
q0 78 -19 139t-54 102.5t-83.5 63.5t-106.5 22q-59 0 -109.5 -22t-88 -64.5t-58.5 -104.5t-21 -142t20 -142t55.5 -104.5t85 -65t108.5 -22.5z" />
    <glyph glyph-name="P" unicode="P" horiz-adv-x="612" 
d="M159 0h-47v724h209q69 0 115.5 -16.5t74.5 -45t39.5 -67t11.5 -81.5q0 -64 -19.5 -107.5t-55 -70.5t-85.5 -38.5t-112 -11.5h-131v-286zM291 329q46 0 86 6.5t70 26t47 56.5t17 97q0 85 -47 126.5t-157 41.5h-148v-354h132z" />
    <glyph glyph-name="Q" unicode="Q" horiz-adv-x="781" 
d="M386 -12q-81 0 -140.5 28t-98.5 78.5t-58 119.5t-19 150t22 149.5t64 118t103.5 77.5t140.5 28q78 0 136.5 -27.5t97 -76t58 -114t19.5 -140.5q0 -100 -26.5 -179t-77.5 -130l94 -103l-32 -27l-95 101q-39 -26 -85 -39.5t-103 -13.5zM390 31q86 0 149 45l-140 157l35 29
l143 -158q38 41 60.5 107t22.5 158q0 78 -19 139t-53.5 102.5t-83 63.5t-106.5 22q-59 0 -109.5 -22t-88 -64.5t-58.5 -104.5t-21 -142t19.5 -141.5t55 -104t85 -64.5t109.5 -22z" />
    <glyph glyph-name="R" unicode="R" horiz-adv-x="637" 
d="M602 0h-53l-180 321h-210v-321h-47v724h223q67 0 112 -15t71 -41t37 -60.5t11 -73.5q0 -83 -41 -133t-110 -69zM329 363q42 0 76.5 8.5t58.5 28t37.5 52.5t13.5 83q0 46 -14.5 75t-41.5 45.5t-64 22t-82 5.5h-154v-320h170z" />
    <glyph glyph-name="S" unicode="S" horiz-adv-x="578" 
d="M298 694q-51 0 -85.5 -11.5t-55.5 -31t-30 -45.5t-9 -55q0 -37 12.5 -62t34 -42t52 -29t66.5 -22q42 -12 84.5 -25t77 -35.5t56.5 -58t22 -91.5q0 -54 -19.5 -91.5t-52.5 -61t-76.5 -34.5t-91.5 -11q-63 0 -107 15t-73.5 41t-46.5 62t-24 78l49 10q6 -30 18.5 -59
t35.5 -51.5t58.5 -36.5t88.5 -14q33 0 66 6t60 22.5t44 45.5t17 74q0 44 -17 72.5t-45.5 46.5t-64.5 29.5t-73 21.5q-39 10 -75.5 23.5t-65 35.5t-45.5 55.5t-17 83.5q0 43 16.5 77.5t46.5 59t72 38t94 13.5q94 0 152.5 -46.5t72.5 -152.5l-46 -5q-6 27 -15 55.5t-28 52
t-50.5 38.5t-82.5 15z" />
    <glyph glyph-name="T" unicode="T" horiz-adv-x="532" 
d="M242 0v682h-222v42h492v-42h-222v-682h-48z" />
    <glyph glyph-name="U" unicode="U" horiz-adv-x="718" 
d="M360 32q47 0 84.5 9.5t63.5 32.5t40 61t14 95v494h48v-496q0 -120 -65 -180t-191 -60q-132 0 -189 63t-57 177v496h48v-492q0 -57 14.5 -95t41.5 -61.5t64.5 -33.5t83.5 -10z" />
    <glyph glyph-name="V" unicode="V" horiz-adv-x="614" 
d="M279 0l-249 724h53l230 -683h1l220 683h50l-236 -724h-69z" />
    <glyph glyph-name="W" unicode="W" horiz-adv-x="870" 
d="M615 0l-174 673h-3l-184 -673h-57l-157 724h51l137 -661h2l178 661h63l175 -673h2l135 673h47l-150 -724h-65z" />
    <glyph glyph-name="X" unicode="X" horiz-adv-x="607" 
d="M328 373l254 -373h-53l-231 338l-219 -338h-54l241 369l-229 355h54l205 -321l207 321h53z" />
    <glyph glyph-name="Y" unicode="Y" horiz-adv-x="538" 
d="M297 0h-48v287l-245 437h54l216 -384h1l210 384h49l-237 -433v-291z" />
    <glyph glyph-name="Z" unicode="Z" horiz-adv-x="585" 
d="M100 42h436v-42h-497v34l417 648h-404v42h467v-35z" />
    <glyph glyph-name="a" unicode="a" horiz-adv-x="536" 
d="M440 72q0 -21 5.5 -31.5t25.5 -10.5q11 0 31 6l4 -32q-15 -8 -26.5 -10t-27.5 -2q-33 0 -46.5 20.5t-11.5 43.5q-29 -29 -73.5 -48.5t-98.5 -19.5q-49 0 -78.5 15t-45.5 36t-21 45t-5 42q0 54 22.5 87.5t58 52t80 24.5t88.5 6q18 0 35 -0.5t34 -1.5v45q0 37 -5.5 63.5
t-19 43t-37 24t-59.5 7.5q-64 0 -92.5 -23.5t-36.5 -71.5l-47 8q12 71 57.5 99.5t122.5 28.5q45 0 76.5 -9t51.5 -29t29.5 -52.5t9.5 -79.5v-276zM391 252q-17 2 -36 2.5t-42 0.5q-38 0 -72.5 -5t-60.5 -18.5t-41 -37.5t-15 -63q0 -21 4.5 -39t16.5 -32t32 -22t52 -8
q48 0 92 20t70 52v150z" />
    <glyph glyph-name="b" unicode="b" horiz-adv-x="580" 
d="M95 0v755h48v-311q35 29 79.5 51.5t106.5 22.5q42 0 76.5 -13t58.5 -42.5t37.5 -77.5t13.5 -118q0 -74 -17 -127t-46.5 -87t-69.5 -49.5t-85 -15.5t-85.5 16.5t-68.5 38.5l-4 -43h-44zM144 93q10 -8 25 -18t35.5 -19.5t44.5 -16t52 -6.5q44 0 75 17.5t50.5 49.5
t28.5 75.5t9 96.5q0 58 -9.5 97t-28 62.5t-45 33.5t-60.5 10q-27 0 -53.5 -8t-50 -20t-42.5 -26t-31 -26v-302z" />
    <glyph glyph-name="c" unicode="c" horiz-adv-x="530" 
d="M285 -12q-63 0 -106 19.5t-69.5 54.5t-38 83.5t-11.5 106.5q0 135 62 200.5t174 65.5q36 0 68 -10.5t56 -31t39 -51.5t17 -72l-53 -6q-7 66 -39 97t-94 31q-32 0 -64 -10t-57.5 -35t-41.5 -66.5t-16 -104.5q0 -68 15 -111.5t39.5 -69t55.5 -35t63 -9.5q59 0 97 28t49 88
l50 -10q-7 -41 -26 -70t-45.5 -47t-58.5 -26.5t-65 -8.5z" />
    <glyph glyph-name="d" unicode="d" horiz-adv-x="581" 
d="M486 0h-42l-5 58q-37 -29 -79.5 -49.5t-101.5 -20.5q-42 0 -77.5 14.5t-61 46t-40 81t-14.5 119.5q0 73 17.5 124.5t47.5 83.5t69.5 46.5t83.5 14.5q45 0 84.5 -15t68.5 -35v287h50v-755zM437 419q-10 7 -26 17t-36 18t-44 14t-49 6q-46 0 -77.5 -16t-51 -46t-28 -71.5
t-8.5 -92.5q0 -109 36.5 -163t114.5 -54q52 0 96 23t73 54v311z" />
    <glyph glyph-name="e" unicode="e" horiz-adv-x="543" 
d="M284 -12q-66 0 -109 21.5t-68.5 58.5t-36 85t-10.5 101q0 70 19 120t51.5 82t74.5 47t88 15q51 0 87 -16t59 -44.5t33.5 -66.5t10.5 -81q0 -17 -1 -33t-4 -33h-366q1 -63 15.5 -103.5t38 -64t55 -32.5t67.5 -9q60 0 93 26.5t47 78.5l47 -9q-9 -39 -28 -66t-44 -44
t-55.5 -25t-63.5 -8zM432 287q2 91 -32 138.5t-113 47.5q-32 0 -62 -10t-54 -32.5t-40 -57.5t-19 -86h320z" />
    <glyph glyph-name="f" unicode="f" horiz-adv-x="299" 
d="M305 708q-15 5 -35 9t-38 4q-35 0 -57.5 -20.5t-22.5 -74.5v-118h146v-43h-146v-465h-49v465h-80v43h80v102q0 75 30.5 114t95.5 39q26 0 46 -4.5t33 -10.5z" />
    <glyph glyph-name="g" unicode="g" horiz-adv-x="547" 
d="M266 518q50 0 91.5 -14t67.5 -46q8 20 24 38t42 18q11 0 18.5 -1.5t17.5 -4.5v-50q-24 1 -49.5 -3.5t-43.5 -10.5q16 -18 24 -47t8 -60q0 -44 -15.5 -77.5t-42 -57t-62 -35.5t-75.5 -12q-29 0 -57 4t-45 11q-17 -13 -29.5 -27t-12.5 -34q0 -19 18.5 -30.5t68.5 -14.5
l140 -8q38 -2 68 -9t50.5 -21t31 -36.5t10.5 -56.5q0 -50 -24 -81t-61 -48t-81.5 -23.5t-84.5 -6.5q-74 0 -118 13t-67 33t-30 42.5t-7 42.5q0 25 7 44t19 34.5t27.5 27.5t31.5 24q-20 5 -35 22t-15 40q0 29 17.5 51.5t40.5 40.5q-35 17 -55.5 55t-20.5 85q0 44 15 79
t42.5 59.5t66 37.5t84.5 13zM414 336q0 72 -38.5 106t-107.5 34q-32 0 -60.5 -8t-49.5 -24.5t-33.5 -42.5t-12.5 -63q0 -30 8.5 -55t27 -43.5t47.5 -29t70 -10.5q68 0 108.5 36.5t40.5 99.5zM462 -65q0 15 -4.5 28t-16.5 23t-32 16.5t-50 8.5l-191 10q-32 -23 -53 -49
t-21 -61q0 -17 6.5 -33t25 -28.5t53 -20t90.5 -7.5q100 0 146.5 28t46.5 85z" />
    <glyph glyph-name="h" unicode="h" horiz-adv-x="578" 
d="M490 0h-49v340q0 63 -24.5 97.5t-89.5 34.5q-27 0 -55 -8t-52.5 -19.5t-45 -25t-32.5 -25.5v-394h-49v755h49v-312q45 32 93 53.5t101 21.5q81 0 117.5 -45t36.5 -131v-342z" />
    <glyph glyph-name="i" unicode="i" horiz-adv-x="236" 
d="M145 0h-49v508h49v-508zM169 677q0 -42 -46 -42t-46 42q0 43 46 43t46 -43z" />
    <glyph glyph-name="j" unicode="j" horiz-adv-x="233" 
d="M26 -223q-6 0 -17 1t-22 3t-22 5t-17 6l9 43q17 -6 36 -9t35 -3q33 0 50.5 19.5t17.5 64.5v601h49v-597q0 -69 -28.5 -101.5t-90.5 -32.5zM170 689q0 -42 -46 -42t-46 42q0 43 46 43t46 -43z" />
    <glyph glyph-name="j.calt" horiz-adv-x="233" 
d="M38 -223q-16 0 -30 3t-22 6l4 43q21 -6 42 -6q32 0 48 20t16 64v601h49v-597q0 -134 -107 -134zM170 689q0 -42 -46 -42t-46 42q0 43 46 43t46 -43z" />
    <glyph glyph-name="k" unicode="k" horiz-adv-x="504" 
d="M142 245l254 263h59l-180 -187l193 -321h-53l-175 286l-98 -99v-187h-49v755h49v-510z" />
    <glyph glyph-name="l" unicode="l" horiz-adv-x="236" 
d="M145 0h-49v755h49v-755z" />
    <glyph glyph-name="m" unicode="m" horiz-adv-x="870" 
d="M142 0h-49v508h44l4 -67q44 32 88.5 54.5t98.5 22.5t83.5 -20t42.5 -57q44 32 89.5 54.5t99.5 22.5q42 0 68.5 -11.5t42.5 -34t22 -55.5t6 -76v-341h-49v339q0 32 -3.5 57t-13.5 42.5t-28.5 26.5t-49.5 9q-24 0 -49 -7.5t-48.5 -18.5t-43.5 -24t-34 -25q2 -14 3 -28.5
t1 -29.5v-341h-49v339q0 32 -3.5 57t-14 42.5t-29 26.5t-49.5 9q-25 0 -51.5 -8.5t-51 -20.5t-45 -26t-32.5 -26v-393z" />
    <glyph glyph-name="n" unicode="n" horiz-adv-x="578" 
d="M490 0h-49v340q0 63 -24.5 98t-88.5 35q-27 0 -55 -8t-53 -20t-45.5 -25.5t-32.5 -25.5v-394h-49v508h43l3 -66q45 32 94.5 54t103.5 22q81 0 117 -45t36 -131v-342z" />
    <glyph glyph-name="o" unicode="o" horiz-adv-x="572" 
d="M284 -12q-63 0 -106 20.5t-69.5 56t-37.5 83.5t-11 104q0 124 61.5 195t175.5 71q57 0 97.5 -18t66.5 -51.5t38.5 -80t12.5 -103.5q0 -63 -12.5 -114t-40 -87t-71 -56t-104.5 -20zM288 33q39 0 71 12.5t54.5 39.5t34.5 70t12 104q0 60 -11.5 101t-33 66t-52.5 36t-70 11
q-41 0 -74.5 -13t-58 -39.5t-38 -67.5t-13.5 -97q0 -223 179 -223z" />
    <glyph glyph-name="p" unicode="p" horiz-adv-x="580" 
d="M95 508h43l4 -65q15 13 35 26.5t43.5 24t51 17.5t58.5 7q40 0 73.5 -13t58.5 -42.5t39 -77.5t14 -118q0 -74 -17 -127t-46.5 -86.5t-68.5 -49.5t-82 -16q-48 0 -89 18t-70 38v-256h-47v720zM144 93q10 -8 25.5 -18.5t35 -20t44 -16t52.5 -6.5q44 0 75 17.5t50.5 49
t28.5 76t9 97.5q0 112 -34.5 158.5t-108.5 46.5q-27 0 -53 -7.5t-49 -19.5t-42.5 -26.5t-32.5 -28.5v-302z" />
    <glyph glyph-name="q" unicode="q" horiz-adv-x="580" 
d="M485 -212h-47v271q-35 -30 -78 -50.5t-102 -20.5q-43 0 -78.5 14.5t-61 46t-39.5 80.5t-14 119q0 74 17.5 125.5t47 83.5t69 46.5t83.5 14.5q45 0 83.5 -16.5t67.5 -35.5l3 42h49v-720zM436 411q-10 7 -25 18.5t-35 21.5t-45 17.5t-53 7.5q-87 0 -124.5 -62.5
t-37.5 -170.5q0 -112 38 -162.5t116 -50.5q52 0 94.5 24t71.5 54v303z" />
    <glyph glyph-name="r" unicode="r" horiz-adv-x="339" 
d="M327 469q-23 3 -49 -0.5t-51 -11.5t-47 -21t-38 -29v-407h-49v508h39l5 -68q36 39 81.5 60.5t108.5 17.5v-49z" />
    <glyph glyph-name="s" unicode="s" horiz-adv-x="477" 
d="M241 518q46 0 77 -11t50 -31t28.5 -48t12.5 -62l-47 -6q-3 27 -10 48.5t-21 36.5t-36.5 23t-56.5 8q-35 0 -58.5 -8t-37 -21t-19 -30t-5.5 -34q0 -27 10.5 -44.5t29 -29t43 -18t53.5 -12.5q30 -6 60.5 -14.5t54.5 -23.5t39 -40.5t15 -65.5q0 -64 -44 -105.5t-136 -41.5
q-80 0 -129.5 35t-61.5 121l47 9q5 -24 13 -45.5t24 -38.5t42 -27t67 -10q27 0 50 5.5t40 17.5t27 31t10 47q0 26 -9.5 43t-26.5 28.5t-40 18t-50 11.5q-32 6 -63.5 14t-57 23t-41.5 40.5t-16 67.5q0 35 14 61t38 43.5t55.5 26t65.5 8.5z" />
    <glyph glyph-name="t" unicode="t" horiz-adv-x="364" 
d="M344 18q-18 -13 -50 -21.5t-59 -8.5q-71 0 -100 30.5t-29 97.5v349h-81v43h81v145l49 8v-153h144v-43h-144v-339q0 -23 3.5 -41t12.5 -30.5t25 -19t42 -6.5q23 0 49 8t43 19z" />
    <glyph glyph-name="u" unicode="u" horiz-adv-x="581" 
d="M90 508h49v-340q0 -63 23.5 -98t87.5 -35q27 0 55 8t52.5 20t45 25.5t32.5 25.5v394h49v-508h-43l-3 65q-45 -32 -91 -53.5t-106 -21.5q-83 0 -117 45t-34 132v341z" />
    <glyph glyph-name="v" unicode="v" horiz-adv-x="483" 
d="M215 0l-202 508h54l177 -452h2l175 452h49l-198 -508h-57z" />
    <glyph glyph-name="w" unicode="w" horiz-adv-x="721" 
d="M179 0l-166 508h51l144 -459h2l123 459h62l122 -457h2l143 457h46l-163 -508h-61l-119 458h-2l-125 -458h-59z" />
    <glyph glyph-name="x" unicode="x" horiz-adv-x="464" 
d="M255 269l186 -269h-55l-158 229l-151 -229h-55l174 265l-171 243h55l145 -207l147 207h53z" />
    <glyph glyph-name="y" unicode="y" horiz-adv-x="457" 
d="M17 508h52l159 -441h1l163 441h52q-27 -69 -56.5 -146t-59.5 -155.5t-59.5 -155.5t-56.5 -146q-15 -37 -31 -61.5t-34.5 -39.5t-40 -21t-45.5 -6q-27 0 -50 6.5t-37 11.5l10 41q11 -5 34 -10.5t46 -5.5q16 0 30.5 4.5t28 16t25.5 31.5t24 51l29 77z" />
    <glyph glyph-name="z" unicode="z" horiz-adv-x="454" 
d="M92 40h334v-40h-393v33l323 433h-317v42h377v-34z" />
    <glyph glyph-name="bracketleft" unicode="[" horiz-adv-x="239" 
d="M71 -143v867h127v-38h-83v-791h83v-38h-127z" />
    <glyph glyph-name="bracketright" unicode="]" horiz-adv-x="239" 
d="M168.004 -143v867h-126.992v-38h82.9951v-791h-82.9951v-38h126.992z" />
    <glyph glyph-name="parenleft" unicode="(" horiz-adv-x="285" 
d="M204 -152q-27 42 -52 89.5t-45 101t-32 113.5t-12 128q0 67 13.5 130t34.5 119.5t47.5 106t53.5 88.5h50q-74 -121 -112.5 -229.5t-38.5 -214.5q0 -65 10.5 -122t29 -109t44 -101.5t56.5 -100.5z" />
    <glyph glyph-name="parenright" unicode=")" horiz-adv-x="285" 
d="M105.013 -152q26.998 42 51.9971 89.5q24.998 47.5 44.9971 101q19.998 53.5 31.998 113.5q11.999 60 11.999 128q0 67 -13.499 130t-34.498 119.5t-47.4971 106t-53.4971 88.5h-49.9971q73.9961 -121 112.493 -229.5q38.498 -108.5 38.498 -214.5q0 -65 -10.499 -122
q-10.5 -57 -28.999 -109q-18.498 -52 -43.9971 -101.5q-25.498 -49.5 -56.4961 -100.5z" />
    <glyph glyph-name="braceleft" unicode="{" horiz-adv-x="284" 
d="M254 -145h-38q-38 0 -63 8t-40 22t-21 32.5t-6 40.5q0 25 2 53t4.5 55.5t4.5 53.5t2 47q0 29 -6.5 48t-17.5 30t-26 15t-32 4h-16v46h13q39 0 62 22t23 75q0 21 -2 51.5t-4.5 62.5t-4.5 62t-2 51q0 51 33.5 77t95.5 26h39v-43h-50q-37 -1 -52 -15.5t-15 -44.5
q0 -22 1.5 -50.5t4 -59t4 -61t1.5 -56.5q0 -32 -6 -53t-16 -34t-21.5 -20.5t-23.5 -11.5q12 -5 23.5 -12t21.5 -19.5t16 -33t6 -52.5q0 -53 -5 -107t-5 -94q0 -34 16.5 -54.5t64.5 -20.5h35v-40z" />
    <glyph glyph-name="braceright" unicode="}" horiz-adv-x="284" 
d="M30.0156 736.991h37.998q37.9971 0 62.9961 -8q24.998 -7.99902 39.9971 -21.998t20.999 -32.498q5.99902 -18.499 5.99902 -40.498q0 -24.998 -1.99902 -52.9961q-2 -27.999 -4.5 -55.4971t-4.5 -53.4961q-2 -25.999 -2 -46.998q0 -28.998 6.5 -47.9971
q6.49902 -18.998 17.499 -29.998q10.999 -10.999 25.998 -14.999t31.998 -4h15.999v-45.9971h-12.999q-38.998 0 -61.9961 -21.998q-22.999 -21.999 -22.999 -74.9961q0 -20.998 2 -51.4961t4.5 -62.4961t4.5 -61.9971q1.99902 -29.998 1.99902 -50.9961
q0 -50.9971 -33.498 -76.9961q-33.4971 -25.998 -95.4941 -25.998h-38.9971v42.9971h49.9971q36.9971 1 51.9971 15.499q14.999 14.5 14.999 44.498q0 21.998 -1.5 50.4961q-1.5 28.499 -4 58.9971t-4 60.9961t-1.5 56.4961q0 31.998 6 52.9971
q5.99902 20.999 15.999 33.998q9.99902 12.999 21.499 20.499q11.499 7.49902 23.498 11.499q-11.999 5 -23.498 11.999q-11.5 7 -21.499 19.499q-10 12.499 -15.999 32.998q-6 20.499 -6 52.4971q0 52.9961 5 106.993t5 93.9941q0 33.998 -16.499 54.4971
q-16.499 20.498 -64.4961 20.498h-34.998v39.998z" />
    <glyph glyph-name="backslash" unicode="\" horiz-adv-x="333" 
d="M283 -92l-280 847h44l281 -847h-45z" />
    <glyph glyph-name="slash" unicode="/" horiz-adv-x="334" 
d="M5 -92l281 847h44l-280 -847h-45z" />
    <glyph glyph-name="brokenbar" unicode="&#xa6;" horiz-adv-x="280" 
d="M118 -143v388h44v-388h-44zM118 408v347h44v-347h-44z" />
    <glyph glyph-name="bar" unicode="|" horiz-adv-x="280" 
d="M118 -143v898h44v-898h-44z" />
    <glyph glyph-name="asciicircum" unicode="^" horiz-adv-x="492" 
d="M418 299l-175 321l-173 -321h-48l197 365h51l200 -365h-52z" />
    <glyph glyph-name="underscore" unicode="_" horiz-adv-x="500" 
d="M0 -181v36h500v-36h-500z" />
    <glyph glyph-name="asciitilde" unicode="~" horiz-adv-x="459" 
d="M110 394q23 0 55.5 -7.5t65.5 -16.5t62.5 -16.5t46.5 -7.5q20 0 31.5 9.5t11.5 48.5l40 -1q4 -31 -2 -51t-18 -31.5t-28 -16t-31 -4.5q-22 0 -54 7.5t-65.5 16.5t-64 16.5t-48.5 7.5q-8 0 -15.5 -2.5t-13 -9t-8.5 -18.5t-2 -30l-37 2q-4 30 2 50t17.5 32t26 17t28.5 5z
" />
    <glyph glyph-name="zero" unicode="0" horiz-adv-x="546" 
d="M271 -12q-74 0 -118 31t-67 82t-30.5 118t-7.5 139t9 140.5t34 121.5t70.5 85t119.5 32q73 0 116 -32t65.5 -83.5t29 -116.5t6.5 -132q0 -77 -8 -146.5t-32.5 -122.5t-69 -84.5t-117.5 -31.5zM274 32q57 0 91.5 27t53 72.5t24.5 106t6 128.5q0 66 -5 125.5t-23 104
t-51.5 71t-90.5 26.5q-58 0 -93.5 -26.5t-55 -72.5t-26.5 -108t-7 -132q0 -62 6 -120t24.5 -103t53.5 -72t93 -27z" />
    <glyph glyph-name="one" unicode="1" horiz-adv-x="392" 
d="M209 0v639q-13 -8 -34.5 -15t-44.5 -12t-44 -7.5t-33 -2.5l-7 38q72 6 116.5 25t77.5 59h16v-724h-47z" />
    <glyph glyph-name="two" unicode="2" horiz-adv-x="509" 
d="M260 737q39 0 72.5 -9.5t58.5 -30.5t39.5 -54t14.5 -80q0 -44 -11 -82.5t-31.5 -76t-49.5 -76.5t-65 -82l-168 -206v1h334v-41h-391v35l180 224q40 51 68.5 89t46.5 71.5t26.5 66.5t8.5 73q0 37 -10 63t-28.5 42t-44 23t-55.5 7q-43 0 -70.5 -11.5t-44 -31t-25 -44.5
t-13.5 -51l-46 9q15 92 68 132t136 40z" />
    <glyph glyph-name="three" unicode="3" horiz-adv-x="531" 
d="M97 156q4 -22 12 -44t24.5 -39.5t43.5 -28.5t69 -11q30 0 59.5 9t52 29t36.5 51.5t14 77.5q0 47 -13.5 79t-37 51t-56 27t-70.5 8h-60v42h46q42 0 75.5 11.5t57 32.5t36 50t12.5 63q0 27 -7 50.5t-22.5 41t-41.5 28t-65 10.5q-38 0 -63.5 -9t-43 -25.5t-27.5 -38.5
t-17 -48l-44 11q17 81 71 117t131 36q45 0 78.5 -12.5t56 -35t33.5 -53t11 -66.5q0 -45 -14 -77t-35 -53t-46.5 -32.5t-48.5 -15.5v-2q70 -10 113 -54.5t43 -133.5q0 -47 -14 -86t-41.5 -67.5t-68 -44.5t-92.5 -16q-85 0 -135 40.5t-60 117.5z" />
    <glyph glyph-name="four" unicode="4" horiz-adv-x="522" 
d="M360 0v189h-341v37l324 498h65v-492h88v-43h-89v-189h-47zM361 232v445l-284 -445h284z" />
    <glyph glyph-name="five" unicode="5" horiz-adv-x="528" 
d="M104 724h322v-43h-279l-25 -279q26 23 63 40t89 17q33 0 67.5 -9.5t63 -34.5t47 -68t18.5 -110q0 -53 -14.5 -98t-43.5 -79t-71.5 -53t-99.5 -19q-82 0 -136 39.5t-68 119.5l48 12q5 -23 14.5 -45.5t27.5 -40.5t45.5 -29t69.5 -11q31 0 62 10.5t56 34.5t41 63.5t16 96.5
q0 48 -11.5 81.5t-31.5 54.5t-47 31t-58 10q-50 0 -87.5 -17.5t-69.5 -47.5l-36 17z" />
    <glyph glyph-name="six" unicode="6" horiz-adv-x="556" 
d="M446 583q-9 34 -21.5 56t-29 34.5t-36 17t-41.5 4.5q-41 0 -71.5 -17.5t-52.5 -46.5t-36.5 -66.5t-22.5 -77.5t-12 -79.5t-4 -71.5q13 17 33 35t45.5 33t55 25t60.5 10q51 0 86.5 -17t58.5 -45.5t33.5 -66t10.5 -79.5q0 -55 -14.5 -100t-41.5 -76.5t-66.5 -49
t-89.5 -17.5q-68 0 -110.5 29t-66.5 77t-33 110.5t-9 129.5q0 39 4 84t15 90t29 86t46.5 73t67.5 51t92 19q61 0 106 -33.5t59 -109.5zM122 286q3 -43 10 -88.5t25.5 -82.5t50.5 -61t84 -24q32 0 61.5 11t51.5 34.5t35 60.5t13 90q0 168 -141 168q-57 0 -105.5 -30.5
t-84.5 -77.5z" />
    <glyph glyph-name="seven" unicode="7" horiz-adv-x="499" 
d="M120 0l307 681h-389v43h443v-37l-308 -687h-53z" />
    <glyph glyph-name="eight" unicode="8" horiz-adv-x="519" 
d="M310 372q29 -12 59 -27t54.5 -37.5t40 -55t15.5 -78.5q0 -42 -15.5 -76t-44.5 -58.5t-69.5 -38t-90.5 -13.5q-56 0 -97 14t-67 38.5t-38.5 58t-12.5 72.5q0 42 14.5 73.5t38 55t53 40t60.5 28.5q-28 11 -53.5 28t-45 40t-31.5 52.5t-12 65.5q0 46 16.5 80.5t44.5 57
t65.5 34t80.5 11.5q88 0 141 -42.5t53 -121.5q0 -34 -12 -64t-33.5 -55t-50.5 -45.5t-63 -36.5zM255 348q-34 -14 -63 -29t-50.5 -35.5t-33.5 -48t-12 -64.5q0 -60 39.5 -100.5t126.5 -40.5q46 0 78 13.5t52 34.5t29 47t9 52q0 42 -17.5 70t-43.5 47.5t-56.5 31.5t-57.5 22z
M264 388q72 34 114 79t42 107q0 58 -38 90t-113 32q-72 0 -112 -36t-40 -100q0 -38 12 -64.5t32 -46t46.5 -34t56.5 -27.5z" />
    <glyph glyph-name="nine" unicode="9" horiz-adv-x="556" 
d="M104 146q14 -62 53 -88.5t91 -26.5q57 0 94 27.5t58.5 74.5t30.5 109.5t10 133.5q-13 -17 -33 -35t-45.5 -32.5t-54.5 -24t-60 -9.5q-51 0 -87 17.5t-59.5 47.5t-34 69.5t-10.5 83.5q0 55 14.5 100.5t42 77t67 49t89.5 17.5q68 0 111 -29t67 -77t32.5 -110.5t8.5 -129.5
q0 -77 -9.5 -149.5t-36 -129t-74.5 -90.5t-124 -34q-71 0 -121.5 35.5t-65.5 111.5zM438 429q-2 43 -8.5 90t-24.5 86.5t-50.5 65t-86.5 25.5q-33 0 -62 -11t-51 -35t-35 -62t-13 -91q0 -88 37 -132.5t106 -44.5q28 0 55 9t51 24t45 34.5t37 41.5z" />
    <glyph glyph-name="dollar" unicode="$" horiz-adv-x="515" 
d="M407 530q-5 26 -13.5 49t-22 41t-34 30t-50.5 15v-293q32 -10 63.5 -22.5t56 -32t39.5 -49.5t15 -76q0 -76 -45 -124.5t-128 -56.5v-90h-40v88q-41 1 -75.5 11.5t-61.5 32t-44.5 56t-24.5 84.5l48 12q7 -37 18 -64.5t29.5 -46.5t44.5 -29.5t63 -12.5v284q-33 10 -65 22
t-57 32.5t-40.5 53t-15.5 83.5q0 44 15 77t40 55.5t57 35t67 15.5v82h41v-82q73 -8 114.5 -48.5t54.5 -121.5zM118 528q0 -33 10 -56.5t27.5 -40t40.5 -27t49 -19.5v280q-37 -3 -61.5 -15.5t-39 -32t-20.5 -42.5t-6 -47zM408 184q0 33 -9.5 55.5t-26 38.5t-38.5 26.5
t-47 18.5v-270q53 7 87 39t34 92z" />
    <glyph glyph-name="Euro" unicode="&#x20ac;" horiz-adv-x="589" 
d="M342 -12q-43 0 -85.5 10.5t-77.5 40t-60.5 82t-34.5 135.5h-86l7 42h75q-1 12 -1 24v26q0 17 0.5 33t1.5 32h-66l7 42h63q11 86 39 140.5t65.5 86t82 43.5t88.5 12t81 -12t64.5 -36.5t44 -62t19.5 -88.5l-46 -6q-5 42 -16.5 72t-31 50t-49 29.5t-69.5 9.5q-55 0 -94 -18
t-65 -49.5t-40.5 -75.5t-20.5 -95h258l-8 -42h-254q-2 -16 -2 -31.5v-32.5v-26.5t1 -24.5h236l-8 -42h-224q12 -109 60.5 -166t146.5 -57q73 0 118 32.5t59 107.5l44 -13q-8 -47 -29.5 -79.5t-51.5 -53t-66.5 -30t-74.5 -9.5z" />
    <glyph glyph-name="cent" unicode="&#xa2;" horiz-adv-x="501" 
d="M297 691v-99q33 -2 60.5 -12.5t48.5 -29.5t33 -46.5t14 -64.5l-46 -6q-7 58 -32.5 84t-76.5 29v-402q51 5 77.5 32t38.5 79l44 -10q-12 -71 -56.5 -105t-103.5 -41v-99h-39v99q-49 3 -84.5 23t-59 52.5t-34.5 76t-11 95.5q0 57 13.5 100.5t38.5 74t59 48t76 22.5v100h40z
M121 352q0 -38 6.5 -74t22.5 -64.5t42.5 -47t66.5 -22.5v401q-27 -3 -51.5 -14t-44 -33.5t-31 -58t-11.5 -87.5z" />
    <glyph glyph-name="sterling" unicode="&#xa3;" horiz-adv-x="538" 
d="M80 42q46 44 68.5 90.5t22.5 92.5q0 52 -28 106h-109v41h85q-7 13 -15 30t-15.5 37.5t-12.5 44t-5 49.5q0 45 16 82.5t44.5 64.5t67.5 42t84 15q90 0 138.5 -42t58.5 -138l-46 -5q-8 69 -40.5 105t-108.5 36q-35 0 -65 -9.5t-52.5 -28t-35.5 -47t-13 -67.5q0 -26 5 -50
t12.5 -45.5t16 -40t15.5 -33.5h247v-41h-224q24 -57 24 -110q0 -49 -20.5 -95t-58.5 -84h215q55 0 79 28.5t35 91.5l49 -11q-12 -82 -54 -116.5t-113 -34.5h-320v42h53z" />
    <glyph glyph-name="yen" unicode="&#xa5;" horiz-adv-x="499" 
d="M280 248v-248h-49v248h-137v42h137v99h-137v42h106l-170 293h57l169 -299h1l162 299h52l-164 -293h109v-42h-136v-99h136v-42h-136z" />
    <glyph glyph-name="florin" unicode="&#x192;" horiz-adv-x="505" 
d="M481 631q-12 30 -31.5 46t-49.5 16q-35 0 -61 -21t-37 -80l-28 -149h148l-10 -45h-148l-91 -439q-17 -77 -52.5 -108.5t-92.5 -31.5q-20 0 -39 4.5t-35.5 15t-30 28t-22.5 43.5l47 19q13 -30 29 -47.5t51 -17.5q16 0 31 4t27.5 15.5t21.5 31t15 49.5l89 434h-75l10 45h75
l30 154q15 77 53.5 108.5t95.5 31.5q39 0 73 -18t54 -69z" />
    <glyph glyph-name="afii61352" unicode="&#x2116;" horiz-adv-x="1051" 
d="M704 336h273v-47h-273v47zM834 390q-41 0 -70 12.5t-47.5 35.5t-27 54.5t-8.5 69.5q0 75 39 121t120 46q40 0 69 -12t47 -34t26.5 -51.5t8.5 -65.5q0 -81 -37.5 -128.5t-119.5 -47.5zM836 429q54 0 80.5 33.5t26.5 98.5q0 126 -104 126q-54 0 -83 -31.5t-29 -94.5
t27.5 -97.5t81.5 -34.5zM528 0l-369 679v-679h-47v724h77l358 -664v664h46v-724h-65z" />
    <glyph glyph-name="zero.osf" horiz-adv-x="612" 
d="M304 -12q-73 0 -119.5 26t-73 68t-36.5 94t-10 104q0 54 12 107.5t40.5 96t76.5 68.5t120 26q69 0 114.5 -24.5t71.5 -64t36.5 -90.5t10.5 -104q0 -54 -10.5 -109t-38 -99t-74.5 -71.5t-120 -27.5zM307 33q53 0 89 20t58.5 55t32.5 81t10 99q0 51 -9 95.5t-30.5 77.5
t-57 52t-88.5 19t-90.5 -19t-61 -53.5t-34.5 -82t-11 -104.5q0 -48 10 -91.5t32.5 -76.5t59.5 -52.5t90 -19.5z" />
    <glyph glyph-name="one.osf" horiz-adv-x="383" 
d="M208 0v486q-12 -10 -33 -17t-43.5 -12t-44 -7.5t-33.5 -2.5l-7 40q69 5 113.5 24t78.5 59h15v-570h-46z" />
    <glyph glyph-name="two.osf" horiz-adv-x="510" 
d="M262 578q38 0 70.5 -9.5t56 -29t37 -51t13.5 -74.5q0 -41 -11.5 -74.5t-33.5 -63.5t-54 -59t-72 -63l-134 -110h312v-44h-382v37l152 131q43 38 75.5 67t54.5 56t32.5 55t10.5 65q0 67 -34.5 95t-95.5 28q-43 0 -71 -11t-45 -30t-26 -43.5t-14 -52.5l-46 8
q14 90 67.5 131.5t137.5 41.5z" />
    <glyph glyph-name="three.osf" horiz-adv-x="498" 
d="M80 89q4 -21 11.5 -43.5t23 -40.5t42.5 -30t70 -12q28 0 54.5 5.5t47.5 20.5t33.5 41.5t12.5 68.5q0 71 -43.5 103.5t-109.5 32.5h-70v44h38q41 0 74 11.5t56.5 32t36.5 47t13 56.5q0 20 -5.5 39t-20 34t-38.5 24.5t-60 9.5t-61.5 -8t-43.5 -23t-29 -36.5t-19 -48.5
l-45 11q18 79 72 114.5t126 35.5q85 0 131 -40.5t46 -110.5q0 -36 -11.5 -63t-31 -46.5t-44.5 -32.5t-52 -21v-2q66 -11 104.5 -49.5t38.5 -115.5q0 -81 -51.5 -130.5t-149.5 -49.5q-90 0 -138 42.5t-57 120.5z" />
    <glyph glyph-name="four.osf" horiz-adv-x="512" 
d="M349 -67v152h-331v37l315 448h65v-442h88v-43h-89v-152h-48zM350 128v394l-274 -394h274z" />
    <glyph glyph-name="five.osf" horiz-adv-x="517" 
d="M104 563h321v-43h-279l-22 -248q26 23 63.5 40t85.5 17q35 0 68.5 -11t59.5 -34t42 -59.5t16 -88.5q0 -44 -12.5 -83.5t-38 -69.5t-65.5 -48t-95 -18q-36 0 -69.5 10t-60.5 29.5t-45.5 49.5t-25.5 71l46 11q5 -22 15.5 -44.5t28.5 -40.5t45.5 -29.5t67.5 -11.5
q29 0 57.5 8t51 28t36 53.5t13.5 83.5q0 33 -8.5 60.5t-25.5 47.5t-44 31.5t-63 11.5q-45 0 -81 -17t-67 -46l-38 16z" />
    <glyph glyph-name="six.osf" horiz-adv-x="539" 
d="M439 485q-9 36 -22 58.5t-30 34.5t-38 16.5t-45 4.5q-58 0 -94 -28.5t-56.5 -73t-28 -98.5t-8.5 -104q12 16 31.5 34.5t43.5 33.5t52.5 25t59.5 10q48 0 82.5 -17t56 -44.5t31.5 -62.5t10 -72q0 -45 -11.5 -84t-36 -68t-63 -45.5t-92.5 -16.5q-68 0 -109.5 29t-64.5 75
t-30.5 103.5t-7.5 115.5q0 48 9 106t35 108t74 84t126 34q63 0 109.5 -33.5t61.5 -113.5zM120 245q1 -25 7 -61.5t23.5 -70t49 -57.5t84.5 -24q32 0 59.5 9t47.5 29t31.5 51t11.5 76q0 74 -33 115t-97 41q-27 0 -52.5 -8.5t-49.5 -23.5t-45 -34.5t-37 -41.5z" />
    <glyph glyph-name="seven.osf" horiz-adv-x="499" 
d="M112 -67l306 586h-368v44h419v-41l-304 -589h-53z" />
    <glyph glyph-name="eight.osf" horiz-adv-x="504" 
d="M303 332q30 -13 59 -27t51.5 -34t36.5 -48t14 -67q0 -42 -16 -73.5t-44.5 -52.5t-68 -31.5t-86.5 -10.5q-103 0 -155.5 41t-52.5 116q0 36 11.5 63t32 49t49.5 39t65 33q-33 14 -59 29.5t-44 34.5t-27.5 42.5t-9.5 54.5q0 37 15.5 65.5t43 48t65 29.5t81.5 10
q91 0 140 -36.5t49 -102.5q0 -30 -10.5 -54t-30 -44.5t-47 -38t-62.5 -35.5zM252 310q-43 -16 -73 -33t-49 -36.5t-28 -42.5t-9 -53q0 -57 41.5 -85.5t117.5 -28.5q86 0 124.5 35.5t38.5 88.5q0 35 -15.5 60t-39.5 43t-53 30t-55 22zM256 351q34 16 61 32t46 33.5t29.5 38.5
t10.5 47q0 47 -32.5 73.5t-110.5 26.5q-75 0 -113.5 -28t-38.5 -87q0 -28 13 -49t34 -37t47.5 -28t53.5 -22z" />
    <glyph glyph-name="nine.osf" horiz-adv-x="555" 
d="M115 74q9 -35 23.5 -57t33 -34.5t40 -17t44.5 -4.5q61 0 97 29t55 74t24.5 99.5t6.5 104.5q-12 -19 -31.5 -36.5t-43.5 -30.5t-52 -21t-58 -8q-48 0 -81.5 17.5t-55.5 46t-32 64.5t-10 73q0 44 13 83t38.5 67.5t64 45t90.5 16.5q65 0 105.5 -29.5t63 -76t30.5 -104
t8 -114.5q0 -53 -8 -113t-33 -111.5t-71.5 -85.5t-124.5 -34q-31 0 -60.5 7.5t-53.5 24t-42 44t-26 68.5zM437 323q-1 25 -6.5 62.5t-22.5 72.5t-48.5 60t-84.5 25q-30 0 -57.5 -9.5t-48.5 -29.5t-33 -51.5t-12 -75.5q0 -74 33 -117.5t97 -43.5q57 0 103.5 29t79.5 78z" />
    <glyph glyph-name="dollar.osf" horiz-adv-x="518" 
d="M403 461q-12 60 -42 84.5t-78 29.5v-244q34 -7 65 -18.5t54 -30.5t36.5 -46.5t13.5 -66.5q0 -67 -42 -111t-127 -56v-81h-39v79q-41 0 -75.5 9.5t-61 29.5t-44 50.5t-23.5 73.5l49 10q5 -27 15 -49.5t28 -39.5t45 -27t66 -11v244q-42 9 -75 21.5t-56 31.5t-35 46.5
t-12 65.5q0 40 14.5 69.5t38.5 50t56 31.5t68 14v72h41v-71q72 -9 113 -44t55 -107zM117 459q0 -46 27.5 -75t98.5 -45v236q-62 -4 -94 -35.5t-32 -80.5zM399 168q0 47 -27 73.5t-89 40.5v-235q57 7 86.5 38.5t29.5 82.5z" />
    <glyph glyph-name="Euro.osf" horiz-adv-x="576" 
d="M329 -12q-60 0 -103 18.5t-72 50t-46 74t-24 91.5h-67l7 42h56q-1 11 -1 21.5v21.5q0 14 0.5 27t1.5 26h-48l7 42h47q21 113 88.5 176.5t169.5 63.5q90 0 147 -50t65 -153l-46 -4q-6 40 -17 71t-30.5 51t-48 30.5t-69.5 10.5q-33 0 -65.5 -9.5t-61 -32t-50 -60
t-31.5 -94.5h245l-8 -42h-242q-2 -12 -2 -24.5v-26.5v-23t1 -22h235l-8 -42h-222q6 -44 20.5 -79t38 -60t57.5 -38.5t80 -13.5q75 0 117.5 33.5t59.5 111.5l42 -12q-8 -48 -28 -81.5t-50 -54.5t-67 -30.5t-78 -9.5z" />
    <glyph glyph-name="cent.osf" horiz-adv-x="480" 
d="M292 627v-99q33 -2 60.5 -12.5t48.5 -29.5t33 -46.5t14 -64.5l-46 -6q-7 58 -32.5 84t-76.5 29v-402q51 5 77.5 32t38.5 79l44 -10q-12 -71 -56.5 -105t-103.5 -41v-99h-39v99q-49 3 -84.5 23t-59 52.5t-34.5 76t-11 95.5q0 57 13.5 100.5t38.5 74t59 48t76 22.5v100h40z
M116 288q0 -38 6.5 -74t22.5 -64.5t42.5 -47t66.5 -22.5v401q-27 -3 -51.5 -14t-44 -33.5t-31 -58t-11.5 -87.5z" />
    <glyph glyph-name="sterling.osf" horiz-adv-x="537" 
d="M76 44q33 34 53 70.5t20 84.5q0 22 -5 41t-13 36h-109v42h87q-15 27 -27 57.5t-12 74.5t16 79.5t44.5 60.5t67 38.5t83.5 13.5q89 0 138 -42.5t58 -139.5l-46 -5q-8 73 -41 108.5t-109 35.5q-71 0 -116 -36.5t-45 -112.5q0 -37 12 -67t30 -64h241v-43h-221
q6 -17 10 -35.5t4 -38.5q0 -45 -15 -82t-49 -76h218q55 0 81 26.5t37 89.5l45 -9q-12 -82 -54 -116.5t-113 -34.5h-322v44h52z" />
    <glyph glyph-name="yen.osf" horiz-adv-x="500" 
d="M280 183v-183h-49v183h-136v42h136v84h-136v42h105l-169 281h56l170 -289l163 289h51l-162 -281h108v-42h-137v-84h137v-42h-137z" />
    <glyph glyph-name="florin.osf" horiz-adv-x="464" 
d="M453 539q-12 30 -31.5 46t-49.5 16q-35 0 -61 -21t-37 -80l-25 -131h148l-10 -45h-148l-78 -367q-17 -77 -52.5 -108.5t-92.5 -31.5q-20 0 -39 4.5t-35.5 15t-30 28t-22.5 43.5l47 19q13 -30 29 -47.5t51 -17.5q16 0 31 4t27.5 15.5t21.5 31t15 49.5l76 362h-75l10 45h75
l27 136q15 77 53.5 108.5t95.5 31.5q39 0 73 -18t54 -69z" />
    <glyph glyph-name="afii61352.osf" horiz-adv-x="931" 
d="M452 0l-321 574v-574h-51v626h78l308 -554v554h50v-626h-64zM734 286q-41 0 -70 13t-48 35.5t-27.5 54t-8.5 69.5q0 75 41.5 121t118.5 46q39 0 68 -12t47.5 -33.5t27.5 -51.5t9 -65q0 -81 -38.5 -129t-119.5 -48zM736 327q54 0 80.5 32t26.5 103q0 59 -25 90t-79 31
t-83 -31.5t-29 -94.5q0 -130 109 -130zM585 239h302v-45h-302v45z" />
    <glyph glyph-name="percent.osf" horiz-adv-x="849" 
d="M206 257q-43 0 -72.5 15t-47.5 39.5t-26 56t-8 65.5q0 40 10.5 74.5t31.5 59.5t51 39t69 14q40 0 69 -12.5t47.5 -35.5t27 -55t8.5 -71q0 -41 -10 -76t-29.5 -60t-50 -39t-70.5 -14zM209 303q31 0 51 11t31.5 30t16 44t4.5 54q0 25 -4 49t-15.5 42.5t-31 29.5t-49.5 11
q-31 0 -51.5 -13t-32.5 -33.5t-16.5 -44.5t-4.5 -46q0 -26 4.5 -50.5t16 -43t31 -29.5t50.5 -11zM635 -12q-43 0 -72.5 15t-47.5 39.5t-26 56t-8 65.5q0 40 10.5 74.5t31.5 59.5t51 39t69 14q40 0 69 -12.5t47.5 -35.5t27 -55t8.5 -71q0 -41 -10 -76t-29.5 -60t-50 -39
t-70.5 -14zM638 34q31 0 51 11t31.5 30t16 44t4.5 54q0 25 -4 49t-15.5 42.5t-31 29.5t-49.5 11q-31 0 -51.5 -13t-32.5 -33.5t-16.5 -44.5t-4.5 -46q0 -26 4.5 -50.5t16 -43t31 -29.5t50.5 -11zM223 -12l353 634h52l-352 -634h-53z" />
    <glyph glyph-name="perthousand.osf" horiz-adv-x="1044" 
d="M189 296q-39 0 -64.5 13.5t-41 35.5t-22 50.5t-6.5 58.5q0 35 9 65.5t26.5 53t44 35.5t61.5 13q72 0 103 -44.5t31 -113.5q0 -75 -35.5 -121t-105.5 -46zM192 339q26 0 42.5 10t26.5 27t13.5 38.5t3.5 45.5q0 22 -3.5 43t-12.5 37.5t-25.5 26.5t-41.5 10q-26 0 -43 -12
t-27 -30t-14 -39t-4 -40q0 -22 3.5 -43t13 -37.5t26 -26.5t42.5 -10zM530 -12q-39 0 -64.5 13.5t-41 35.5t-22 50.5t-6.5 58.5q0 35 9 65.5t26.5 53t44 35.5t61.5 13q72 0 103 -44.5t31 -113.5q0 -75 -35.5 -121t-105.5 -46zM533 31q26 0 42.5 10t26.5 27t13.5 38.5
t3.5 45.5q0 22 -3.5 43t-12.5 37.5t-25.5 26.5t-41.5 10q-26 0 -43 -12t-27 -30t-14 -39t-4 -40q0 -22 3.5 -43t13 -37.5t26 -26.5t42.5 -10zM850 -12q-39 0 -64.5 13.5t-41 35.5t-22 50.5t-6.5 58.5q0 35 9 65.5t26.5 53t44 35.5t61.5 13q72 0 103 -44.5t31 -113.5
q0 -75 -35.5 -121t-105.5 -46zM853 31q26 0 42.5 10t26.5 27t13.5 38.5t3.5 45.5q0 22 -3.5 43t-12.5 37.5t-25.5 26.5t-41.5 10q-26 0 -43 -12t-27 -30t-14 -39t-4 -40q0 -22 3.5 -43t13 -37.5t26 -26.5t42.5 -10zM153 -12l373 634h52l-372 -634h-53z" />
    <glyph glyph-name="zero.slash" 
d="M283 -12q-74 0 -118 31t-67 82t-30.5 118t-7.5 139t9 140.5t34 121.5t70.5 85t119.5 32q73 0 116 -32t65.5 -83.5t29 -116.5t6.5 -132q0 -77 -8 -146.5t-32.5 -122.5t-69 -84.5t-117.5 -31.5zM109 354q0 -44 2.5 -86t10.5 -79t22 -68t37 -52l172 613q-28 11 -62 11
q-58 0 -93.5 -26.5t-55 -72.5t-26.5 -108t-7 -132zM286 32q57 0 91.5 27t53 72.5t24.5 106t6 128.5q0 47 -2.5 91t-10 82t-21 68.5t-36.5 50.5l-171 -614q27 -12 66 -12z" />
    <glyph glyph-name="zero.tf" 
d="M283 -12q-74 0 -118 31t-67 82t-30.5 118t-7.5 139t9 140.5t34 121.5t70.5 85t119.5 32q73 0 116 -32t65.5 -83.5t29 -116.5t6.5 -132q0 -77 -8 -146.5t-32.5 -122.5t-69 -84.5t-117.5 -31.5zM286 32q57 0 91.5 27t53 72.5t24.5 106t6 128.5q0 66 -5 125.5t-23 104
t-51.5 71t-90.5 26.5q-58 0 -93.5 -26.5t-55 -72.5t-26.5 -108t-7 -132q0 -62 6 -120t24.5 -103t53.5 -72t93 -27z" />
    <glyph glyph-name="one.tf" 
d="M146 39h139v600q-13 -8 -34.5 -15t-44.5 -12t-44 -7.5t-33 -2.5l-7 38q72 6 116.5 25t77.5 59h16v-685h131v-39h-317v39z" />
    <glyph glyph-name="two.tf" 
d="M276 737q39 0 72.5 -9.5t58.5 -30.5t39.5 -54t14.5 -80q0 -44 -11 -82.5t-31.5 -76t-49.5 -76.5t-65 -82l-168 -206v1h334v-41h-391v35l180 224q40 51 68.5 89t46.5 71.5t26.5 66.5t8.5 73q0 37 -10 63t-28.5 42t-44 23t-55.5 7q-43 0 -70.5 -11.5t-44 -31t-25 -44.5
t-13.5 -51l-46 9q15 92 68 132t136 40z" />
    <glyph glyph-name="three.tf" 
d="M111 156q4 -22 12 -44t24.5 -39.5t43.5 -28.5t69 -11q30 0 59.5 9t52 29t36.5 51.5t14 77.5q0 47 -13.5 79t-37 51t-56 27t-70.5 8h-60v42h46q42 0 75.5 11.5t57 32.5t36 50t12.5 63q0 27 -7 50.5t-22.5 41t-41.5 28t-65 10.5q-38 0 -63.5 -9t-43 -25.5t-27.5 -38.5
t-17 -48l-44 11q17 81 71 117t131 36q45 0 78.5 -12.5t56 -35t33.5 -53t11 -66.5q0 -45 -14 -77t-35 -53t-46.5 -32.5t-48.5 -15.5v-2q70 -10 113 -54.5t43 -133.5q0 -47 -14 -86t-41.5 -67.5t-68 -44.5t-92.5 -16q-85 0 -135 40.5t-60 117.5z" />
    <glyph glyph-name="four.tf" 
d="M391 0v190h-346v36l329 498h65v-492h90v-42h-91v-190h-47zM392 232v445l-288 -445h288z" />
    <glyph glyph-name="five.tf" 
d="M128 724h322v-43h-279l-25 -279q26 23 63 40t89 17q33 0 67.5 -9.5t63 -34.5t47 -68t18.5 -110q0 -53 -14.5 -98t-43.5 -79t-71.5 -53t-99.5 -19q-82 0 -136 39.5t-68 119.5l48 12q5 -23 14.5 -45.5t27.5 -40.5t45.5 -29t69.5 -11q31 0 62 10.5t56 34.5t41 63.5t16 96.5
q0 48 -11.5 81.5t-31.5 54.5t-47 31t-58 10q-50 0 -87.5 -17.5t-69.5 -47.5l-36 17z" />
    <glyph glyph-name="six.tf" 
d="M446 583q-9 34 -21.5 56t-29 34.5t-36 17t-41.5 4.5q-41 0 -71.5 -17.5t-52.5 -46.5t-36.5 -66.5t-22.5 -77.5t-12 -79.5t-4 -71.5q13 17 33 35t45.5 33t55 25t60.5 10q51 0 86.5 -17t58.5 -45.5t33.5 -66t10.5 -79.5q0 -55 -14.5 -100t-41.5 -76.5t-66.5 -49
t-89.5 -17.5q-68 0 -110.5 29t-66.5 77t-33 110.5t-9 129.5q0 39 4 84t15 90t29 86t46.5 73t67.5 51t92 19q61 0 106 -33.5t59 -109.5zM122 286q3 -43 10 -88.5t25.5 -82.5t50.5 -61t84 -24q32 0 61.5 11t51.5 34.5t35 60.5t13 90q0 168 -141 168q-57 0 -105.5 -30.5
t-84.5 -77.5z" />
    <glyph glyph-name="seven.tf" 
d="M139 0l307 681h-389v43h443v-37l-308 -687h-53z" />
    <glyph glyph-name="eight.tf" 
d="M329 372q29 -12 59 -27t54.5 -37.5t40 -55t15.5 -78.5q0 -42 -15.5 -76t-44.5 -58.5t-69.5 -38t-90.5 -13.5q-56 0 -97 14t-67 38.5t-38.5 58t-12.5 72.5q0 42 14.5 73.5t38 55t53 40t60.5 28.5q-28 11 -53.5 28t-45 40t-31.5 52.5t-12 65.5q0 46 16.5 80.5t44.5 57
t65.5 34t80.5 11.5q88 0 141 -42.5t53 -121.5q0 -34 -12 -64t-33.5 -55t-50.5 -45.5t-63 -36.5zM274 348q-34 -14 -63 -29t-50.5 -35.5t-33.5 -48t-12 -64.5q0 -60 39.5 -100.5t126.5 -40.5q46 0 78 13.5t52 34.5t29 47t9 52q0 42 -17.5 70t-43.5 47.5t-56.5 31.5t-57.5 22z
M283 388q72 34 114 79t42 107q0 58 -38 90t-113 32q-72 0 -112 -36t-40 -100q0 -38 12 -64.5t32 -46t46.5 -34t56.5 -27.5z" />
    <glyph glyph-name="nine.tf" 
d="M109 146q14 -62 53 -88.5t91 -26.5q57 0 94 27.5t58.5 74.5t30.5 109.5t10 133.5q-13 -17 -33 -35t-45.5 -32.5t-54.5 -24t-60 -9.5q-51 0 -87 17.5t-59.5 47.5t-34 69.5t-10.5 83.5q0 55 14.5 100.5t42 77t67 49t89.5 17.5q68 0 111 -29t67 -77t32.5 -110.5t8.5 -129.5
q0 -77 -9.5 -149.5t-36 -129t-74.5 -90.5t-124 -34q-71 0 -121.5 35.5t-65.5 111.5zM443 429q-2 43 -8.5 90t-24.5 86.5t-50.5 65t-86.5 25.5q-33 0 -62 -11t-51 -35t-35 -62t-13 -91q0 -88 37 -132.5t106 -44.5q28 0 55 9t51 24t45 34.5t37 41.5z" />
    <glyph glyph-name="dollar.tf" 
d="M433 530q-5 26 -13.5 49t-22 41t-34 30t-50.5 15v-293q32 -10 63.5 -22.5t56 -32t39.5 -49.5t15 -76q0 -76 -45 -124.5t-128 -56.5v-90h-40v88q-41 1 -75.5 11.5t-61.5 32t-44.5 56t-24.5 84.5l48 12q7 -37 18 -64.5t29.5 -46.5t44.5 -29.5t63 -12.5v284q-33 10 -65 22
t-57 32.5t-40.5 53t-15.5 83.5q0 44 15 77t40 55.5t57 35t67 15.5v82h41v-82q73 -8 114.5 -48.5t54.5 -121.5zM144 528q0 -33 10 -56.5t27.5 -40t40.5 -27t49 -19.5v280q-37 -3 -61.5 -15.5t-39 -32t-20.5 -42.5t-6 -47zM434 184q0 33 -9.5 55.5t-26 38.5t-38.5 26.5
t-47 18.5v-270q53 7 87 39t34 92z" />
    <glyph glyph-name="Euro.tf" 
d="M322 -12q-43 0 -85.5 10.5t-77.5 40t-60.5 82t-34.5 135.5h-86l7 42h75q-1 12 -1 24v26q0 17 0.5 33t1.5 32h-66l7 42h63q11 86 39 140.5t65.5 86t82 43.5t88.5 12t81 -12t64.5 -36.5t44 -62t19.5 -88.5l-46 -6q-5 42 -16.5 72t-31 50t-49 29.5t-69.5 9.5q-55 0 -94 -18
t-65 -49.5t-40.5 -75.5t-20.5 -95h258l-8 -42h-254q-2 -16 -2 -31.5v-32.5v-26.5t1 -24.5h236l-8 -42h-224q12 -109 60.5 -166t146.5 -57q73 0 118 32.5t59 107.5l44 -13q-8 -47 -29.5 -79.5t-51.5 -53t-66.5 -30t-74.5 -9.5z" />
    <glyph glyph-name="cent.tf" 
d="M317 691v-99q33 -2 60.5 -12.5t48.5 -29.5t33 -46.5t14 -64.5l-46 -6q-7 58 -32.5 84t-76.5 29v-402q51 5 77.5 32t38.5 79l44 -10q-12 -71 -56.5 -105t-103.5 -41v-99h-39v99q-49 3 -84.5 23t-59 52.5t-34.5 76t-11 95.5q0 57 13.5 100.5t38.5 74t59 48t76 22.5v100h40z
M141 352q0 -38 6.5 -74t22.5 -64.5t42.5 -47t66.5 -22.5v401q-27 -3 -51.5 -14t-44 -33.5t-31 -58t-11.5 -87.5z" />
    <glyph glyph-name="sterling.tf" 
d="M92 42q46 44 68.5 90.5t22.5 92.5q0 52 -28 106h-109v41h85q-7 13 -15 30t-15.5 37.5t-12.5 44t-5 49.5q0 45 16 82.5t44.5 64.5t67.5 42t84 15q90 0 138.5 -42t58.5 -138l-46 -5q-8 69 -40.5 105t-108.5 36q-35 0 -65 -9.5t-52.5 -28t-35.5 -47t-13 -67.5q0 -26 5 -50
t12.5 -45.5t16 -40t15.5 -33.5h247v-41h-224q24 -57 24 -110q0 -49 -20.5 -95t-58.5 -84h215q55 0 79 28.5t35 91.5l49 -11q-12 -82 -54 -116.5t-113 -34.5h-320v42h53z" />
    <glyph glyph-name="yen.tf" 
d="M308 248v-248h-49v248h-137v42h137v99h-137v42h106l-170 293h57l169 -299h1l162 299h52l-164 -293h109v-42h-136v-99h136v-42h-136z" />
    <glyph glyph-name="florin.tf" 
d="M523 631q-12 30 -31.5 46t-49.5 16q-35 0 -61 -21t-37 -80l-28 -149h148l-10 -45h-148l-91 -439q-17 -77 -52.5 -108.5t-92.5 -31.5q-20 0 -39 4.5t-35.5 15t-30 28t-22.5 43.5l47 19q13 -30 29 -47.5t51 -17.5q16 0 31 4t27.5 15.5t21.5 31t15 49.5l89 434h-75l10 45h75
l30 154q15 77 53.5 108.5t95.5 31.5q39 0 73 -18t54 -69z" />
    <glyph glyph-name="zeroslash.tosf" 
d="M283 -12q-74 0 -121 26t-74 68t-37 94t-10 104q0 54 12.5 107.5t41.5 96t77.5 68.5t119.5 26q70 0 115.5 -24.5t72.5 -64t37.5 -90.5t10.5 -104q0 -54 -11 -109t-39 -99t-75 -71.5t-120 -27.5zM91 273q0 -35 5.5 -68t17 -61.5t30 -51.5t44.5 -38l157 471q-13 3 -26.5 5
t-28.5 2q-54 0 -91.5 -19t-61.5 -53.5t-35 -82t-11 -104.5zM285 32q53 0 90 20.5t60 55t33 81t10 99.5q0 75 -21 134t-72 88l-155 -472q24 -6 55 -6z" />
    <glyph glyph-name="zero.tosf" 
d="M283 -12q-74 0 -121 26t-74 68t-37 94t-10 104q0 54 12.5 107.5t41.5 96t77.5 68.5t119.5 26q70 0 115.5 -24.5t72.5 -64t37.5 -90.5t10.5 -104q0 -54 -11 -109t-39 -99t-75 -71.5t-120 -27.5zM285 32q53 0 90 20.5t60 55t33 81t10 99.5q0 51 -9.5 95.5t-31.5 77.5
t-58 52t-89 19q-54 0 -91.5 -19t-61.5 -53.5t-35 -82t-11 -104.5q0 -48 10 -91.5t33 -77t60 -53t91 -19.5z" />
    <glyph glyph-name="one.tosf" 
d="M138 39h154v447q-12 -10 -33 -17t-43.5 -12t-44 -7.5t-33.5 -2.5l-7 40q69 5 113.5 24t78.5 59h15v-531h133v-39h-333v39z" />
    <glyph glyph-name="two.tosf" 
d="M296 578q38 0 70.5 -9.5t56 -29t37 -51t13.5 -74.5q0 -41 -11.5 -74.5t-33.5 -63.5t-54 -59t-72 -63l-134 -110h312v-44h-382v37l152 131q43 38 75.5 67t54.5 56t32.5 55t10.5 65q0 67 -34.5 95t-95.5 28q-43 0 -71 -11t-45 -30t-26 -43.5t-14 -52.5l-46 8
q14 90 67.5 131.5t137.5 41.5z" />
    <glyph glyph-name="three.tosf" 
d="M134 89q4 -21 11.5 -43.5t23 -40.5t42.5 -30t70 -12q28 0 54.5 5.5t47.5 20.5t33.5 41.5t12.5 68.5q0 71 -43.5 103.5t-109.5 32.5h-70v44h38q41 0 74 11.5t56.5 32t36.5 47t13 56.5q0 20 -5.5 39t-20 34t-38.5 24.5t-60 9.5t-61.5 -8t-43.5 -23t-29 -36.5t-19 -48.5
l-45 11q18 79 72 114.5t126 35.5q85 0 131 -40.5t46 -110.5q0 -36 -11.5 -63t-31 -46.5t-44.5 -32.5t-52 -21v-2q66 -11 104.5 -49.5t38.5 -115.5q0 -81 -51.5 -130.5t-149.5 -49.5q-90 0 -138 42.5t-57 120.5z" />
    <glyph glyph-name="four.tosf" 
d="M392 -67v153h-335v36l318 448h65v-442h90v-42h-91v-153h-47zM393 128v394l-277 -394h277z" />
    <glyph glyph-name="five.tosf" 
d="M147 563h321v-43h-279l-22 -248q26 23 63.5 40t85.5 17q35 0 68.5 -11t59.5 -34t42 -59.5t16 -88.5q0 -44 -12.5 -83.5t-38 -69.5t-65.5 -48t-95 -18q-36 0 -69.5 10t-60.5 29.5t-45.5 49.5t-25.5 71l46 11q5 -22 15.5 -44.5t28.5 -40.5t45.5 -29.5t67.5 -11.5
q29 0 57.5 8t51 28t36 53.5t13.5 83.5q0 33 -8.5 60.5t-25.5 47.5t-44 31.5t-63 11.5q-45 0 -81 -17t-67 -46l-38 16z" />
    <glyph glyph-name="six.tosf" 
d="M463 485q-9 36 -22 58.5t-30 34.5t-38 16.5t-45 4.5q-58 0 -94 -28.5t-56.5 -73t-28 -98.5t-8.5 -104q12 16 31.5 34.5t43.5 33.5t52.5 25t59.5 10q48 0 82.5 -17t56 -44.5t31.5 -62.5t10 -72q0 -45 -11.5 -84t-36 -68t-63 -45.5t-92.5 -16.5q-68 0 -109.5 29t-64.5 75
t-30.5 103.5t-7.5 115.5q0 48 9 106t35 108t74 84t126 34q63 0 109.5 -33.5t61.5 -113.5zM144 245q1 -25 7 -61.5t23.5 -70t49 -57.5t84.5 -24q32 0 59.5 9t47.5 29t31.5 51t11.5 76q0 74 -33 115t-97 41q-27 0 -52.5 -8.5t-49.5 -23.5t-45 -34.5t-37 -41.5z" />
    <glyph glyph-name="seven.tosf" 
d="M148 -67l306 586h-368v44h419v-41l-304 -589h-53z" />
    <glyph glyph-name="eight.tosf" 
d="M339 332q30 -13 59 -27t51.5 -34t36.5 -48t14 -67q0 -42 -16 -73.5t-44.5 -52.5t-68 -31.5t-86.5 -10.5q-103 0 -155.5 41t-52.5 116q0 36 11.5 63t32 49t49.5 39t65 33q-33 14 -59 29.5t-44 34.5t-27.5 42.5t-9.5 54.5q0 37 15.5 65.5t43 48t65 29.5t81.5 10
q91 0 140 -36.5t49 -102.5q0 -30 -10.5 -54t-30 -44.5t-47 -38t-62.5 -35.5zM288 310q-43 -16 -73 -33t-49 -36.5t-28 -42.5t-9 -53q0 -57 41.5 -85.5t117.5 -28.5q86 0 124.5 35.5t38.5 88.5q0 35 -15.5 60t-39.5 43t-53 30t-55 22zM292 351q34 16 61 32t46 33.5t29.5 38.5
t10.5 47q0 47 -32.5 73.5t-110.5 26.5q-75 0 -113.5 -28t-38.5 -87q0 -28 13 -49t34 -37t47.5 -28t53.5 -22z" />
    <glyph glyph-name="nine.tosf" 
d="M111 74q9 -35 23.5 -57t33 -34.5t40 -17t44.5 -4.5q61 0 97 29t55 74t24.5 99.5t6.5 104.5q-12 -19 -31.5 -36.5t-43.5 -30.5t-52 -21t-58 -8q-48 0 -81.5 17.5t-55.5 46t-32 64.5t-10 73q0 44 13 83t38.5 67.5t64 45t90.5 16.5q65 0 105.5 -29.5t63 -76t30.5 -104
t8 -114.5q0 -53 -8 -113t-33 -111.5t-71.5 -85.5t-124.5 -34q-31 0 -60.5 7.5t-53.5 24t-42 44t-26 68.5zM433 323q-1 25 -6.5 62.5t-22.5 72.5t-48.5 60t-84.5 25q-30 0 -57.5 -9.5t-48.5 -29.5t-33 -51.5t-12 -75.5q0 -74 33 -117.5t97 -43.5q57 0 103.5 29t79.5 78z" />
    <glyph glyph-name="dollar.tosf" 
d="M422 461q-12 60 -42 84.5t-78 29.5v-244q34 -7 65 -18.5t54 -30.5t36.5 -46.5t13.5 -66.5q0 -67 -42 -111t-127 -56v-81h-39v79q-41 0 -75.5 9.5t-61 29.5t-44 50.5t-23.5 73.5l49 10q5 -27 15 -49.5t28 -39.5t45 -27t66 -11v244q-42 9 -75 21.5t-56 31.5t-35 46.5
t-12 65.5q0 40 14.5 69.5t38.5 50t56 31.5t68 14v72h41v-71q72 -9 113 -44t55 -107zM136 459q0 -46 27.5 -75t98.5 -45v236q-62 -4 -94 -35.5t-32 -80.5zM418 168q0 47 -27 73.5t-89 40.5v-235q57 7 86.5 38.5t29.5 82.5z" />
    <glyph glyph-name="Euro.tosf" 
d="M306 -12q-60 0 -103 18.5t-72 50t-46 74t-24 91.5h-67l7 42h56q-1 11 -1 21.5v21.5q0 14 0.5 27t1.5 26h-48l7 42h47q21 113 88.5 176.5t169.5 63.5q90 0 147 -50t65 -153l-46 -4q-6 40 -17 71t-30.5 51t-48 30.5t-69.5 10.5q-33 0 -65.5 -9.5t-61 -32t-50 -60
t-31.5 -94.5h245l-8 -42h-242q-2 -12 -2 -24.5v-26.5v-23t1 -22h235l-8 -42h-222q6 -44 20.5 -79t38 -60t57.5 -38.5t80 -13.5q75 0 117.5 33.5t59.5 111.5l42 -12q-8 -48 -28 -81.5t-50 -54.5t-67 -30.5t-78 -9.5z" />
    <glyph glyph-name="cent.tosf" 
d="M329 627v-99q33 -2 60.5 -12.5t48.5 -29.5t33 -46.5t14 -64.5l-46 -6q-7 58 -32.5 84t-76.5 29v-402q51 5 77.5 32t38.5 79l44 -10q-12 -71 -56.5 -105t-103.5 -41v-99h-39v99q-49 3 -84.5 23t-59 52.5t-34.5 76t-11 95.5q0 57 13.5 100.5t38.5 74t59 48t76 22.5v100h40z
M153 288q0 -38 6.5 -74t22.5 -64.5t42.5 -47t66.5 -22.5v401q-27 -3 -51.5 -14t-44 -33.5t-31 -58t-11.5 -87.5z" />
    <glyph glyph-name="sterling.tosf" 
d="M106 44q33 34 53 70.5t20 84.5q0 22 -5 41t-13 36h-109v42h87q-15 27 -27 57.5t-12 74.5t16 79.5t44.5 60.5t67 38.5t83.5 13.5q89 0 138 -42.5t58 -139.5l-46 -5q-8 73 -41 108.5t-109 35.5q-71 0 -116 -36.5t-45 -112.5q0 -37 12 -67t30 -64h241v-43h-221
q6 -17 10 -35.5t4 -38.5q0 -45 -15 -82t-49 -76h218q55 0 81 26.5t37 89.5l45 -9q-12 -82 -54 -116.5t-113 -34.5h-322v44h52z" />
    <glyph glyph-name="yen.tosf" 
d="M328 183v-183h-49v183h-136v42h136v84h-136v42h105l-169 281h56l170 -289l163 289h51l-162 -281h108v-42h-137v-84h137v-42h-137z" />
    <glyph glyph-name="florin.tosf" 
d="M549 539q-12 30 -31.5 46t-49.5 16q-35 0 -61 -21t-37 -80l-25 -131h148l-10 -45h-148l-78 -367q-17 -77 -52.5 -108.5t-92.5 -31.5q-20 0 -39 4.5t-35.5 15t-30 28t-22.5 43.5l47 19q13 -30 29 -47.5t51 -17.5q16 0 31 4t27.5 15.5t21.5 31t15 49.5l76 362h-75l10 45h75
l27 136q15 77 53.5 108.5t95.5 31.5q39 0 73 -18t54 -69z" />
    <glyph glyph-name="currency" unicode="&#xa4;" 
d="M521 13l-94 92q-27 -21 -61.5 -32.5t-78.5 -11.5q-47 0 -82.5 12t-61.5 34q1 1 -5.5 -5.5t-17.5 -17t-23.5 -23.5t-23 -24t-17.5 -18t-6 -6l-39 37l96 96q-18 29 -26.5 64t-8.5 73q0 68 37 128l-95 94l43 39l91 -91q28 23 64.5 36.5t81.5 13.5t82 -12t63 -35l87 87
l39 -37l-90 -92q34 -53 34 -127q0 -39 -10 -74.5t-31 -66.5l96 -95zM292 107q39 0 69 13.5t50.5 37t31.5 55.5t11 70q0 82 -42.5 127.5t-122.5 45.5q-78 0 -120.5 -47.5t-42.5 -125.5q0 -38 10.5 -70t31 -55.5t51.5 -37t73 -13.5z" />
    <glyph glyph-name="section" unicode="&#xa7;" horiz-adv-x="534" 
d="M52 259q0 41 25.5 76.5t76.5 71.5q-32 23 -49.5 53t-17.5 78q0 44 15.5 76t42.5 53t63.5 31.5t77.5 10.5q93 0 143 -48.5t53 -129.5l-50 -8q-8 66 -42.5 103t-108.5 37q-72 0 -106.5 -35t-34.5 -83q0 -50 26 -76.5t65.5 -42t85 -26t85 -28.5t65.5 -49t26 -87
q0 -42 -27.5 -81t-72.5 -67q28 -19 46.5 -49.5t18.5 -78.5q0 -44 -15.5 -76.5t-42.5 -54.5t-63.5 -32.5t-77.5 -10.5q-93 0 -143 48.5t-53 129.5l53 8q6 -67 39.5 -103t106.5 -36q72 0 107.5 35.5t35.5 91.5q0 48 -26 73t-65.5 39.5t-85 24t-85 27t-65.5 48t-26 87.5z
M104 256q0 -41 23.5 -63t59.5 -35.5t79.5 -23t82.5 -25.5q42 27 67 58.5t25 70.5q0 41 -23.5 63.5t-59.5 36.5t-79 23.5t-82 25.5q-43 -29 -68 -60.5t-25 -70.5z" />
    <glyph glyph-name="copyright" unicode="&#xa9;" horiz-adv-x="750" 
d="M701 313q0 -73 -24 -133t-67 -102.5t-103 -66t-133 -23.5q-81 0 -142 24t-101.5 66t-61 98.5t-20.5 122.5q0 76 25.5 136.5t70 102.5t104 64t127.5 22q76 0 136 -22t102 -62.5t64.5 -98t22.5 -128.5zM376 21q66 0 118 20t89 57t56.5 90t19.5 119q0 69 -21 122t-58.5 89
t-89.5 54t-114 18q-61 0 -113 -19.5t-90 -56.5t-59.5 -91t-21.5 -123q0 -65 19.5 -116.5t56.5 -87.5t89.5 -55.5t118.5 -19.5zM525 241q-5 -39 -20.5 -63.5t-36 -38.5t-44 -19t-45.5 -5q-48 0 -82.5 14.5t-56.5 41t-32 62t-10 77.5t12 78t35 61.5t57 40t78 14.5
q28 0 52.5 -6.5t43.5 -21.5t30.5 -39t13.5 -59l-45 -6q-4 46 -26 69.5t-70 23.5q-27 0 -51 -8.5t-42 -27.5t-28.5 -48.5t-10.5 -72.5q0 -32 7.5 -60t23 -48.5t40 -32.5t58.5 -12q27 0 45.5 6t30.5 17.5t19.5 29t12.5 40.5z" />
    <glyph glyph-name="registered" unicode="&#xae;" horiz-adv-x="443" 
d="M403 482q0 -41 -13.5 -74t-37.5 -57t-57.5 -37t-73.5 -13q-45 0 -79 13.5t-56.5 36.5t-34 55t-11.5 69q0 42 14 75.5t39 57t58 36t71 12.5q85 0 133 -47.5t48 -126.5zM367 479q0 71 -41 107.5t-104 36.5q-30 0 -56.5 -10t-46 -28.5t-30.5 -46t-11 -62.5
q0 -67 38.5 -104.5t105.5 -37.5q68 0 106.5 38.5t38.5 106.5zM308 385h-35l-46 77h-30v-77h-34v191h65q38 0 50 -16.5t12 -37.5q0 -19 -8.5 -30.5t-24.5 -19.5zM210 488q20 0 33 6t13 28q0 17 -10 22.5t-29 5.5h-20v-62h13z" />
    <glyph glyph-name="trademark" unicode="&#x2122;" horiz-adv-x="816" 
d="M709 348v291l-120 -291h-35l-117 292v-292h-44v376h56l124 -307l128 307h50v-376h-42zM198 348h-46v335h-136v41h319v-41h-137v-335z" />
    <glyph glyph-name="ordfeminine" unicode="&#xaa;" horiz-adv-x="364" 
d="M298 337q0 -14 4.5 -19.5t16.5 -5.5q8 0 20 3l3 -28q-10 -6 -19.5 -8t-20.5 -2q-24 0 -35 12.5t-11 29.5q-19 -19 -47 -31.5t-63 -12.5q-32 0 -51 9.5t-30 23t-14.5 28.5t-3.5 27q0 34 14.5 55.5t37.5 33.5t52.5 16.5t58.5 4.5q14 0 23.5 -0.5t19.5 -0.5v38
q0 31 -14.5 50t-58.5 19q-38 0 -55 -14t-22 -43l-41 7q7 47 37.5 66.5t84.5 19.5q60 0 87 -24.5t27 -85.5v-168zM254 436q-8 1 -17.5 1.5t-23.5 0.5q-17 0 -37.5 -1.5t-38.5 -8t-30 -20t-12 -37.5t12 -41.5t51 -17.5q29 0 54.5 13t41.5 30v81z" />
    <glyph glyph-name="ordmasculine" unicode="&#xba;" horiz-adv-x="387" 
d="M192 275q-43 0 -72 13t-46.5 36t-25 54t-7.5 67q0 79 41 124.5t119 45.5q76 0 110.5 -45t34.5 -117q0 -40 -8.5 -73t-27 -56t-48 -36t-70.5 -13zM196 315q48 0 75 30.5t27 103.5q0 71 -26.5 99t-73.5 28q-49 0 -79.5 -30.5t-30.5 -99.5q0 -68 27 -99.5t81 -31.5z" />
    <glyph glyph-name="guillemotleft" unicode="&#xab;" horiz-adv-x="415" 
d="M159 103l-88 158l89 147h54l-84 -146l84 -159h-55zM301 103l-88 158l89 147h54l-84 -146l84 -159h-55z" />
    <glyph glyph-name="guillemotright" unicode="&#xbb;" horiz-adv-x="415" 
d="M115 408l88 -156l-89 -149h-55l88 148l-86 157h54zM257 408l88 -156l-89 -149h-55l88 148l-86 157h54z" />
    <glyph glyph-name="guilsinglleft" unicode="&#x2039;" horiz-adv-x="278" 
d="M159 103l-88 158l89 147h54l-84 -146l84 -159h-55z" />
    <glyph glyph-name="guilsinglright" unicode="&#x203a;" horiz-adv-x="278" 
d="M115 408l88 -156l-89 -149h-55l88 148l-86 157h54z" />
    <glyph glyph-name="quoteleft" unicode="&#x2018;" horiz-adv-x="168" 
d="M106 560h-65l77 211l41 -7z" />
    <glyph glyph-name="quoteright" unicode="&#x2019;" horiz-adv-x="168" 
d="M82.0068 760.034h64.9961l-76.9961 -210.987l-40.9971 7z" />
    <glyph glyph-name="quotesinglbase" unicode="&#x201a;" horiz-adv-x="156" 
d="M71.0068 81.0342h64.9961l-76.9961 -210.987l-40.9971 7z" />
    <glyph glyph-name="quotedblleft" unicode="&#x201c;" horiz-adv-x="303" 
d="M240 560h-65l77 211l41 -7zM106 560h-65l77 211l41 -7z" />
    <glyph glyph-name="quotedblright" unicode="&#x201d;" horiz-adv-x="303" 
d="M216.007 760.034h64.9961l-76.9961 -210.987l-40.9971 7zM82.0068 760.034h64.9961l-76.9961 -210.987l-40.9971 7z" />
    <glyph glyph-name="quotedblbase" unicode="&#x201e;" horiz-adv-x="290" 
d="M71.0068 81.0342h64.9961l-76.9961 -210.987l-40.9971 7zM204.007 81.0342h64.9961l-76.9961 -210.987l-40.9971 7z" />
    <glyph glyph-name="dagger" unicode="&#x2020;" horiz-adv-x="381" 
d="M211 515l10 -598h-61l9 599l-149 -6v47l149 -7l-6 174h55l-7 -173l150 6v-47z" />
    <glyph glyph-name="daggerdbl" unicode="&#x2021;" horiz-adv-x="404" 
d="M222 515l1 -390l149 6v-47l-149 7l7 -174h-56l8 173l-150 -6v47l150 -5l-1 390l-149 -6v47l149 -7l-7 174h56l-8 -173l150 6v-47z" />
    <glyph glyph-name="bullet" unicode="&#x2022;" horiz-adv-x="345" 
d="M300 280q0 -63 -33.5 -93.5t-94.5 -30.5q-60 0 -93.5 30.5t-33.5 93.5t33.5 93.5t93.5 30.5q61 0 94.5 -30.5t33.5 -93.5z" />
    <glyph glyph-name="periodcentered" unicode="&#xb7;" horiz-adv-x="163" 
d="M133 300q0 -51 -52 -51q-24 0 -38 12.5t-14 38.5t14 38.5t38 12.5q52 0 52 -51z" />
    <glyph glyph-name="ellipsis" unicode="&#x2026;" horiz-adv-x="590" 
d="M351 37q0 -25 -13.5 -37t-37.5 -12q-23 0 -36.5 12t-13.5 37q0 24 13.5 36t36.5 12q24 0 37.5 -12t13.5 -36zM155 37q0 -25 -13.5 -37t-37.5 -12q-23 0 -36.5 12t-13.5 37q0 24 13.5 36t36.5 12q24 0 37.5 -12t13.5 -36zM536 37q0 -25 -13.5 -37t-37.5 -12
q-23 0 -36.5 12t-13.5 37q0 24 13.5 36t36.5 12q24 0 37.5 -12t13.5 -36z" />
    <glyph glyph-name="paragraph" unicode="&#xb6;" horiz-adv-x="535" 
d="M432 -133h-49v811h-104v-811h-49v386q-99 10 -156.5 69t-57.5 158q0 67 22.5 113.5t60 75.5t87 42t104.5 13h142v-857z" />
    <glyph glyph-name="uni00AD" unicode="&#xad;" horiz-adv-x="311" 
d="M20 271v51h271v-51h-271z" />
    <glyph glyph-name="endash" unicode="&#x2013;" horiz-adv-x="500" 
d="M0 263v39h499v-39h-499z" />
    <glyph glyph-name="emdash" unicode="&#x2014;" horiz-adv-x="1000" 
d="M0 263v39h999v-39h-999z" />
    <glyph glyph-name="hyphen.case" horiz-adv-x="318" 
d="M20 334v51h271v-51h-271z" />
    <glyph glyph-name="Agrave" unicode="&#xc0;" horiz-adv-x="637" 
d="M353 724l249 -724h-54l-84 248h-295l-84 -248h-50l248 724h70zM316 693l-133 -403h267zM214 911h73l105 -130l-43 -14z" />
    <glyph glyph-name="Aacute" unicode="&#xc1;" horiz-adv-x="637" 
d="M353 724l249 -724h-54l-84 248h-295l-84 -248h-50l248 724h70zM316 693l-133 -403h267zM291 767l-42 14l104 130h73z" />
    <glyph glyph-name="Acircumflex" unicode="&#xc2;" horiz-adv-x="637" 
d="M353 724l249 -724h-54l-84 248h-295l-84 -248h-50l248 724h70zM316 693l-133 -403h267zM317 852l-90 -85l-48 11l123 116h36l123 -116l-50 -9z" />
    <glyph glyph-name="Atilde" unicode="&#xc3;" horiz-adv-x="637" 
d="M353 724l249 -724h-54l-84 248h-295l-84 -248h-50l248 724h70zM316 693l-133 -403h267zM240 877q23 0 43.5 -7t39 -15.5t36 -15.5t34.5 -7q20 0 31.5 9.5t11.5 48.5l38 -2q4 -31 -2 -50.5t-17 -31t-26.5 -16t-31.5 -4.5q-22 0 -42 7t-39.5 16t-38 16t-36.5 7
q-16 0 -28 -11.5t-11 -48.5l-36 2q-4 30 1.5 50t17 31.5t26 16.5t29.5 5z" />
    <glyph glyph-name="Adieresis" unicode="&#xc4;" horiz-adv-x="637" 
d="M353 724l249 -724h-54l-84 248h-295l-84 -248h-50l248 724h70zM316 693l-133 -403h267zM267 826q0 -20 -12 -31t-32 -11q-21 0 -33 11t-12 31t12 31t33 11q20 0 32 -11t12 -31zM458 826q0 -20 -12 -31t-32 -11t-32.5 11t-12.5 31t12.5 31t32.5 11t32 -11t12 -31z" />
    <glyph glyph-name="Aring" unicode="&#xc5;" horiz-adv-x="637" 
d="M420 810q0 -36 -17 -60t-48 -33l247 -717h-54l-84 248h-295l-84 -248h-50l245 717q-29 8 -46 30.5t-17 56.5q0 50 30 74.5t71 24.5q42 0 72 -21.5t30 -71.5zM316 693l-133 -403h267zM318 750q29 0 42 17t13 43q0 55 -55 55q-25 0 -41 -15t-16 -44q0 -26 14 -41t43 -15z
" />
    <glyph glyph-name="Aringacute" unicode="&#x1fa;" horiz-adv-x="637" 
d="M420 810q0 -36 -17 -60t-48 -33l247 -717h-54l-84 248h-295l-84 -248h-50l245 717q-29 8 -46 30.5t-17 56.5q0 50 30 74.5t71 24.5q42 0 72 -21.5t30 -71.5zM316 693l-133 -403h267zM318 750q29 0 42 17t13 43q0 55 -55 55q-25 0 -41 -15t-16 -44q0 -26 14 -41t43 -15z
M290 919l-42 14l104 130h73z" />
    <glyph glyph-name="AE" unicode="&#xc6;" horiz-adv-x="998" 
d="M577 42h358v-42h-407v339h-236l-197 -339h-53l422 724h463v-42h-350v-300h327v-43h-327v-297zM528 682h-40l-170 -301h210v301z" />
    <glyph glyph-name="AEacute" unicode="&#x1fc;" horiz-adv-x="998" 
d="M577 42h358v-42h-407v339h-236l-197 -339h-53l422 724h463v-42h-350v-300h327v-43h-327v-297zM528 682h-40l-170 -301h210v301zM671 767l-42 14l104 130h73z" />
    <glyph glyph-name="Ccedilla" unicode="&#xc7;" horiz-adv-x="716" 
d="M311 -165q8 -6 23.5 -12.5t33.5 -6.5q27 0 39.5 15t12.5 35q0 26 -17.5 40t-63.5 15l9 68q-74 5 -127 33.5t-86.5 76t-49 111t-15.5 138.5q0 96 24 169t67.5 121.5t104 73.5t132.5 25q109 0 178 -56t80 -174l-46 -4q-7 46 -21.5 82t-40 60.5t-63 37.5t-88.5 13
q-63 0 -114 -22t-87 -65t-56 -106.5t-20 -146.5q0 -87 18.5 -149t52.5 -101.5t82.5 -58t108.5 -18.5q94 0 148 39t77 131l42 -10q-11 -55 -35.5 -93t-59 -61.5t-77 -34.5t-90.5 -12l-5 -37q16 -2 31 -7.5t27 -15t19 -24.5t7 -36q0 -40 -27 -65.5t-68 -25.5q-29 0 -48 8
t-27 16z" />
    <glyph glyph-name="Egrave" unicode="&#xc8;" 
d="M160 42h358v-42h-406v724h398v-42h-350v-292h327v-43h-327v-305zM209 911h73l105 -130l-43 -14z" />
    <glyph glyph-name="Eacute" unicode="&#xc9;" 
d="M160 42h358v-42h-406v724h398v-42h-350v-292h327v-43h-327v-305zM286 767l-42 14l104 130h73z" />
    <glyph glyph-name="Ecircumflex" unicode="&#xca;" 
d="M160 42h358v-42h-406v724h398v-42h-350v-292h327v-43h-327v-305zM312 852l-90 -85l-48 11l123 116h36l123 -116l-50 -9z" />
    <glyph glyph-name="Edieresis" unicode="&#xcb;" 
d="M160 42h358v-42h-406v724h398v-42h-350v-292h327v-43h-327v-305zM262 826q0 -20 -12 -31t-32 -11q-21 0 -33 11t-12 31t12 31t33 11q20 0 32 -11t12 -31zM453 826q0 -20 -12 -31t-32 -11t-32.5 11t-12.5 31t12.5 31t32.5 11t32 -11t12 -31z" />
    <glyph glyph-name="Igrave" unicode="&#xcc;" horiz-adv-x="272" 
d="M160 0h-48v724h48v-724zM33 911h73l105 -130l-43 -14z" />
    <glyph glyph-name="Iacute" unicode="&#xcd;" horiz-adv-x="272" 
d="M160 0h-48v724h48v-724zM110 767l-42 14l104 130h73z" />
    <glyph glyph-name="Icircumflex" unicode="&#xce;" horiz-adv-x="272" 
d="M160 0h-48v724h48v-724zM136 852l-90 -85l-48 11l123 116h36l123 -116l-50 -9z" />
    <glyph glyph-name="Idieresis" unicode="&#xcf;" horiz-adv-x="272" 
d="M160 0h-48v724h48v-724zM86 826q0 -20 -12 -31t-32 -11q-21 0 -33 11t-12 31t12 31t33 11q20 0 32 -11t12 -31zM277 826q0 -20 -12 -31t-32 -11t-32.5 11t-12.5 31t12.5 31t32.5 11t32 -11t12 -31z" />
    <glyph glyph-name="Eth" unicode="&#xd0;" horiz-adv-x="741" 
d="M17 391h95v333h200q94 0 162 -24.5t111.5 -70t64.5 -110.5t21 -146q0 -83 -22.5 -152t-68.5 -118t-117 -76t-168 -27h-183v349h-95v42zM303 41q153 0 235 83t82 244q0 91 -22 151.5t-62.5 97t-98 51.5t-129.5 15h-148v-292h261v-42h-261v-308h143z" />
    <glyph glyph-name="Ntilde" unicode="&#xd1;" horiz-adv-x="745" 
d="M568 0l-409 683v-683h-47v724h77l398 -671v671h46v-724h-65zM301 877q23 0 43.5 -7t39 -15.5t36 -15.5t34.5 -7q20 0 31.5 9.5t11.5 48.5l38 -2q4 -31 -2 -50.5t-17 -31t-26.5 -16t-31.5 -4.5q-22 0 -42 7t-39.5 16t-38 16t-36.5 7q-16 0 -28 -11.5t-11 -48.5l-36 2
q-4 30 1.5 50t17 31.5t26 16.5t29.5 5z" />
    <glyph glyph-name="Ograve" unicode="&#xd2;" horiz-adv-x="781" 
d="M386 -12q-80 0 -139.5 28t-98.5 78.5t-58.5 119.5t-19.5 150t22 149.5t64 118t103.5 77.5t140.5 28q78 0 136.5 -27.5t97 -76t58 -114t19.5 -140.5q0 -89 -21 -161t-62.5 -123t-102 -79t-139.5 -28zM390 29q59 0 108.5 21.5t85.5 64.5t56.5 106.5t20.5 147.5
q0 78 -19 139t-54 102.5t-83.5 63.5t-106.5 22q-59 0 -109.5 -22t-88 -64.5t-58.5 -104.5t-21 -142t20 -142t55.5 -104.5t85 -65t108.5 -22.5zM292 911h73l105 -130l-43 -14z" />
    <glyph glyph-name="Oacute" unicode="&#xd3;" horiz-adv-x="781" 
d="M386 -12q-80 0 -139.5 28t-98.5 78.5t-58.5 119.5t-19.5 150t22 149.5t64 118t103.5 77.5t140.5 28q78 0 136.5 -27.5t97 -76t58 -114t19.5 -140.5q0 -89 -21 -161t-62.5 -123t-102 -79t-139.5 -28zM390 29q59 0 108.5 21.5t85.5 64.5t56.5 106.5t20.5 147.5
q0 78 -19 139t-54 102.5t-83.5 63.5t-106.5 22q-59 0 -109.5 -22t-88 -64.5t-58.5 -104.5t-21 -142t20 -142t55.5 -104.5t85 -65t108.5 -22.5zM369 767l-42 14l104 130h73z" />
    <glyph glyph-name="Ocircumflex" unicode="&#xd4;" horiz-adv-x="781" 
d="M386 -12q-80 0 -139.5 28t-98.5 78.5t-58.5 119.5t-19.5 150t22 149.5t64 118t103.5 77.5t140.5 28q78 0 136.5 -27.5t97 -76t58 -114t19.5 -140.5q0 -89 -21 -161t-62.5 -123t-102 -79t-139.5 -28zM390 29q59 0 108.5 21.5t85.5 64.5t56.5 106.5t20.5 147.5
q0 78 -19 139t-54 102.5t-83.5 63.5t-106.5 22q-59 0 -109.5 -22t-88 -64.5t-58.5 -104.5t-21 -142t20 -142t55.5 -104.5t85 -65t108.5 -22.5zM395 852l-90 -85l-48 11l123 116h36l123 -116l-50 -9z" />
    <glyph glyph-name="Otilde" unicode="&#xd5;" horiz-adv-x="781" 
d="M386 -12q-80 0 -139.5 28t-98.5 78.5t-58.5 119.5t-19.5 150t22 149.5t64 118t103.5 77.5t140.5 28q78 0 136.5 -27.5t97 -76t58 -114t19.5 -140.5q0 -89 -21 -161t-62.5 -123t-102 -79t-139.5 -28zM390 29q59 0 108.5 21.5t85.5 64.5t56.5 106.5t20.5 147.5
q0 78 -19 139t-54 102.5t-83.5 63.5t-106.5 22q-59 0 -109.5 -22t-88 -64.5t-58.5 -104.5t-21 -142t20 -142t55.5 -104.5t85 -65t108.5 -22.5zM318 877q23 0 43.5 -7t39 -15.5t36 -15.5t34.5 -7q20 0 31.5 9.5t11.5 48.5l38 -2q4 -31 -2 -50.5t-17 -31t-26.5 -16t-31.5 -4.5
q-22 0 -42 7t-39.5 16t-38 16t-36.5 7q-16 0 -28 -11.5t-11 -48.5l-36 2q-4 30 1.5 50t17 31.5t26 16.5t29.5 5z" />
    <glyph glyph-name="Odieresis" unicode="&#xd6;" horiz-adv-x="781" 
d="M386 -12q-80 0 -139.5 28t-98.5 78.5t-58.5 119.5t-19.5 150t22 149.5t64 118t103.5 77.5t140.5 28q78 0 136.5 -27.5t97 -76t58 -114t19.5 -140.5q0 -89 -21 -161t-62.5 -123t-102 -79t-139.5 -28zM390 29q59 0 108.5 21.5t85.5 64.5t56.5 106.5t20.5 147.5
q0 78 -19 139t-54 102.5t-83.5 63.5t-106.5 22q-59 0 -109.5 -22t-88 -64.5t-58.5 -104.5t-21 -142t20 -142t55.5 -104.5t85 -65t108.5 -22.5zM345 826q0 -20 -12 -31t-32 -11q-21 0 -33 11t-12 31t12 31t33 11q20 0 32 -11t12 -31zM536 826q0 -20 -12 -31t-32 -11t-32.5 11
t-12.5 31t12.5 31t32.5 11t32 -11t12 -31z" />
    <glyph glyph-name="Oslash" unicode="&#xd8;" horiz-adv-x="781" 
d="M386 -12q-33 0 -62.5 5t-55.5 14l-32 -77h-53l41 98q-78 45 -116 133t-38 203q0 81 22 149.5t64 118t103.5 77.5t140.5 28q61 0 113 -19l32 76h51l-40 -95q78 -45 116.5 -129t38.5 -191q0 -89 -21 -161t-62.5 -123t-102 -79t-139.5 -28zM390 29q59 0 108.5 21.5
t85.5 64.5t56.5 106.5t20.5 147.5q0 103 -33 175.5t-90 110.5l-252 -606q48 -20 104 -20zM121 363q0 -103 32.5 -176.5t89.5 -113.5l253 605q-45 18 -98 18q-59 0 -109.5 -22t-88 -64.5t-58.5 -104.5t-21 -142z" />
    <glyph glyph-name="Oslashacute" unicode="&#x1fe;" horiz-adv-x="781" 
d="M386 -12q-33 0 -62.5 5t-55.5 14l-32 -77h-53l41 98q-78 45 -116 133t-38 203q0 81 22 149.5t64 118t103.5 77.5t140.5 28q61 0 113 -19l32 76h51l-40 -95q78 -45 116.5 -129t38.5 -191q0 -89 -21 -161t-62.5 -123t-102 -79t-139.5 -28zM390 29q59 0 108.5 21.5
t85.5 64.5t56.5 106.5t20.5 147.5q0 103 -33 175.5t-90 110.5l-252 -606q48 -20 104 -20zM121 363q0 -103 32.5 -176.5t89.5 -113.5l253 605q-45 18 -98 18q-59 0 -109.5 -22t-88 -64.5t-58.5 -104.5t-21 -142zM369 767l-42 14l104 130h73z" />
    <glyph glyph-name="Ugrave" unicode="&#xd9;" horiz-adv-x="718" 
d="M360 32q47 0 84.5 9.5t63.5 32.5t40 61t14 95v494h48v-496q0 -120 -65 -180t-191 -60q-132 0 -189 63t-57 177v496h48v-492q0 -57 14.5 -95t41.5 -61.5t64.5 -33.5t83.5 -10zM255 911h73l105 -130l-43 -14z" />
    <glyph glyph-name="Uacute" unicode="&#xda;" horiz-adv-x="718" 
d="M360 32q47 0 84.5 9.5t63.5 32.5t40 61t14 95v494h48v-496q0 -120 -65 -180t-191 -60q-132 0 -189 63t-57 177v496h48v-492q0 -57 14.5 -95t41.5 -61.5t64.5 -33.5t83.5 -10zM332 767l-42 14l104 130h73z" />
    <glyph glyph-name="Ucircumflex" unicode="&#xdb;" horiz-adv-x="718" 
d="M360 32q47 0 84.5 9.5t63.5 32.5t40 61t14 95v494h48v-496q0 -120 -65 -180t-191 -60q-132 0 -189 63t-57 177v496h48v-492q0 -57 14.5 -95t41.5 -61.5t64.5 -33.5t83.5 -10zM358 852l-90 -85l-48 11l123 116h36l123 -116l-50 -9z" />
    <glyph glyph-name="Udieresis" unicode="&#xdc;" horiz-adv-x="718" 
d="M360 32q47 0 84.5 9.5t63.5 32.5t40 61t14 95v494h48v-496q0 -120 -65 -180t-191 -60q-132 0 -189 63t-57 177v496h48v-492q0 -57 14.5 -95t41.5 -61.5t64.5 -33.5t83.5 -10zM308 826q0 -20 -12 -31t-32 -11q-21 0 -33 11t-12 31t12 31t33 11q20 0 32 -11t12 -31z
M499 826q0 -20 -12 -31t-32 -11t-32.5 11t-12.5 31t12.5 31t32.5 11t32 -11t12 -31z" />
    <glyph glyph-name="Yacute" unicode="&#xdd;" horiz-adv-x="538" 
d="M297 0h-48v287l-245 437h54l216 -384h1l210 384h49l-237 -433v-291zM246 767l-42 14l104 130h73z" />
    <glyph glyph-name="Thorn" unicode="&#xde;" horiz-adv-x="612" 
d="M159 0h-47v724h46v-131h163q69 0 115.5 -17t74.5 -45.5t39.5 -65.5t11.5 -77q0 -62 -19.5 -104.5t-55 -69t-85.5 -38t-112 -11.5h-131v-165zM291 208q46 0 86 6.5t70 25.5t47 54.5t17 94.5q0 38 -11.5 68.5t-36 51.5t-63 32t-93.5 11h-148v-344h132z" />
    <glyph glyph-name="germandbls" unicode="&#xdf;" horiz-adv-x="660" 
d="M93 0v537q0 63 16 107t45.5 71.5t70 39.5t89.5 12q107 0 158 -45.5t51 -128.5q0 -67 -34 -109t-85 -60v-3q44 -7 80 -22t62 -40t40 -61.5t14 -87.5q0 -105 -51.5 -163t-141.5 -58q-83 0 -128 36.5t-59 118.5l49 10q4 -25 13.5 -47t25.5 -38t39.5 -25.5t57.5 -9.5
q69 0 106 43.5t37 121.5q0 55 -17.5 91.5t-47 58.5t-69.5 31t-85 9h-43v46h14q48 0 81 13.5t53.5 35t29 48t8.5 52.5q0 73 -42 105t-116 32q-39 0 -71 -8.5t-54.5 -30.5t-34.5 -60t-12 -98v-524h-49z" />
    <glyph glyph-name="agrave" unicode="&#xe0;" horiz-adv-x="536" 
d="M440 72q0 -21 5.5 -31.5t25.5 -10.5q11 0 31 6l4 -32q-15 -8 -26.5 -10t-27.5 -2q-33 0 -46.5 20.5t-11.5 43.5q-29 -29 -73.5 -48.5t-98.5 -19.5q-49 0 -78.5 15t-45.5 36t-21 45t-5 42q0 54 22.5 87.5t58 52t80 24.5t88.5 6q18 0 35 -0.5t34 -1.5v45q0 37 -5.5 63.5
t-19 43t-37 24t-59.5 7.5q-64 0 -92.5 -23.5t-36.5 -71.5l-47 8q12 71 57.5 99.5t122.5 28.5q45 0 76.5 -9t51.5 -29t29.5 -52.5t9.5 -79.5v-276zM391 252q-17 2 -36 2.5t-42 0.5q-38 0 -72.5 -5t-60.5 -18.5t-41 -37.5t-15 -63q0 -21 4.5 -39t16.5 -32t32 -22t52 -8
q48 0 92 20t70 52v150zM166 751h72l113 -165l-41 -14z" />
    <glyph glyph-name="aacute" unicode="&#xe1;" horiz-adv-x="536" 
d="M440 72q0 -21 5.5 -31.5t25.5 -10.5q11 0 31 6l4 -32q-15 -8 -26.5 -10t-27.5 -2q-33 0 -46.5 20.5t-11.5 43.5q-29 -29 -73.5 -48.5t-98.5 -19.5q-49 0 -78.5 15t-45.5 36t-21 45t-5 42q0 54 22.5 87.5t58 52t80 24.5t88.5 6q18 0 35 -0.5t34 -1.5v45q0 37 -5.5 63.5
t-19 43t-37 24t-59.5 7.5q-64 0 -92.5 -23.5t-36.5 -71.5l-47 8q12 71 57.5 99.5t122.5 28.5q45 0 76.5 -9t51.5 -29t29.5 -52.5t9.5 -79.5v-276zM391 252q-17 2 -36 2.5t-42 0.5q-38 0 -72.5 -5t-60.5 -18.5t-41 -37.5t-15 -63q0 -21 4.5 -39t16.5 -32t32 -22t52 -8
q48 0 92 20t70 52v150zM240 572l-42 14l113 165h72z" />
    <glyph glyph-name="acircumflex" unicode="&#xe2;" horiz-adv-x="536" 
d="M440 72q0 -21 5.5 -31.5t25.5 -10.5q11 0 31 6l4 -32q-15 -8 -26.5 -10t-27.5 -2q-33 0 -46.5 20.5t-11.5 43.5q-29 -29 -73.5 -48.5t-98.5 -19.5q-49 0 -78.5 15t-45.5 36t-21 45t-5 42q0 54 22.5 87.5t58 52t80 24.5t88.5 6q18 0 35 -0.5t34 -1.5v45q0 37 -5.5 63.5
t-19 43t-37 24t-59.5 7.5q-64 0 -92.5 -23.5t-36.5 -71.5l-47 8q12 71 57.5 99.5t122.5 28.5q45 0 76.5 -9t51.5 -29t29.5 -52.5t9.5 -79.5v-276zM391 252q-17 2 -36 2.5t-42 0.5q-38 0 -72.5 -5t-60.5 -18.5t-41 -37.5t-15 -63q0 -21 4.5 -39t16.5 -32t32 -22t52 -8
q48 0 92 20t70 52v150zM372 579l-101 129l-95 -132l-45 9l116 165h50l122 -165z" />
    <glyph glyph-name="atilde" unicode="&#xe3;" horiz-adv-x="536" 
d="M440 72q0 -21 5.5 -31.5t25.5 -10.5q11 0 31 6l4 -32q-15 -8 -26.5 -10t-27.5 -2q-33 0 -46.5 20.5t-11.5 43.5q-29 -29 -73.5 -48.5t-98.5 -19.5q-49 0 -78.5 15t-45.5 36t-21 45t-5 42q0 54 22.5 87.5t58 52t80 24.5t88.5 6q18 0 35 -0.5t34 -1.5v45q0 37 -5.5 63.5
t-19 43t-37 24t-59.5 7.5q-64 0 -92.5 -23.5t-36.5 -71.5l-47 8q12 71 57.5 99.5t122.5 28.5q45 0 76.5 -9t51.5 -29t29.5 -52.5t9.5 -79.5v-276zM391 252q-17 2 -36 2.5t-42 0.5q-38 0 -72.5 -5t-60.5 -18.5t-41 -37.5t-15 -63q0 -21 4.5 -39t16.5 -32t32 -22t52 -8
q48 0 92 20t70 52v150zM191 699q23 0 43.5 -7t39 -15.5t36 -15.5t34.5 -7q20 0 31.5 9.5t11.5 48.5l38 -2q4 -31 -2 -50.5t-17 -31t-26.5 -16t-31.5 -4.5q-22 0 -42 7t-39.5 16t-38 16t-36.5 7q-16 0 -28 -11.5t-11 -48.5l-36 2q-4 30 1.5 50t17 31.5t26 16.5t29.5 5z" />
    <glyph glyph-name="adieresis" unicode="&#xe4;" horiz-adv-x="536" 
d="M440 72q0 -21 5.5 -31.5t25.5 -10.5q11 0 31 6l4 -32q-15 -8 -26.5 -10t-27.5 -2q-33 0 -46.5 20.5t-11.5 43.5q-29 -29 -73.5 -48.5t-98.5 -19.5q-49 0 -78.5 15t-45.5 36t-21 45t-5 42q0 54 22.5 87.5t58 52t80 24.5t88.5 6q18 0 35 -0.5t34 -1.5v45q0 37 -5.5 63.5
t-19 43t-37 24t-59.5 7.5q-64 0 -92.5 -23.5t-36.5 -71.5l-47 8q12 71 57.5 99.5t122.5 28.5q45 0 76.5 -9t51.5 -29t29.5 -52.5t9.5 -79.5v-276zM391 252q-17 2 -36 2.5t-42 0.5q-38 0 -72.5 -5t-60.5 -18.5t-41 -37.5t-15 -63q0 -21 4.5 -39t16.5 -32t32 -22t52 -8
q48 0 92 20t70 52v150zM220 665q0 -20 -12 -31t-32 -11q-21 0 -33 11t-12 31t12 31t33 11q20 0 32 -11t12 -31zM411 665q0 -20 -12 -31t-32 -11t-32.5 11t-12.5 31t12.5 31t32.5 11t32 -11t12 -31z" />
    <glyph glyph-name="aring" unicode="&#xe5;" horiz-adv-x="536" 
d="M440 72q0 -21 5.5 -31.5t25.5 -10.5q11 0 31 6l4 -32q-15 -8 -26.5 -10t-27.5 -2q-33 0 -46.5 20.5t-11.5 43.5q-29 -29 -73.5 -48.5t-98.5 -19.5q-49 0 -78.5 15t-45.5 36t-21 45t-5 42q0 54 22.5 87.5t58 52t80 24.5t88.5 6q18 0 35 -0.5t34 -1.5v45q0 37 -5.5 63.5
t-19 43t-37 24t-59.5 7.5q-64 0 -92.5 -23.5t-36.5 -71.5l-47 8q12 71 57.5 99.5t122.5 28.5q45 0 76.5 -9t51.5 -29t29.5 -52.5t9.5 -79.5v-276zM391 252q-17 2 -36 2.5t-42 0.5q-38 0 -72.5 -5t-60.5 -18.5t-41 -37.5t-15 -63q0 -21 4.5 -39t16.5 -32t32 -22t52 -8
q48 0 92 20t70 52v150zM374 674q0 -46 -27 -72t-75 -26q-46 0 -73.5 24.5t-27.5 67.5q0 50 30 74.5t71 24.5q42 0 72 -21.5t30 -71.5zM272 614q29 0 42 17t13 43q0 55 -55 55q-25 0 -41 -15t-16 -44q0 -26 14 -41t43 -15z" />
    <glyph glyph-name="aringacute" unicode="&#x1fb;" horiz-adv-x="536" 
d="M440 72q0 -21 5.5 -31.5t25.5 -10.5q11 0 31 6l4 -32q-15 -8 -26.5 -10t-27.5 -2q-33 0 -46.5 20.5t-11.5 43.5q-29 -29 -73.5 -48.5t-98.5 -19.5q-49 0 -78.5 15t-45.5 36t-21 45t-5 42q0 54 22.5 87.5t58 52t80 24.5t88.5 6q18 0 35 -0.5t34 -1.5v45q0 37 -5.5 63.5
t-19 43t-37 24t-59.5 7.5q-64 0 -92.5 -23.5t-36.5 -71.5l-47 8q12 71 57.5 99.5t122.5 28.5q45 0 76.5 -9t51.5 -29t29.5 -52.5t9.5 -79.5v-276zM391 252q-17 2 -36 2.5t-42 0.5q-38 0 -72.5 -5t-60.5 -18.5t-41 -37.5t-15 -63q0 -21 4.5 -39t16.5 -32t32 -22t52 -8
q48 0 92 20t70 52v150zM374 656q0 -46 -27 -72t-75 -26q-46 0 -73.5 24.5t-27.5 67.5q0 50 30 74.5t71 24.5q42 0 72 -21.5t30 -71.5zM272 596q29 0 42 17t13 43q0 55 -55 55q-25 0 -41 -15t-16 -44q0 -26 14 -41t43 -15zM234 767l-42 14l104 130h73z" />
    <glyph glyph-name="ae" unicode="&#xe6;" horiz-adv-x="873" 
d="M612 -12q-67 0 -110 22t-68 60q-46 -42 -101.5 -62t-111.5 -20q-49 0 -78.5 15t-45 36t-20.5 45t-5 42q0 54 22 87.5t57 52t79 25t88 6.5q19 0 37 -0.5t35 -1.5v71q0 51 -26 81t-96 30q-62 0 -90.5 -24.5t-37.5 -70.5l-47 9q12 70 57.5 98.5t124.5 28.5q69 0 105 -25.5
t50 -73.5q35 54 82.5 76.5t104.5 22.5q52 0 89 -16.5t60 -44.5t34 -66.5t11 -81.5q0 -16 -1.5 -32t-3.5 -33h-367q2 -63 16.5 -103.5t38 -64t55 -32.5t67.5 -9q64 0 95.5 26.5t44.5 78.5l47 -10q-8 -39 -27 -66t-44.5 -44t-56 -24.5t-63.5 -7.5zM230 31q51 0 99 21t83 59
q-11 30 -16 67t-6 74q-16 1 -34.5 1.5t-38.5 0.5q-34 0 -68.5 -3.5t-62 -16.5t-45 -37t-17.5 -64q0 -20 4.5 -38.5t16 -32.5t32 -22.5t53.5 -8.5zM760 290v7q0 81 -34 128.5t-111 47.5q-32 0 -62.5 -10.5t-55 -32.5t-40 -57t-17.5 -83h320z" />
    <glyph glyph-name="aeacute" unicode="&#x1fd;" horiz-adv-x="873" 
d="M612 -12q-67 0 -110 22t-68 60q-46 -42 -101.5 -62t-111.5 -20q-49 0 -78.5 15t-45 36t-20.5 45t-5 42q0 54 22 87.5t57 52t79 25t88 6.5q19 0 37 -0.5t35 -1.5v71q0 51 -26 81t-96 30q-62 0 -90.5 -24.5t-37.5 -70.5l-47 9q12 70 57.5 98.5t124.5 28.5q69 0 105 -25.5
t50 -73.5q35 54 82.5 76.5t104.5 22.5q52 0 89 -16.5t60 -44.5t34 -66.5t11 -81.5q0 -16 -1.5 -32t-3.5 -33h-367q2 -63 16.5 -103.5t38 -64t55 -32.5t67.5 -9q64 0 95.5 26.5t44.5 78.5l47 -10q-8 -39 -27 -66t-44.5 -44t-56 -24.5t-63.5 -7.5zM230 31q51 0 99 21t83 59
q-11 30 -16 67t-6 74q-16 1 -34.5 1.5t-38.5 0.5q-34 0 -68.5 -3.5t-62 -16.5t-45 -37t-17.5 -64q0 -20 4.5 -38.5t16 -32.5t32 -22.5t53.5 -8.5zM760 290v7q0 81 -34 128.5t-111 47.5q-32 0 -62.5 -10.5t-55 -32.5t-40 -57t-17.5 -83h320zM431 572l-42 14l113 165h72z" />
    <glyph glyph-name="ccedilla" unicode="&#xe7;" horiz-adv-x="530" 
d="M215 -159q8 -6 23.5 -12.5t33.5 -6.5q27 0 39.5 15t12.5 35q0 26 -17.5 40t-63.5 15l8 63q-53 5 -89.5 26.5t-59 56t-32.5 80t-10 99.5q0 135 62 200.5t174 65.5q36 0 68 -10.5t56 -31t39 -51.5t17 -72l-53 -6q-7 66 -39 97t-94 31q-32 0 -64 -10t-57.5 -35t-41.5 -66.5
t-16 -104.5q0 -68 15 -111.5t39.5 -69t55.5 -35t63 -9.5q59 0 97 28t49 88l50 -10q-7 -40 -25.5 -68.5t-44 -47t-56.5 -27t-64 -9.5l-4 -31q16 -2 31 -7.5t27 -15t19 -24.5t7 -36q0 -40 -27 -65.5t-68 -25.5q-29 0 -48 8t-27 16z" />
    <glyph glyph-name="egrave" unicode="&#xe8;" horiz-adv-x="543" 
d="M284 -12q-66 0 -109 21.5t-68.5 58.5t-36 85t-10.5 101q0 70 19 120t51.5 82t74.5 47t88 15q51 0 87 -16t59 -44.5t33.5 -66.5t10.5 -81q0 -17 -1 -33t-4 -33h-366q1 -63 15.5 -103.5t38 -64t55 -32.5t67.5 -9q60 0 93 26.5t47 78.5l47 -9q-9 -39 -28 -66t-44 -44
t-55.5 -25t-63.5 -8zM432 287q2 91 -32 138.5t-113 47.5q-32 0 -62 -10t-54 -32.5t-40 -57.5t-19 -86h320zM180 751h72l113 -165l-41 -14z" />
    <glyph glyph-name="eacute" unicode="&#xe9;" horiz-adv-x="543" 
d="M284 -12q-66 0 -109 21.5t-68.5 58.5t-36 85t-10.5 101q0 70 19 120t51.5 82t74.5 47t88 15q51 0 87 -16t59 -44.5t33.5 -66.5t10.5 -81q0 -17 -1 -33t-4 -33h-366q1 -63 15.5 -103.5t38 -64t55 -32.5t67.5 -9q60 0 93 26.5t47 78.5l47 -9q-9 -39 -28 -66t-44 -44
t-55.5 -25t-63.5 -8zM432 287q2 91 -32 138.5t-113 47.5q-32 0 -62 -10t-54 -32.5t-40 -57.5t-19 -86h320zM254 572l-42 14l113 165h72z" />
    <glyph glyph-name="ecircumflex" unicode="&#xea;" horiz-adv-x="543" 
d="M284 -12q-66 0 -109 21.5t-68.5 58.5t-36 85t-10.5 101q0 70 19 120t51.5 82t74.5 47t88 15q51 0 87 -16t59 -44.5t33.5 -66.5t10.5 -81q0 -17 -1 -33t-4 -33h-366q1 -63 15.5 -103.5t38 -64t55 -32.5t67.5 -9q60 0 93 26.5t47 78.5l47 -9q-9 -39 -28 -66t-44 -44
t-55.5 -25t-63.5 -8zM432 287q2 91 -32 138.5t-113 47.5q-32 0 -62 -10t-54 -32.5t-40 -57.5t-19 -86h320zM386 579l-101 129l-95 -132l-45 9l116 165h50l122 -165z" />
    <glyph glyph-name="edieresis" unicode="&#xeb;" horiz-adv-x="543" 
d="M284 -12q-66 0 -109 21.5t-68.5 58.5t-36 85t-10.5 101q0 70 19 120t51.5 82t74.5 47t88 15q51 0 87 -16t59 -44.5t33.5 -66.5t10.5 -81q0 -17 -1 -33t-4 -33h-366q1 -63 15.5 -103.5t38 -64t55 -32.5t67.5 -9q60 0 93 26.5t47 78.5l47 -9q-9 -39 -28 -66t-44 -44
t-55.5 -25t-63.5 -8zM432 287q2 91 -32 138.5t-113 47.5q-32 0 -62 -10t-54 -32.5t-40 -57.5t-19 -86h320zM234 665q0 -20 -12 -31t-32 -11q-21 0 -33 11t-12 31t12 31t33 11q20 0 32 -11t12 -31zM425 665q0 -20 -12 -31t-32 -11t-32.5 11t-12.5 31t12.5 31t32.5 11t32 -11
t12 -31z" />
    <glyph glyph-name="igrave" unicode="&#xec;" horiz-adv-x="236" 
d="M145 0h-49v508h49v-508zM15 751h72l113 -165l-41 -14z" />
    <glyph glyph-name="iacute" unicode="&#xed;" horiz-adv-x="236" 
d="M145 0h-49v508h49v-508zM89 572l-42 14l113 165h72z" />
    <glyph glyph-name="icircumflex" unicode="&#xee;" horiz-adv-x="236" 
d="M145 0h-49v508h49v-508zM221 579l-101 129l-95 -132l-45 9l116 165h50l122 -165z" />
    <glyph glyph-name="idieresis" unicode="&#xef;" horiz-adv-x="236" 
d="M145 0h-49v508h49v-508zM69 665q0 -20 -12 -31t-32 -11q-21 0 -33 11t-12 31t12 31t33 11q20 0 32 -11t12 -31zM260 665q0 -20 -12 -31t-32 -11t-32.5 11t-12.5 31t12.5 31t32.5 11t32 -11t12 -31z" />
    <glyph glyph-name="eth" unicode="&#xf0;" horiz-adv-x="568" 
d="M207 621l100 56q-34 23 -75 36.5t-83 19.5q5 11 9.5 19.5t7.5 16.5q109 -14 186 -69l101 55l22 -35l-90 -49q63 -68 93 -159.5t30 -195.5q0 -52 -8.5 -110t-33.5 -106.5t-70 -80t-118 -31.5q-120 0 -174 71t-54 194q0 51 14.5 96t44 78.5t72.5 53.5t100 20q41 0 83 -13.5
t80 -42.5q-29 129 -104 203l-113 -62zM105 252q0 -41 7.5 -80.5t27 -70t53 -49t84.5 -18.5q54 0 88.5 24.5t54.5 63.5t27.5 88.5t7.5 100.5q0 19 -0.5 35.5t-2.5 33.5q-11 14 -28.5 27.5t-39.5 24t-47.5 16.5t-50.5 6q-92 0 -136.5 -55t-44.5 -147z" />
    <glyph glyph-name="ntilde" unicode="&#xf1;" horiz-adv-x="578" 
d="M490 0h-49v340q0 63 -24.5 98t-88.5 35q-27 0 -55 -8t-53 -20t-45.5 -25.5t-32.5 -25.5v-394h-49v508h43l3 -66q45 32 94.5 54t103.5 22q81 0 117 -45t36 -131v-342zM212 699q23 0 43.5 -7t39 -15.5t36 -15.5t34.5 -7q20 0 31.5 9.5t11.5 48.5l38 -2q4 -31 -2 -50.5
t-17 -31t-26.5 -16t-31.5 -4.5q-22 0 -42 7t-39.5 16t-38 16t-36.5 7q-16 0 -28 -11.5t-11 -48.5l-36 2q-4 30 1.5 50t17 31.5t26 16.5t29.5 5z" />
    <glyph glyph-name="ograve" unicode="&#xf2;" horiz-adv-x="572" 
d="M284 -12q-63 0 -106 20.5t-69.5 56t-37.5 83.5t-11 104q0 124 61.5 195t175.5 71q57 0 97.5 -18t66.5 -51.5t38.5 -80t12.5 -103.5q0 -63 -12.5 -114t-40 -87t-71 -56t-104.5 -20zM288 33q39 0 71 12.5t54.5 39.5t34.5 70t12 104q0 60 -11.5 101t-33 66t-52.5 36t-70 11
q-41 0 -74.5 -13t-58 -39.5t-38 -67.5t-13.5 -97q0 -223 179 -223zM188 751h72l113 -165l-41 -14z" />
    <glyph glyph-name="oacute" unicode="&#xf3;" horiz-adv-x="572" 
d="M284 -12q-63 0 -106 20.5t-69.5 56t-37.5 83.5t-11 104q0 124 61.5 195t175.5 71q57 0 97.5 -18t66.5 -51.5t38.5 -80t12.5 -103.5q0 -63 -12.5 -114t-40 -87t-71 -56t-104.5 -20zM288 33q39 0 71 12.5t54.5 39.5t34.5 70t12 104q0 60 -11.5 101t-33 66t-52.5 36t-70 11
q-41 0 -74.5 -13t-58 -39.5t-38 -67.5t-13.5 -97q0 -223 179 -223zM262 572l-42 14l113 165h72z" />
    <glyph glyph-name="ocircumflex" unicode="&#xf4;" horiz-adv-x="572" 
d="M284 -12q-63 0 -106 20.5t-69.5 56t-37.5 83.5t-11 104q0 124 61.5 195t175.5 71q57 0 97.5 -18t66.5 -51.5t38.5 -80t12.5 -103.5q0 -63 -12.5 -114t-40 -87t-71 -56t-104.5 -20zM288 33q39 0 71 12.5t54.5 39.5t34.5 70t12 104q0 60 -11.5 101t-33 66t-52.5 36t-70 11
q-41 0 -74.5 -13t-58 -39.5t-38 -67.5t-13.5 -97q0 -223 179 -223zM394 579l-101 129l-95 -132l-45 9l116 165h50l122 -165z" />
    <glyph glyph-name="otilde" unicode="&#xf5;" horiz-adv-x="572" 
d="M284 -12q-63 0 -106 20.5t-69.5 56t-37.5 83.5t-11 104q0 124 61.5 195t175.5 71q57 0 97.5 -18t66.5 -51.5t38.5 -80t12.5 -103.5q0 -63 -12.5 -114t-40 -87t-71 -56t-104.5 -20zM288 33q39 0 71 12.5t54.5 39.5t34.5 70t12 104q0 60 -11.5 101t-33 66t-52.5 36t-70 11
q-41 0 -74.5 -13t-58 -39.5t-38 -67.5t-13.5 -97q0 -223 179 -223zM213 699q23 0 43.5 -7t39 -15.5t36 -15.5t34.5 -7q20 0 31.5 9.5t11.5 48.5l38 -2q4 -31 -2 -50.5t-17 -31t-26.5 -16t-31.5 -4.5q-22 0 -42 7t-39.5 16t-38 16t-36.5 7q-16 0 -28 -11.5t-11 -48.5l-36 2
q-4 30 1.5 50t17 31.5t26 16.5t29.5 5z" />
    <glyph glyph-name="odieresis" unicode="&#xf6;" horiz-adv-x="572" 
d="M284 -12q-63 0 -106 20.5t-69.5 56t-37.5 83.5t-11 104q0 124 61.5 195t175.5 71q57 0 97.5 -18t66.5 -51.5t38.5 -80t12.5 -103.5q0 -63 -12.5 -114t-40 -87t-71 -56t-104.5 -20zM288 33q39 0 71 12.5t54.5 39.5t34.5 70t12 104q0 60 -11.5 101t-33 66t-52.5 36t-70 11
q-41 0 -74.5 -13t-58 -39.5t-38 -67.5t-13.5 -97q0 -223 179 -223zM242 665q0 -20 -12 -31t-32 -11q-21 0 -33 11t-12 31t12 31t33 11q20 0 32 -11t12 -31zM433 665q0 -20 -12 -31t-32 -11t-32.5 11t-12.5 31t12.5 31t32.5 11t32 -11t12 -31z" />
    <glyph glyph-name="oslash" unicode="&#xf8;" horiz-adv-x="572" 
d="M284 -12q-25 0 -46.5 3.5t-39.5 8.5l-32 -72h-50l40 91q-53 33 -74.5 94.5t-21.5 138.5q0 124 61.5 195t175.5 71q43 0 76 -10l34 77h50l-43 -96q51 -30 74.5 -88t23.5 -136q0 -63 -12.5 -114t-40 -87t-71 -56t-104.5 -20zM288 33q39 0 71 12.5t54.5 39.5t34.5 70t12 104
q0 73 -16.5 118t-48.5 68l-178 -401q29 -11 71 -11zM109 256q0 -137 68 -190l177 399q-30 8 -61 8q-41 0 -74.5 -13t-58 -39.5t-38 -67.5t-13.5 -97z" />
    <glyph glyph-name="oslashacute" unicode="&#x1ff;" horiz-adv-x="572" 
d="M284 -12q-25 0 -46.5 3.5t-39.5 8.5l-32 -72h-50l40 91q-53 33 -74.5 94.5t-21.5 138.5q0 124 61.5 195t175.5 71q43 0 76 -10l34 77h50l-43 -96q51 -30 74.5 -88t23.5 -136q0 -63 -12.5 -114t-40 -87t-71 -56t-104.5 -20zM288 33q39 0 71 12.5t54.5 39.5t34.5 70t12 104
q0 73 -16.5 118t-48.5 68l-178 -401q29 -11 71 -11zM109 256q0 -137 68 -190l177 399q-30 8 -61 8q-41 0 -74.5 -13t-58 -39.5t-38 -67.5t-13.5 -97zM262 572l-42 14l113 165h72z" />
    <glyph glyph-name="ugrave" unicode="&#xf9;" horiz-adv-x="581" 
d="M90 508h49v-340q0 -63 23.5 -98t87.5 -35q27 0 55 8t52.5 20t45 25.5t32.5 25.5v394h49v-508h-43l-3 65q-45 -32 -91 -53.5t-106 -21.5q-83 0 -117 45t-34 132v341zM181 751h72l113 -165l-41 -14z" />
    <glyph glyph-name="uacute" unicode="&#xfa;" horiz-adv-x="581" 
d="M90 508h49v-340q0 -63 23.5 -98t87.5 -35q27 0 55 8t52.5 20t45 25.5t32.5 25.5v394h49v-508h-43l-3 65q-45 -32 -91 -53.5t-106 -21.5q-83 0 -117 45t-34 132v341zM255 572l-42 14l113 165h72z" />
    <glyph glyph-name="ucircumflex" unicode="&#xfb;" horiz-adv-x="581" 
d="M90 508h49v-340q0 -63 23.5 -98t87.5 -35q27 0 55 8t52.5 20t45 25.5t32.5 25.5v394h49v-508h-43l-3 65q-45 -32 -91 -53.5t-106 -21.5q-83 0 -117 45t-34 132v341zM387 579l-101 129l-95 -132l-45 9l116 165h50l122 -165z" />
    <glyph glyph-name="udieresis" unicode="&#xfc;" horiz-adv-x="581" 
d="M90 508h49v-340q0 -63 23.5 -98t87.5 -35q27 0 55 8t52.5 20t45 25.5t32.5 25.5v394h49v-508h-43l-3 65q-45 -32 -91 -53.5t-106 -21.5q-83 0 -117 45t-34 132v341zM235 665q0 -20 -12 -31t-32 -11q-21 0 -33 11t-12 31t12 31t33 11q20 0 32 -11t12 -31zM426 665
q0 -20 -12 -31t-32 -11t-32.5 11t-12.5 31t12.5 31t32.5 11t32 -11t12 -31z" />
    <glyph glyph-name="yacute" unicode="&#xfd;" horiz-adv-x="457" 
d="M17 508h52l159 -441h1l163 441h52q-27 -69 -56.5 -146t-59.5 -155.5t-59.5 -155.5t-56.5 -146q-15 -37 -31 -61.5t-34.5 -39.5t-40 -21t-45.5 -6q-27 0 -50 6.5t-37 11.5l10 41q11 -5 34 -10.5t46 -5.5q16 0 30.5 4.5t28 16t25.5 31.5t24 51l29 77zM204 572l-42 14
l113 165h72z" />
    <glyph glyph-name="thorn" unicode="&#xfe;" horiz-adv-x="580" 
d="M95 755h48v-312q31 27 77.5 51t109.5 24q40 0 73.5 -13t58.5 -42.5t39 -77.5t14 -118q0 -74 -17 -127t-46.5 -86.5t-68.5 -49.5t-82 -16q-48 0 -89 18t-70 38v-256h-47v967zM144 93q10 -8 25.5 -18.5t35 -20t44 -16t52.5 -6.5q44 0 75 17.5t50.5 49t28.5 76t9 97.5
q0 110 -35 156.5t-108 46.5q-27 0 -53 -7.5t-49 -19t-42.5 -25.5t-32.5 -28v-302z" />
    <glyph glyph-name="ydieresis" unicode="&#xff;" horiz-adv-x="457" 
d="M17 508h52l159 -441h1l163 441h52q-27 -69 -56.5 -146t-59.5 -155.5t-59.5 -155.5t-56.5 -146q-15 -37 -31 -61.5t-34.5 -39.5t-40 -21t-45.5 -6q-27 0 -50 6.5t-37 11.5l10 41q11 -5 34 -10.5t46 -5.5q16 0 30.5 4.5t28 16t25.5 31.5t24 51l29 77zM184 665
q0 -20 -12 -31t-32 -11q-21 0 -33 11t-12 31t12 31t33 11q20 0 32 -11t12 -31zM375 665q0 -20 -12 -31t-32 -11t-32.5 11t-12.5 31t12.5 31t32.5 11t32 -11t12 -31z" />
    <glyph glyph-name="Amacron" unicode="&#x100;" horiz-adv-x="637" 
d="M353 724l249 -724h-54l-84 248h-295l-84 -248h-50l248 724h70zM316 693l-133 -403h267zM168 800v45h300v-45h-300z" />
    <glyph glyph-name="amacron" unicode="&#x101;" horiz-adv-x="536" 
d="M440 72q0 -21 5.5 -31.5t25.5 -10.5q11 0 31 6l4 -32q-15 -8 -26.5 -10t-27.5 -2q-33 0 -46.5 20.5t-11.5 43.5q-29 -29 -73.5 -48.5t-98.5 -19.5q-49 0 -78.5 15t-45.5 36t-21 45t-5 42q0 54 22.5 87.5t58 52t80 24.5t88.5 6q18 0 35 -0.5t34 -1.5v45q0 37 -5.5 63.5
t-19 43t-37 24t-59.5 7.5q-64 0 -92.5 -23.5t-36.5 -71.5l-47 8q12 71 57.5 99.5t122.5 28.5q45 0 76.5 -9t51.5 -29t29.5 -52.5t9.5 -79.5v-276zM391 252q-17 2 -36 2.5t-42 0.5q-38 0 -72.5 -5t-60.5 -18.5t-41 -37.5t-15 -63q0 -21 4.5 -39t16.5 -32t32 -22t52 -8
q48 0 92 20t70 52v150zM133 645v45h277v-45h-277z" />
    <glyph glyph-name="Abreve" unicode="&#x102;" horiz-adv-x="637" 
d="M353 724l249 -724h-54l-84 248h-295l-84 -248h-50l248 724h70zM316 693l-133 -403h267zM319 827q37 0 60.5 16.5t31.5 59.5l45 -4q-7 -50 -40 -82t-98 -32q-62 0 -91.5 29.5t-35.5 83.5l44 5q8 -44 28 -60t56 -16z" />
    <glyph glyph-name="abreve" unicode="&#x103;" horiz-adv-x="536" 
d="M440 72q0 -21 5.5 -31.5t25.5 -10.5q11 0 31 6l4 -32q-15 -8 -26.5 -10t-27.5 -2q-33 0 -46.5 20.5t-11.5 43.5q-29 -29 -73.5 -48.5t-98.5 -19.5q-49 0 -78.5 15t-45.5 36t-21 45t-5 42q0 54 22.5 87.5t58 52t80 24.5t88.5 6q18 0 35 -0.5t34 -1.5v45q0 37 -5.5 63.5
t-19 43t-37 24t-59.5 7.5q-64 0 -92.5 -23.5t-36.5 -71.5l-47 8q12 71 57.5 99.5t122.5 28.5q45 0 76.5 -9t51.5 -29t29.5 -52.5t9.5 -79.5v-276zM391 252q-17 2 -36 2.5t-42 0.5q-38 0 -72.5 -5t-60.5 -18.5t-41 -37.5t-15 -63q0 -21 4.5 -39t16.5 -32t32 -22t52 -8
q48 0 92 20t70 52v150zM410 724q2 -66 -32 -108t-107 -42q-69 0 -100.5 37t-32.5 111l44 6q4 -66 25.5 -89t64.5 -23q45 0 69 23.5t26 88.5z" />
    <glyph glyph-name="Aogonek" unicode="&#x104;" horiz-adv-x="637" 
d="M641 -160q-17 -34 -46.5 -48.5t-56.5 -14.5q-36 0 -62 20.5t-26 59.5q0 26 9.5 48t23.5 40.5t31 33.5t32 27l-82 242h-295l-84 -248h-50l248 724h70l249 -724q-44 -34 -71 -64t-27 -72q0 -19 11 -31t31 -12q36 0 59 39zM316 693l-133 -403h267z" />
    <glyph glyph-name="aogonek" unicode="&#x105;" horiz-adv-x="536" 
d="M531 -160q-17 -34 -46.5 -48.5t-56.5 -14.5q-36 0 -62 20.5t-26 59.5q0 24 8 44.5t20.5 37.5t27.5 31.5t30 26.5q-19 7 -26.5 24t-5.5 35q-29 -29 -73.5 -48.5t-98.5 -19.5q-49 0 -78.5 15t-45.5 36t-21 45t-5 42q0 54 22.5 87.5t58 52t80 24.5t88.5 6q18 0 35 -0.5
t34 -1.5v45q0 37 -5.5 63.5t-19 43t-37 24t-59.5 7.5q-64 0 -92.5 -23.5t-36.5 -71.5l-47 8q12 71 57.5 99.5t122.5 28.5q45 0 76.5 -9t51.5 -29t29.5 -52.5t9.5 -79.5v-276q0 -21 5.5 -31.5t25.5 -10.5q11 0 31 6l4 -32q-21 -9 -41 -24t-35.5 -33.5t-25.5 -39.5t-10 -43
q0 -20 11 -31.5t31 -11.5q36 0 59 39zM391 252q-17 2 -36 2.5t-42 0.5q-38 0 -72.5 -5t-60.5 -18.5t-41 -37.5t-15 -63q0 -21 4.5 -39t16.5 -32t32 -22t52 -8q48 0 92 20t70 52v150z" />
    <glyph glyph-name="Cacute" unicode="&#x106;" horiz-adv-x="716" 
d="M379 -12q-83 0 -141.5 26.5t-96 74.5t-54.5 114t-17 145q0 96 24 169t67.5 121.5t104 73.5t132.5 25q109 0 178 -56t80 -174l-46 -4q-7 46 -21.5 82t-40 60.5t-63 37.5t-88.5 13q-63 0 -114 -22t-87 -65t-56 -106.5t-20 -146.5q0 -87 18.5 -149t52.5 -101.5t82.5 -58
t108.5 -18.5q94 0 148 39t77 131l42 -10q-11 -56 -36 -94.5t-60.5 -62t-80 -34t-93.5 -10.5zM368 767l-42 14l104 130h73z" />
    <glyph glyph-name="cacute" unicode="&#x107;" horiz-adv-x="530" 
d="M285 -12q-63 0 -106 19.5t-69.5 54.5t-38 83.5t-11.5 106.5q0 135 62 200.5t174 65.5q36 0 68 -10.5t56 -31t39 -51.5t17 -72l-53 -6q-7 66 -39 97t-94 31q-32 0 -64 -10t-57.5 -35t-41.5 -66.5t-16 -104.5q0 -68 15 -111.5t39.5 -69t55.5 -35t63 -9.5q59 0 97 28t49 88
l50 -10q-7 -41 -26 -70t-45.5 -47t-58.5 -26.5t-65 -8.5zM252 572l-42 14l113 165h72z" />
    <glyph glyph-name="Ccircumflex" unicode="&#x108;" horiz-adv-x="716" 
d="M379 -12q-83 0 -141.5 26.5t-96 74.5t-54.5 114t-17 145q0 96 24 169t67.5 121.5t104 73.5t132.5 25q109 0 178 -56t80 -174l-46 -4q-7 46 -21.5 82t-40 60.5t-63 37.5t-88.5 13q-63 0 -114 -22t-87 -65t-56 -106.5t-20 -146.5q0 -87 18.5 -149t52.5 -101.5t82.5 -58
t108.5 -18.5q94 0 148 39t77 131l42 -10q-11 -56 -36 -94.5t-60.5 -62t-80 -34t-93.5 -10.5zM394 852l-90 -85l-48 11l123 116h36l123 -116l-50 -9z" />
    <glyph glyph-name="ccircumflex" unicode="&#x109;" horiz-adv-x="530" 
d="M285 -12q-63 0 -106 19.5t-69.5 54.5t-38 83.5t-11.5 106.5q0 135 62 200.5t174 65.5q36 0 68 -10.5t56 -31t39 -51.5t17 -72l-53 -6q-7 66 -39 97t-94 31q-32 0 -64 -10t-57.5 -35t-41.5 -66.5t-16 -104.5q0 -68 15 -111.5t39.5 -69t55.5 -35t63 -9.5q59 0 97 28t49 88
l50 -10q-7 -41 -26 -70t-45.5 -47t-58.5 -26.5t-65 -8.5zM384 579l-101 129l-95 -132l-45 9l116 165h50l122 -165z" />
    <glyph glyph-name="Cdotaccent" unicode="&#x10a;" horiz-adv-x="716" 
d="M379 -12q-83 0 -141.5 26.5t-96 74.5t-54.5 114t-17 145q0 96 24 169t67.5 121.5t104 73.5t132.5 25q109 0 178 -56t80 -174l-46 -4q-7 46 -21.5 82t-40 60.5t-63 37.5t-88.5 13q-63 0 -114 -22t-87 -65t-56 -106.5t-20 -146.5q0 -87 18.5 -149t52.5 -101.5t82.5 -58
t108.5 -18.5q94 0 148 39t77 131l42 -10q-11 -56 -36 -94.5t-60.5 -62t-80 -34t-93.5 -10.5zM441 826q0 -42 -46 -42t-46 42q0 43 46 43t46 -43z" />
    <glyph glyph-name="cdotaccent" unicode="&#x10b;" horiz-adv-x="530" 
d="M285 -12q-63 0 -106 19.5t-69.5 54.5t-38 83.5t-11.5 106.5q0 135 62 200.5t174 65.5q36 0 68 -10.5t56 -31t39 -51.5t17 -72l-53 -6q-7 66 -39 97t-94 31q-32 0 -64 -10t-57.5 -35t-41.5 -66.5t-16 -104.5q0 -68 15 -111.5t39.5 -69t55.5 -35t63 -9.5q59 0 97 28t49 88
l50 -10q-7 -41 -26 -70t-45.5 -47t-58.5 -26.5t-65 -8.5zM330 677q0 -42 -46 -42t-46 42q0 43 46 43t46 -43z" />
    <glyph glyph-name="Ccaron" unicode="&#x10c;" horiz-adv-x="716" 
d="M379 -12q-83 0 -141.5 26.5t-96 74.5t-54.5 114t-17 145q0 96 24 169t67.5 121.5t104 73.5t132.5 25q109 0 178 -56t80 -174l-46 -4q-7 46 -21.5 82t-40 60.5t-63 37.5t-88.5 13q-63 0 -114 -22t-87 -65t-56 -106.5t-20 -146.5q0 -87 18.5 -149t52.5 -101.5t82.5 -58
t108.5 -18.5q94 0 148 39t77 131l42 -10q-11 -56 -36 -94.5t-60.5 -62t-80 -34t-93.5 -10.5zM398 814l90 85l48 -11l-123 -116h-36l-123 116l50 9z" />
    <glyph glyph-name="ccaron" unicode="&#x10d;" horiz-adv-x="530" 
d="M285 -12q-63 0 -106 19.5t-69.5 54.5t-38 83.5t-11.5 106.5q0 135 62 200.5t174 65.5q36 0 68 -10.5t56 -31t39 -51.5t17 -72l-53 -6q-7 66 -39 97t-94 31q-32 0 -64 -10t-57.5 -35t-41.5 -66.5t-16 -104.5q0 -68 15 -111.5t39.5 -69t55.5 -35t63 -9.5q59 0 97 28t49 88
l50 -10q-7 -41 -26 -70t-45.5 -47t-58.5 -26.5t-65 -8.5zM189 744l96 -130l98 132l43 -9l-116 -165h-51l-121 165z" />
    <glyph glyph-name="Dcaron" unicode="&#x10e;" horiz-adv-x="741" 
d="M112 0v724h200q94 0 162 -24.5t111.5 -70t64.5 -110.5t21 -146q0 -83 -22.5 -152t-68.5 -118t-117 -76t-168 -27h-183zM303 41q153 0 235 83t82 244q0 91 -22 151.5t-62.5 97t-98 51.5t-129.5 15h-148v-642h143zM332 814l90 85l48 -11l-123 -116h-36l-123 116l50 9z" />
    <glyph glyph-name="dcaron" unicode="&#x10f;" horiz-adv-x="627" 
d="M486 0h-42l-5 58q-37 -29 -79.5 -49.5t-101.5 -20.5q-42 0 -77.5 14.5t-61 46t-40 81t-14.5 119.5q0 73 17.5 124.5t47.5 83.5t69.5 46.5t83.5 14.5q45 0 84.5 -15t68.5 -35v287h50v-755zM437 419q-10 7 -26 17t-36 18t-44 14t-49 6q-46 0 -77.5 -16t-51 -46t-28 -71.5
t-8.5 -92.5q0 -109 36.5 -163t114.5 -54q52 0 96 23t73 54v311zM591 755h64l-59 -197l-38 8z" />
    <glyph glyph-name="Dcroat" unicode="&#x110;" horiz-adv-x="741" 
d="M17 391h95v333h200q94 0 162 -24.5t111.5 -70t64.5 -110.5t21 -146q0 -83 -22.5 -152t-68.5 -118t-117 -76t-168 -27h-183v349h-95v42zM303 41q153 0 235 83t82 244q0 91 -22 151.5t-62.5 97t-98 51.5t-129.5 15h-148v-292h261v-42h-261v-308h143z" />
    <glyph glyph-name="dcroat" unicode="&#x111;" horiz-adv-x="581" 
d="M486 631h65v-47h-65v-584h-42l-5 58q-37 -29 -79.5 -49.5t-101.5 -20.5q-42 0 -77.5 14t-61 44t-40 77.5t-14.5 115.5q0 71 17.5 120.5t47.5 80t69.5 44.5t83.5 14q45 0 84.5 -15t68.5 -35v136h-211v47h211v124h50v-124zM437 399q-10 7 -26 17t-36 18t-44 14t-49 6
q-46 0 -77.5 -15.5t-51 -44t-28 -68t-8.5 -88.5q0 -104 36.5 -155.5t114.5 -51.5q52 0 96 23t73 54v291z" />
    <glyph glyph-name="Emacron" unicode="&#x112;" 
d="M160 42h358v-42h-406v724h398v-42h-350v-292h327v-43h-327v-305zM163 800v45h300v-45h-300z" />
    <glyph glyph-name="emacron" unicode="&#x113;" horiz-adv-x="543" 
d="M284 -12q-66 0 -109 21.5t-68.5 58.5t-36 85t-10.5 101q0 70 19 120t51.5 82t74.5 47t88 15q51 0 87 -16t59 -44.5t33.5 -66.5t10.5 -81q0 -17 -1 -33t-4 -33h-366q1 -63 15.5 -103.5t38 -64t55 -32.5t67.5 -9q60 0 93 26.5t47 78.5l47 -9q-9 -39 -28 -66t-44 -44
t-55.5 -25t-63.5 -8zM432 287q2 91 -32 138.5t-113 47.5q-32 0 -62 -10t-54 -32.5t-40 -57.5t-19 -86h320zM147 645v45h277v-45h-277z" />
    <glyph glyph-name="Ebreve" unicode="&#x114;" 
d="M160 42h358v-42h-406v724h398v-42h-350v-292h327v-43h-327v-305zM314 827q37 0 60.5 16.5t31.5 59.5l45 -4q-7 -50 -40 -82t-98 -32q-62 0 -91.5 29.5t-35.5 83.5l44 5q8 -44 28 -60t56 -16z" />
    <glyph glyph-name="ebreve" unicode="&#x115;" horiz-adv-x="543" 
d="M284 -12q-66 0 -109 21.5t-68.5 58.5t-36 85t-10.5 101q0 70 19 120t51.5 82t74.5 47t88 15q51 0 87 -16t59 -44.5t33.5 -66.5t10.5 -81q0 -17 -1 -33t-4 -33h-366q1 -63 15.5 -103.5t38 -64t55 -32.5t67.5 -9q60 0 93 26.5t47 78.5l47 -9q-9 -39 -28 -66t-44 -44
t-55.5 -25t-63.5 -8zM432 287q2 91 -32 138.5t-113 47.5q-32 0 -62 -10t-54 -32.5t-40 -57.5t-19 -86h320zM424 724q2 -66 -32 -108t-107 -42q-69 0 -100.5 37t-32.5 111l44 6q4 -66 25.5 -89t64.5 -23q45 0 69 23.5t26 88.5z" />
    <glyph glyph-name="Edotaccent" unicode="&#x116;" 
d="M160 42h358v-42h-406v724h398v-42h-350v-292h327v-43h-327v-305zM359 826q0 -42 -46 -42t-46 42q0 43 46 43t46 -43z" />
    <glyph glyph-name="edotaccent" unicode="&#x117;" horiz-adv-x="543" 
d="M284 -12q-66 0 -109 21.5t-68.5 58.5t-36 85t-10.5 101q0 70 19 120t51.5 82t74.5 47t88 15q51 0 87 -16t59 -44.5t33.5 -66.5t10.5 -81q0 -17 -1 -33t-4 -33h-366q1 -63 15.5 -103.5t38 -64t55 -32.5t67.5 -9q60 0 93 26.5t47 78.5l47 -9q-9 -39 -28 -66t-44 -44
t-55.5 -25t-63.5 -8zM432 287q2 91 -32 138.5t-113 47.5q-32 0 -62 -10t-54 -32.5t-40 -57.5t-19 -86h320zM332 677q0 -42 -46 -42t-46 42q0 43 46 43t46 -43z" />
    <glyph glyph-name="Eogonek" unicode="&#x118;" 
d="M535 -160q-17 -34 -46.5 -48.5t-56.5 -14.5q-36 0 -62 20.5t-26 59.5q0 23 7.5 43.5t19 38.5t25.5 33.5t28 27.5h-312v724h398v-42h-350v-292h327v-43h-327v-305h358v-42h-35q-39 -34 -62 -65t-23 -71q0 -19 11 -31t31 -12q36 0 59 39z" />
    <glyph glyph-name="eogonek" unicode="&#x119;" horiz-adv-x="543" 
d="M423 -160q-17 -34 -46.5 -48.5t-56.5 -14.5q-36 0 -62 20.5t-26 59.5q0 42 21.5 71t53.5 61q-5 -1 -11.5 -1h-11.5q-66 0 -109 21.5t-68.5 58.5t-36 85t-10.5 101q0 70 19 120t51.5 82t74.5 47t88 15q51 0 87 -16t59 -44.5t33.5 -66.5t10.5 -81q0 -17 -1 -33t-4 -33h-366
q1 -63 15.5 -103.5t38 -64t55 -32.5t67.5 -9q60 0 93 26.5t47 78.5l47 -9q-11 -47 -35.5 -74.5t-55.5 -49.5q-42 -29 -70 -65t-28 -78q0 -19 11 -31t31 -12q36 0 59 39zM432 287q2 91 -32 138.5t-113 47.5q-32 0 -62 -10t-54 -32.5t-40 -57.5t-19 -86h320z" />
    <glyph glyph-name="Ecaron" unicode="&#x11a;" 
d="M160 42h358v-42h-406v724h398v-42h-350v-292h327v-43h-327v-305zM316 814l90 85l48 -11l-123 -116h-36l-123 116l50 9z" />
    <glyph glyph-name="ecaron" unicode="&#x11b;" horiz-adv-x="543" 
d="M284 -12q-66 0 -109 21.5t-68.5 58.5t-36 85t-10.5 101q0 70 19 120t51.5 82t74.5 47t88 15q51 0 87 -16t59 -44.5t33.5 -66.5t10.5 -81q0 -17 -1 -33t-4 -33h-366q1 -63 15.5 -103.5t38 -64t55 -32.5t67.5 -9q60 0 93 26.5t47 78.5l47 -9q-9 -39 -28 -66t-44 -44
t-55.5 -25t-63.5 -8zM432 287q2 91 -32 138.5t-113 47.5q-32 0 -62 -10t-54 -32.5t-40 -57.5t-19 -86h320zM191 744l96 -130l98 132l43 -9l-116 -165h-51l-121 165z" />
    <glyph glyph-name="Gcircumflex" unicode="&#x11c;" horiz-adv-x="756" 
d="M607 115q-10 -25 -30 -48t-48.5 -40.5t-66 -28t-82.5 -10.5q-82 0 -140.5 27t-96 75.5t-55.5 116t-18 148.5q0 96 24 167.5t67.5 119.5t104 71.5t134.5 23.5q55 0 100 -13.5t78 -41.5t53 -72t25 -105l-46 -5q-6 56 -23 93.5t-44 60.5t-64 32.5t-82 9.5
q-64 0 -115.5 -22.5t-87.5 -65t-55.5 -105.5t-19.5 -144q0 -101 22.5 -165.5t60 -101t85.5 -50t99 -13.5q55 0 97 19.5t70.5 50t42.5 68.5t14 75v87h-235v45h277v-374h-37zM395 852l-90 -85l-48 11l123 116h36l123 -116l-50 -9z" />
    <glyph glyph-name="gcircumflex" unicode="&#x11d;" horiz-adv-x="547" 
d="M266 518q50 0 91.5 -14t67.5 -46q8 20 24 38t42 18q11 0 18.5 -1.5t17.5 -4.5v-50q-24 1 -49.5 -3.5t-43.5 -10.5q16 -18 24 -47t8 -60q0 -44 -15.5 -77.5t-42 -57t-62 -35.5t-75.5 -12q-29 0 -57 4t-45 11q-17 -13 -29.5 -27t-12.5 -34q0 -19 18.5 -30.5t68.5 -14.5
l140 -8q38 -2 68 -9t50.5 -21t31 -36.5t10.5 -56.5q0 -50 -24 -81t-61 -48t-81.5 -23.5t-84.5 -6.5q-74 0 -118 13t-67 33t-30 42.5t-7 42.5q0 25 7 44t19 34.5t27.5 27.5t31.5 24q-20 5 -35 22t-15 40q0 29 17.5 51.5t40.5 40.5q-35 17 -55.5 55t-20.5 85q0 44 15 79
t42.5 59.5t66 37.5t84.5 13zM414 336q0 72 -38.5 106t-107.5 34q-32 0 -60.5 -8t-49.5 -24.5t-33.5 -42.5t-12.5 -63q0 -30 8.5 -55t27 -43.5t47.5 -29t70 -10.5q68 0 108.5 36.5t40.5 99.5zM462 -65q0 15 -4.5 28t-16.5 23t-32 16.5t-50 8.5l-191 10q-32 -23 -53 -49
t-21 -61q0 -17 6.5 -33t25 -28.5t53 -20t90.5 -7.5q100 0 146.5 28t46.5 85zM370 579l-101 129l-95 -132l-45 9l116 165h50l122 -165z" />
    <glyph glyph-name="Gbreve" unicode="&#x11e;" horiz-adv-x="756" 
d="M607 115q-10 -25 -30 -48t-48.5 -40.5t-66 -28t-82.5 -10.5q-82 0 -140.5 27t-96 75.5t-55.5 116t-18 148.5q0 96 24 167.5t67.5 119.5t104 71.5t134.5 23.5q55 0 100 -13.5t78 -41.5t53 -72t25 -105l-46 -5q-6 56 -23 93.5t-44 60.5t-64 32.5t-82 9.5
q-64 0 -115.5 -22.5t-87.5 -65t-55.5 -105.5t-19.5 -144q0 -101 22.5 -165.5t60 -101t85.5 -50t99 -13.5q55 0 97 19.5t70.5 50t42.5 68.5t14 75v87h-235v45h277v-374h-37zM397 827q37 0 60.5 16.5t31.5 59.5l45 -4q-7 -50 -40 -82t-98 -32q-62 0 -91.5 29.5t-35.5 83.5
l44 5q8 -44 28 -60t56 -16z" />
    <glyph glyph-name="gbreve" unicode="&#x11f;" horiz-adv-x="547" 
d="M266 518q50 0 91.5 -14t67.5 -46q8 20 24 38t42 18q11 0 18.5 -1.5t17.5 -4.5v-50q-24 1 -49.5 -3.5t-43.5 -10.5q16 -18 24 -47t8 -60q0 -44 -15.5 -77.5t-42 -57t-62 -35.5t-75.5 -12q-29 0 -57 4t-45 11q-17 -13 -29.5 -27t-12.5 -34q0 -19 18.5 -30.5t68.5 -14.5
l140 -8q38 -2 68 -9t50.5 -21t31 -36.5t10.5 -56.5q0 -50 -24 -81t-61 -48t-81.5 -23.5t-84.5 -6.5q-74 0 -118 13t-67 33t-30 42.5t-7 42.5q0 25 7 44t19 34.5t27.5 27.5t31.5 24q-20 5 -35 22t-15 40q0 29 17.5 51.5t40.5 40.5q-35 17 -55.5 55t-20.5 85q0 44 15 79
t42.5 59.5t66 37.5t84.5 13zM414 336q0 72 -38.5 106t-107.5 34q-32 0 -60.5 -8t-49.5 -24.5t-33.5 -42.5t-12.5 -63q0 -30 8.5 -55t27 -43.5t47.5 -29t70 -10.5q68 0 108.5 36.5t40.5 99.5zM462 -65q0 15 -4.5 28t-16.5 23t-32 16.5t-50 8.5l-191 10q-32 -23 -53 -49
t-21 -61q0 -17 6.5 -33t25 -28.5t53 -20t90.5 -7.5q100 0 146.5 28t46.5 85zM408 724q2 -66 -32 -108t-107 -42q-69 0 -100.5 37t-32.5 111l44 6q4 -66 25.5 -89t64.5 -23q45 0 69 23.5t26 88.5z" />
    <glyph glyph-name="Gdotaccent" unicode="&#x120;" horiz-adv-x="756" 
d="M607 115q-10 -25 -30 -48t-48.5 -40.5t-66 -28t-82.5 -10.5q-82 0 -140.5 27t-96 75.5t-55.5 116t-18 148.5q0 96 24 167.5t67.5 119.5t104 71.5t134.5 23.5q55 0 100 -13.5t78 -41.5t53 -72t25 -105l-46 -5q-6 56 -23 93.5t-44 60.5t-64 32.5t-82 9.5
q-64 0 -115.5 -22.5t-87.5 -65t-55.5 -105.5t-19.5 -144q0 -101 22.5 -165.5t60 -101t85.5 -50t99 -13.5q55 0 97 19.5t70.5 50t42.5 68.5t14 75v87h-235v45h277v-374h-37zM442 826q0 -42 -46 -42t-46 42q0 43 46 43t46 -43z" />
    <glyph glyph-name="gdotaccent" unicode="&#x121;" horiz-adv-x="547" 
d="M266 518q50 0 91.5 -14t67.5 -46q8 20 24 38t42 18q11 0 18.5 -1.5t17.5 -4.5v-50q-24 1 -49.5 -3.5t-43.5 -10.5q16 -18 24 -47t8 -60q0 -44 -15.5 -77.5t-42 -57t-62 -35.5t-75.5 -12q-29 0 -57 4t-45 11q-17 -13 -29.5 -27t-12.5 -34q0 -19 18.5 -30.5t68.5 -14.5
l140 -8q38 -2 68 -9t50.5 -21t31 -36.5t10.5 -56.5q0 -50 -24 -81t-61 -48t-81.5 -23.5t-84.5 -6.5q-74 0 -118 13t-67 33t-30 42.5t-7 42.5q0 25 7 44t19 34.5t27.5 27.5t31.5 24q-20 5 -35 22t-15 40q0 29 17.5 51.5t40.5 40.5q-35 17 -55.5 55t-20.5 85q0 44 15 79
t42.5 59.5t66 37.5t84.5 13zM414 336q0 72 -38.5 106t-107.5 34q-32 0 -60.5 -8t-49.5 -24.5t-33.5 -42.5t-12.5 -63q0 -30 8.5 -55t27 -43.5t47.5 -29t70 -10.5q68 0 108.5 36.5t40.5 99.5zM462 -65q0 15 -4.5 28t-16.5 23t-32 16.5t-50 8.5l-191 10q-32 -23 -53 -49
t-21 -61q0 -17 6.5 -33t25 -28.5t53 -20t90.5 -7.5q100 0 146.5 28t46.5 85zM316 677q0 -42 -46 -42t-46 42q0 43 46 43t46 -43z" />
    <glyph glyph-name="Gcommaaccent" unicode="&#x122;" horiz-adv-x="756" 
d="M607 115q-10 -25 -30 -48t-48.5 -40.5t-66 -28t-82.5 -10.5q-82 0 -140.5 27t-96 75.5t-55.5 116t-18 148.5q0 96 24 167.5t67.5 119.5t104 71.5t134.5 23.5q55 0 100 -13.5t78 -41.5t53 -72t25 -105l-46 -5q-6 56 -23 93.5t-44 60.5t-64 32.5t-82 9.5
q-64 0 -115.5 -22.5t-87.5 -65t-55.5 -105.5t-19.5 -144q0 -101 22.5 -165.5t60 -101t85.5 -50t99 -13.5q55 0 97 19.5t70.5 50t42.5 68.5t14 75v87h-235v45h277v-374h-37zM353 -69h66l-58 -147l-42 7z" />
    <glyph glyph-name="gcommaaccent" unicode="&#x123;" horiz-adv-x="547" 
d="M266 518q50 0 91.5 -14t67.5 -46q8 20 24 38t42 18q11 0 18.5 -1.5t17.5 -4.5v-50q-24 1 -49.5 -3.5t-43.5 -10.5q16 -18 24 -47t8 -60q0 -44 -15.5 -77.5t-42 -57t-62 -35.5t-75.5 -12q-29 0 -57 4t-45 11q-17 -13 -29.5 -27t-12.5 -34q0 -19 18.5 -30.5t68.5 -14.5
l140 -8q38 -2 68 -9t50.5 -21t31 -36.5t10.5 -56.5q0 -50 -24 -81t-61 -48t-81.5 -23.5t-84.5 -6.5q-74 0 -118 13t-67 33t-30 42.5t-7 42.5q0 25 7 44t19 34.5t27.5 27.5t31.5 24q-20 5 -35 22t-15 40q0 29 17.5 51.5t40.5 40.5q-35 17 -55.5 55t-20.5 85q0 44 15 79
t42.5 59.5t66 37.5t84.5 13zM414 336q0 72 -38.5 106t-107.5 34q-32 0 -60.5 -8t-49.5 -24.5t-33.5 -42.5t-12.5 -63q0 -30 8.5 -55t27 -43.5t47.5 -29t70 -10.5q68 0 108.5 36.5t40.5 99.5zM462 -65q0 15 -4.5 28t-16.5 23t-32 16.5t-50 8.5l-191 10q-32 -23 -53 -49
t-21 -61q0 -17 6.5 -33t25 -28.5t53 -20t90.5 -7.5q100 0 146.5 28t46.5 85zM292 570h-66l57 146l43 -6z" />
    <glyph glyph-name="Hcircumflex" unicode="&#x124;" horiz-adv-x="725" 
d="M613 0h-48v350h-405v-350h-48v724h48v-330h405v330h48v-724zM361 852l-90 -85l-48 11l123 116h36l123 -116l-50 -9z" />
    <glyph glyph-name="hcircumflex" unicode="&#x125;" horiz-adv-x="578" 
d="M490 0h-49v340q0 63 -24.5 97.5t-89.5 34.5q-27 0 -55 -8t-52.5 -19.5t-45 -25t-32.5 -25.5v-394h-49v755h49v-312q45 32 93 53.5t101 21.5q81 0 117.5 -45t36.5 -131v-342zM125 875l-90 -85l-48 11l123 116h36l123 -116l-50 -9z" />
    <glyph glyph-name="Hbar" unicode="&#x126;" horiz-adv-x="725" 
d="M613 578h80v-45h-80v-533h-48v350h-405v-350h-48v533h-80v45h80v146h48v-146h405v146h48v-146zM565 394v139h-405v-139h405z" />
    <glyph glyph-name="hbar" unicode="&#x127;" horiz-adv-x="578" 
d="M24 626h69v129h49v-129h202v-47h-202v-156q45 32 93 53.5t101 21.5q81 0 117.5 -45t36.5 -131v-322h-49v320q0 63 -24.5 97.5t-89.5 34.5q-27 0 -55 -8t-52.5 -19.5t-45 -25t-32.5 -25.5v-374h-49v579h-69v47z" />
    <glyph glyph-name="Itilde" unicode="&#x128;" horiz-adv-x="272" 
d="M160 0h-48v724h48v-724zM59 877q23 0 43.5 -7t39 -15.5t36 -15.5t34.5 -7q20 0 31.5 9.5t11.5 48.5l38 -2q4 -31 -2 -50.5t-17 -31t-26.5 -16t-31.5 -4.5q-22 0 -42 7t-39.5 16t-38 16t-36.5 7q-16 0 -28 -11.5t-11 -48.5l-36 2q-4 30 1.5 50t17 31.5t26 16.5t29.5 5z
" />
    <glyph glyph-name="itilde" unicode="&#x129;" horiz-adv-x="236" 
d="M145 0h-49v508h49v-508zM40 699q23 0 43.5 -7t39 -15.5t36 -15.5t34.5 -7q20 0 31.5 9.5t11.5 48.5l38 -2q4 -31 -2 -50.5t-17 -31t-26.5 -16t-31.5 -4.5q-22 0 -42 7t-39.5 16t-38 16t-36.5 7q-16 0 -28 -11.5t-11 -48.5l-36 2q-4 30 1.5 50t17 31.5t26 16.5t29.5 5z
" />
    <glyph glyph-name="Imacron" unicode="&#x12a;" horiz-adv-x="272" 
d="M160 0h-48v724h48v-724zM-13 800v45h300v-45h-300z" />
    <glyph glyph-name="imacron" unicode="&#x12b;" horiz-adv-x="236" 
d="M145 0h-49v508h49v-508zM-18 645v45h277v-45h-277z" />
    <glyph glyph-name="Ibreve" unicode="&#x12c;" horiz-adv-x="272" 
d="M160 0h-48v724h48v-724zM138 827q37 0 60.5 16.5t31.5 59.5l45 -4q-7 -50 -40 -82t-98 -32q-62 0 -91.5 29.5t-35.5 83.5l44 5q8 -44 28 -60t56 -16z" />
    <glyph glyph-name="ibreve" unicode="&#x12d;" horiz-adv-x="236" 
d="M145 0h-49v508h49v-508zM259 724q2 -66 -32 -108t-107 -42q-69 0 -100.5 37t-32.5 111l44 6q4 -66 25.5 -89t64.5 -23q45 0 69 23.5t26 88.5z" />
    <glyph glyph-name="Iogonek" unicode="&#x12e;" horiz-adv-x="272" 
d="M218 -160q-17 -34 -46.5 -48.5t-56.5 -14.5q-36 0 -62 20.5t-26 59.5q0 25 8 47t20.5 41t27.5 34.5t29 27.5v717h48v-724q-36 -34 -57.5 -64t-21.5 -72q0 -19 11 -31t31 -12q36 0 59 39z" />
    <glyph glyph-name="iogonek" unicode="&#x12f;" horiz-adv-x="236" 
d="M205 -160q-17 -34 -46.5 -48.5t-56.5 -14.5q-36 0 -62 20.5t-26 59.5q0 24 7.5 45t19.5 40t26.5 35t28.5 28v503h49v-508q-34 -33 -55.5 -63.5t-21.5 -72.5q0 -19 11 -31t31 -12q36 0 59 39zM169 677q0 -42 -46 -42t-46 42q0 43 46 43t46 -43z" />
    <glyph glyph-name="Idotaccent" unicode="&#x130;" horiz-adv-x="272" 
d="M160 0h-48v724h48v-724zM183 826q0 -42 -46 -42t-46 42q0 43 46 43t46 -43z" />
    <glyph glyph-name="idotaccent" horiz-adv-x="236" 
d="M145 0h-49v508h49v-508zM169 677q0 -42 -46 -42t-46 42q0 43 46 43t46 -43z" />
    <glyph glyph-name="dotlessi" unicode="&#x131;" horiz-adv-x="236" 
d="M145 0h-49v508h49v-508z" />
    <glyph glyph-name="IJ" unicode="&#x132;" horiz-adv-x="759" 
d="M160 0h-48v724h48v-724zM610 724h48v-551q0 -54 -13 -89.5t-36.5 -57t-56 -30t-71.5 -8.5q-45 0 -76 12t-51 33t-30 49.5t-12 61.5l47 8q3 -25 10 -47t20.5 -38.5t37 -26t59.5 -9.5q24 0 46.5 5.5t40 21t27.5 44t10 74.5v548z" />
    <glyph glyph-name="Jcircumflex" unicode="&#x134;" horiz-adv-x="487" 
d="M338 724h48v-551q0 -54 -13 -89.5t-36.5 -57t-56 -30t-71.5 -8.5q-45 0 -76 12t-51 33t-30 49.5t-12 61.5l47 8q3 -25 10 -47t20.5 -38.5t37 -26t59.5 -9.5q24 0 46.5 5.5t40 21t27.5 44t10 74.5v548zM360 852l-90 -85l-48 11l123 116h36l123 -116l-50 -9z" />
    <glyph glyph-name="jcircumflex" unicode="&#x135;" horiz-adv-x="233" 
d="M26 -223q-6 0 -17 1t-22 3t-22 5t-17 6l9 43q17 -6 36 -9t35 -3q33 0 50.5 19.5t17.5 64.5v601h49v-597q0 -69 -28.5 -101.5t-90.5 -32.5zM221 579l-101 129l-95 -132l-45 9l116 165h50l122 -165z" />
    <glyph glyph-name="jcircumflex.calt" horiz-adv-x="233" 
d="M38 -223q-16 0 -30 3t-22 6l4 43q21 -6 42 -6q32 0 48 20t16 64v601h49v-597q0 -134 -107 -134zM220 579l-101 129l-95 -132l-45 9l116 165h50l122 -165z" />
    <glyph glyph-name="Kcommaaccent" unicode="&#x136;" horiz-adv-x="623" 
d="M160 342l357 382h60l-299 -319l326 -405h-58l-301 373l-85 -90v-283h-48v724h48v-382zM295 -69h66l-58 -147l-42 7z" />
    <glyph glyph-name="kcommaaccent" unicode="&#x137;" horiz-adv-x="504" 
d="M142 245l254 263h59l-180 -187l193 -321h-53l-175 286l-98 -99v-187h-49v755h49v-510zM236 -69h66l-58 -147l-42 7z" />
    <glyph glyph-name="kgreenlandic" unicode="&#x138;" horiz-adv-x="504" 
d="M142 245l254 263h59l-180 -187l193 -321h-53l-175 286l-98 -99v-187h-49v508h49v-263z" />
    <glyph glyph-name="Lacute" unicode="&#x139;" horiz-adv-x="552" 
d="M160 41h337v-41h-385v724h48v-683zM121 767l-42 14l104 130h73z" />
    <glyph glyph-name="lacute" unicode="&#x13a;" horiz-adv-x="236" 
d="M145 0h-49v755h49v-755zM99 788l-42 14l104 130h73z" />
    <glyph glyph-name="Lcommaaccent" unicode="&#x13b;" horiz-adv-x="552" 
d="M160 41h337v-41h-385v724h48v-683zM281 -69h66l-58 -147l-42 7z" />
    <glyph glyph-name="lcommaaccent" unicode="&#x13c;" horiz-adv-x="236" 
d="M145 0h-49v755h49v-755zM99 -69h66l-58 -147l-42 7z" />
    <glyph glyph-name="Lcaron" unicode="&#x13d;" horiz-adv-x="552" 
d="M160 41h337v-41h-385v724h48v-683zM401 726h64l-59 -197l-38 8z" />
    <glyph glyph-name="lcaron" unicode="&#x13e;" horiz-adv-x="282" 
d="M145 0h-49v755h49v-755zM248 755h64l-59 -197l-38 8z" />
    <glyph glyph-name="Ldot" unicode="&#x13f;" horiz-adv-x="552" 
d="M160 41h337v-41h-385v724h48v-683zM465 400q0 -42 -46 -42t-46 42q0 43 46 43t46 -43z" />
    <glyph glyph-name="ldot" unicode="&#x140;" horiz-adv-x="293" 
d="M145 0h-49v755h49v-755zM316 399q0 -42 -46 -42t-46 42q0 43 46 43t46 -43z" />
    <glyph glyph-name="Lslash" unicode="&#x141;" horiz-adv-x="552" 
d="M160 367l243 104v-49l-243 -103v-278h337v-41h-385v298l-93 -39v48l93 39v378h48v-357z" />
    <glyph glyph-name="lslash" unicode="&#x142;" horiz-adv-x="261" 
d="M153 429l93 44v-53l-93 -43v-377h-49v355l-89 -41v53l89 41v347h49v-326z" />
    <glyph glyph-name="Nacute" unicode="&#x143;" horiz-adv-x="745" 
d="M568 0l-409 683v-683h-47v724h77l398 -671v671h46v-724h-65zM376 767l-42 14l104 130h73z" />
    <glyph glyph-name="nacute" unicode="&#x144;" horiz-adv-x="578" 
d="M490 0h-49v340q0 63 -24.5 98t-88.5 35q-27 0 -55 -8t-53 -20t-45.5 -25.5t-32.5 -25.5v-394h-49v508h43l3 -66q45 32 94.5 54t103.5 22q81 0 117 -45t36 -131v-342zM287 572l-42 14l113 165h72z" />
    <glyph glyph-name="Ncommaaccent" unicode="&#x145;" horiz-adv-x="745" 
d="M568 0l-409 683v-683h-47v724h77l398 -671v671h46v-724h-65zM351 -69h66l-58 -147l-42 7z" />
    <glyph glyph-name="ncommaaccent" unicode="&#x146;" horiz-adv-x="578" 
d="M490 0h-49v340q0 63 -24.5 98t-88.5 35q-27 0 -55 -8t-53 -20t-45.5 -25.5t-32.5 -25.5v-394h-49v508h43l3 -66q45 32 94.5 54t103.5 22q81 0 117 -45t36 -131v-342zM261 -69h66l-58 -147l-42 7z" />
    <glyph glyph-name="Ncaron" unicode="&#x147;" horiz-adv-x="745" 
d="M568 0l-409 683v-683h-47v724h77l398 -671v671h46v-724h-65zM391 814l90 85l48 -11l-123 -116h-36l-123 116l50 9z" />
    <glyph glyph-name="ncaron" unicode="&#x148;" horiz-adv-x="578" 
d="M490 0h-49v340q0 63 -24.5 98t-88.5 35q-27 0 -55 -8t-53 -20t-45.5 -25.5t-32.5 -25.5v-394h-49v508h43l3 -66q45 32 94.5 54t103.5 22q81 0 117 -45t36 -131v-342zM207 744l96 -130l98 132l43 -9l-116 -165h-51l-121 165z" />
    <glyph glyph-name="napostrophe" unicode="&#x149;" horiz-adv-x="578" 
d="M490 0h-49v340q0 63 -24.5 98t-88.5 35q-27 0 -55 -8t-53 -20t-45.5 -25.5t-32.5 -25.5v-394h-49v508h43l3 -66q45 32 94.5 54t103.5 22q81 0 117 -45t36 -131v-342zM21 655h66l-57 -146l-42 6z" />
    <glyph glyph-name="Eng" unicode="&#x14a;" horiz-adv-x="745" 
d="M494 -223q-8 0 -21.5 2t-27.5 5t-27.5 6.5t-21.5 6.5l9 43q22 -6 46.5 -11.5t44.5 -5.5q42 0 65.5 21.5t23.5 72.5v76l-426 690v-683h-47v724h77l398 -651v651h46v-803q0 -74 -33.5 -109t-105.5 -35z" />
    <glyph glyph-name="eng" unicode="&#x14b;" horiz-adv-x="578" 
d="M490 -89q0 -69 -28.5 -101.5t-90.5 -32.5q-6 0 -17 1t-22 3t-22 5t-17 6l9 43q17 -6 36 -9t35 -3q33 0 50.5 19.5t17.5 64.5v433q0 63 -24.5 98t-88.5 35q-27 0 -55 -8t-53 -20t-45.5 -25.5t-32.5 -25.5v-394h-49v508h43l3 -66q45 32 94.5 54t103.5 22q81 0 117 -45
t36 -131v-431z" />
    <glyph glyph-name="Omacron" unicode="&#x14c;" horiz-adv-x="781" 
d="M386 -12q-80 0 -139.5 28t-98.5 78.5t-58.5 119.5t-19.5 150t22 149.5t64 118t103.5 77.5t140.5 28q78 0 136.5 -27.5t97 -76t58 -114t19.5 -140.5q0 -89 -21 -161t-62.5 -123t-102 -79t-139.5 -28zM390 29q59 0 108.5 21.5t85.5 64.5t56.5 106.5t20.5 147.5
q0 78 -19 139t-54 102.5t-83.5 63.5t-106.5 22q-59 0 -109.5 -22t-88 -64.5t-58.5 -104.5t-21 -142t20 -142t55.5 -104.5t85 -65t108.5 -22.5zM246 800v45h300v-45h-300z" />
    <glyph glyph-name="omacron" unicode="&#x14d;" horiz-adv-x="572" 
d="M284 -12q-63 0 -106 20.5t-69.5 56t-37.5 83.5t-11 104q0 124 61.5 195t175.5 71q57 0 97.5 -18t66.5 -51.5t38.5 -80t12.5 -103.5q0 -63 -12.5 -114t-40 -87t-71 -56t-104.5 -20zM288 33q39 0 71 12.5t54.5 39.5t34.5 70t12 104q0 60 -11.5 101t-33 66t-52.5 36t-70 11
q-41 0 -74.5 -13t-58 -39.5t-38 -67.5t-13.5 -97q0 -223 179 -223zM155 645v45h277v-45h-277z" />
    <glyph glyph-name="Obreve" unicode="&#x14e;" horiz-adv-x="781" 
d="M386 -12q-80 0 -139.5 28t-98.5 78.5t-58.5 119.5t-19.5 150t22 149.5t64 118t103.5 77.5t140.5 28q78 0 136.5 -27.5t97 -76t58 -114t19.5 -140.5q0 -89 -21 -161t-62.5 -123t-102 -79t-139.5 -28zM390 29q59 0 108.5 21.5t85.5 64.5t56.5 106.5t20.5 147.5
q0 78 -19 139t-54 102.5t-83.5 63.5t-106.5 22q-59 0 -109.5 -22t-88 -64.5t-58.5 -104.5t-21 -142t20 -142t55.5 -104.5t85 -65t108.5 -22.5zM397 827q37 0 60.5 16.5t31.5 59.5l45 -4q-7 -50 -40 -82t-98 -32q-62 0 -91.5 29.5t-35.5 83.5l44 5q8 -44 28 -60t56 -16z" />
    <glyph glyph-name="obreve" unicode="&#x14f;" horiz-adv-x="572" 
d="M284 -12q-63 0 -106 20.5t-69.5 56t-37.5 83.5t-11 104q0 124 61.5 195t175.5 71q57 0 97.5 -18t66.5 -51.5t38.5 -80t12.5 -103.5q0 -63 -12.5 -114t-40 -87t-71 -56t-104.5 -20zM288 33q39 0 71 12.5t54.5 39.5t34.5 70t12 104q0 60 -11.5 101t-33 66t-52.5 36t-70 11
q-41 0 -74.5 -13t-58 -39.5t-38 -67.5t-13.5 -97q0 -223 179 -223zM432 724q2 -66 -32 -108t-107 -42q-69 0 -100.5 37t-32.5 111l44 6q4 -66 25.5 -89t64.5 -23q45 0 69 23.5t26 88.5z" />
    <glyph glyph-name="Ohungarumlaut" unicode="&#x150;" horiz-adv-x="781" 
d="M386 -12q-80 0 -139.5 28t-98.5 78.5t-58.5 119.5t-19.5 150t22 149.5t64 118t103.5 77.5t140.5 28q78 0 136.5 -27.5t97 -76t58 -114t19.5 -140.5q0 -89 -21 -161t-62.5 -123t-102 -79t-139.5 -28zM390 29q59 0 108.5 21.5t85.5 64.5t56.5 106.5t20.5 147.5
q0 78 -19 139t-54 102.5t-83.5 63.5t-106.5 22q-59 0 -109.5 -22t-88 -64.5t-58.5 -104.5t-21 -142t20 -142t55.5 -104.5t85 -65t108.5 -22.5zM352 767l-39 13l76 131h70zM461 767l-42 14l104 134h72z" />
    <glyph glyph-name="ohungarumlaut" unicode="&#x151;" horiz-adv-x="572" 
d="M284 -12q-63 0 -106 20.5t-69.5 56t-37.5 83.5t-11 104q0 124 61.5 195t175.5 71q57 0 97.5 -18t66.5 -51.5t38.5 -80t12.5 -103.5q0 -63 -12.5 -114t-40 -87t-71 -56t-104.5 -20zM288 33q39 0 71 12.5t54.5 39.5t34.5 70t12 104q0 60 -11.5 101t-33 66t-52.5 36t-70 11
q-41 0 -74.5 -13t-58 -39.5t-38 -67.5t-13.5 -97q0 -223 179 -223zM238 572l-38 13l94 164h69zM352 572l-38 14l110 164h69z" />
    <glyph glyph-name="OE" unicode="&#x152;" horiz-adv-x="1114" 
d="M662 0v146q-41 -75 -108.5 -116.5t-167.5 -41.5q-80 0 -139.5 28t-98.5 78.5t-58.5 119.5t-19.5 150t22 149.5t64 118t103.5 77.5t141.5 28q94 0 158.5 -39t102.5 -104v130h392v-42h-350v-292h327v-43h-327v-305h358v-42h-400zM390 29q59 0 109 22t86 65t56 107t20 148
q0 77 -19.5 137.5t-54 102t-83 63.5t-106.5 22q-59 0 -109.5 -22t-88 -65t-58.5 -105t-21 -141t20 -141t55.5 -105t85 -65.5t108.5 -22.5z" />
    <glyph glyph-name="oe" unicode="&#x153;" horiz-adv-x="941" 
d="M680 -12q-81 0 -127 32t-69 84q-25 -54 -72 -85t-125 -31q-64 0 -107.5 20.5t-70 56t-38 83.5t-11.5 104q0 61 16 110.5t46.5 84t75 53t102.5 18.5q75 0 120.5 -31t67.5 -85q31 60 83.5 88t116.5 28q52 0 88.5 -16.5t60 -45t34 -66.5t10.5 -82q0 -16 -1 -32t-4 -32h-366
q1 -63 15.5 -103.5t38 -64t55 -32.5t67.5 -9q65 0 95.5 27t44.5 78l47 -9q-9 -38 -27.5 -65t-44 -44.5t-56.5 -25.5t-65 -8zM290 33q39 0 71 12.5t54 40t34 70.5t12 103t-11.5 100.5t-33 66t-52.5 36.5t-70 11q-41 0 -74.5 -13t-58 -39.5t-38 -67.5t-13.5 -97
q0 -223 180 -223zM830 287q2 91 -32 138.5t-113 47.5q-32 0 -62.5 -10.5t-54.5 -33t-39.5 -58t-18.5 -84.5h320z" />
    <glyph glyph-name="Racute" unicode="&#x154;" horiz-adv-x="637" 
d="M602 0h-53l-180 321h-210v-321h-47v724h223q67 0 112 -15t71 -41t37 -60.5t11 -73.5q0 -83 -41 -133t-110 -69zM329 363q42 0 76.5 8.5t58.5 28t37.5 52.5t13.5 83q0 46 -14.5 75t-41.5 45.5t-64 22t-82 5.5h-154v-320h170zM290 767l-42 14l104 130h73z" />
    <glyph glyph-name="racute" unicode="&#x155;" horiz-adv-x="339" 
d="M327 469q-23 3 -49 -0.5t-51 -11.5t-47 -21t-38 -29v-407h-49v508h39l5 -68q36 39 81.5 60.5t108.5 17.5v-49zM205 572l-42 14l113 165h72z" />
    <glyph glyph-name="Rcommaaccent" unicode="&#x156;" horiz-adv-x="637" 
d="M602 0h-53l-180 321h-210v-321h-47v724h223q67 0 112 -15t71 -41t37 -60.5t11 -73.5q0 -83 -41 -133t-110 -69zM329 363q42 0 76.5 8.5t58.5 28t37.5 52.5t13.5 83q0 46 -14.5 75t-41.5 45.5t-64 22t-82 5.5h-154v-320h170zM314 -69h66l-58 -147l-42 7z" />
    <glyph glyph-name="rcommaaccent" unicode="&#x157;" horiz-adv-x="339" 
d="M327 469q-23 3 -49 -0.5t-51 -11.5t-47 -21t-38 -29v-407h-49v508h39l5 -68q36 39 81.5 60.5t108.5 17.5v-49zM98 -69h66l-58 -147l-42 7z" />
    <glyph glyph-name="Rcaron" unicode="&#x158;" horiz-adv-x="637" 
d="M602 0h-53l-180 321h-210v-321h-47v724h223q67 0 112 -15t71 -41t37 -60.5t11 -73.5q0 -83 -41 -133t-110 -69zM329 363q42 0 76.5 8.5t58.5 28t37.5 52.5t13.5 83q0 46 -14.5 75t-41.5 45.5t-64 22t-82 5.5h-154v-320h170zM320 814l90 85l48 -11l-123 -116h-36l-123 116
l50 9z" />
    <glyph glyph-name="rcaron" unicode="&#x159;" horiz-adv-x="339" 
d="M327 469q-23 3 -49 -0.5t-51 -11.5t-47 -21t-38 -29v-407h-49v508h39l5 -68q36 39 81.5 60.5t108.5 17.5v-49zM113 744l96 -130l98 132l43 -9l-116 -165h-51l-121 165z" />
    <glyph glyph-name="Sacute" unicode="&#x15a;" horiz-adv-x="578" 
d="M298 694q-51 0 -85.5 -11.5t-55.5 -31t-30 -45.5t-9 -55q0 -37 12.5 -62t34 -42t52 -29t66.5 -22q42 -12 84.5 -25t77 -35.5t56.5 -58t22 -91.5q0 -54 -19.5 -91.5t-52.5 -61t-76.5 -34.5t-91.5 -11q-63 0 -107 15t-73.5 41t-46.5 62t-24 78l49 10q6 -30 18.5 -59
t35.5 -51.5t58.5 -36.5t88.5 -14q33 0 66 6t60 22.5t44 45.5t17 74q0 44 -17 72.5t-45.5 46.5t-64.5 29.5t-73 21.5q-39 10 -75.5 23.5t-65 35.5t-45.5 55.5t-17 83.5q0 43 16.5 77.5t46.5 59t72 38t94 13.5q94 0 152.5 -46.5t72.5 -152.5l-46 -5q-6 27 -15 55.5t-28 52
t-50.5 38.5t-82.5 15zM268 767l-42 14l104 130h73z" />
    <glyph glyph-name="sacute" unicode="&#x15b;" horiz-adv-x="477" 
d="M241 518q46 0 77 -11t50 -31t28.5 -48t12.5 -62l-47 -6q-3 27 -10 48.5t-21 36.5t-36.5 23t-56.5 8q-35 0 -58.5 -8t-37 -21t-19 -30t-5.5 -34q0 -27 10.5 -44.5t29 -29t43 -18t53.5 -12.5q30 -6 60.5 -14.5t54.5 -23.5t39 -40.5t15 -65.5q0 -64 -44 -105.5t-136 -41.5
q-80 0 -129.5 35t-61.5 121l47 9q5 -24 13 -45.5t24 -38.5t42 -27t67 -10q27 0 50 5.5t40 17.5t27 31t10 47q0 26 -9.5 43t-26.5 28.5t-40 18t-50 11.5q-32 6 -63.5 14t-57 23t-41.5 40.5t-16 67.5q0 35 14 61t38 43.5t55.5 26t65.5 8.5zM209 572l-42 14l113 165h72z" />
    <glyph glyph-name="Scircumflex" unicode="&#x15c;" horiz-adv-x="578" 
d="M298 694q-51 0 -85.5 -11.5t-55.5 -31t-30 -45.5t-9 -55q0 -37 12.5 -62t34 -42t52 -29t66.5 -22q42 -12 84.5 -25t77 -35.5t56.5 -58t22 -91.5q0 -54 -19.5 -91.5t-52.5 -61t-76.5 -34.5t-91.5 -11q-63 0 -107 15t-73.5 41t-46.5 62t-24 78l49 10q6 -30 18.5 -59
t35.5 -51.5t58.5 -36.5t88.5 -14q33 0 66 6t60 22.5t44 45.5t17 74q0 44 -17 72.5t-45.5 46.5t-64.5 29.5t-73 21.5q-39 10 -75.5 23.5t-65 35.5t-45.5 55.5t-17 83.5q0 43 16.5 77.5t46.5 59t72 38t94 13.5q94 0 152.5 -46.5t72.5 -152.5l-46 -5q-6 27 -15 55.5t-28 52
t-50.5 38.5t-82.5 15zM294 852l-90 -85l-48 11l123 116h36l123 -116l-50 -9z" />
    <glyph glyph-name="scircumflex" unicode="&#x15d;" horiz-adv-x="477" 
d="M241 518q46 0 77 -11t50 -31t28.5 -48t12.5 -62l-47 -6q-3 27 -10 48.5t-21 36.5t-36.5 23t-56.5 8q-35 0 -58.5 -8t-37 -21t-19 -30t-5.5 -34q0 -27 10.5 -44.5t29 -29t43 -18t53.5 -12.5q30 -6 60.5 -14.5t54.5 -23.5t39 -40.5t15 -65.5q0 -64 -44 -105.5t-136 -41.5
q-80 0 -129.5 35t-61.5 121l47 9q5 -24 13 -45.5t24 -38.5t42 -27t67 -10q27 0 50 5.5t40 17.5t27 31t10 47q0 26 -9.5 43t-26.5 28.5t-40 18t-50 11.5q-32 6 -63.5 14t-57 23t-41.5 40.5t-16 67.5q0 35 14 61t38 43.5t55.5 26t65.5 8.5zM341 579l-101 129l-95 -132l-45 9
l116 165h50l122 -165z" />
    <glyph glyph-name="Scedilla" unicode="&#x15e;" horiz-adv-x="578" 
d="M217 -159q8 -6 23.5 -12.5t33.5 -6.5q27 0 39.5 15t12.5 35q0 26 -17.5 40t-63.5 15l8 62q-54 4 -93 20t-65 42t-41 60t-22 73l49 10q6 -30 18.5 -59t35.5 -51.5t58.5 -36.5t88.5 -14q33 0 66 6t60 22.5t44 45.5t17 74q0 44 -17 72.5t-45.5 46.5t-64.5 29.5t-73 21.5
q-39 10 -75.5 23.5t-65 35.5t-45.5 55.5t-17 83.5q0 43 16.5 77.5t46.5 59t72 38t94 13.5q94 0 152.5 -46.5t72.5 -152.5l-46 -5q-6 27 -15 55.5t-28 52t-50.5 38.5t-82.5 15t-85.5 -11.5t-55.5 -31t-30 -45.5t-9 -55q0 -37 12.5 -62t34 -42t52 -29t66.5 -22
q42 -12 84.5 -25t77 -35.5t56.5 -58t22 -91.5q0 -53 -19 -90t-50.5 -60.5t-73.5 -35t-88 -12.5l-4 -31q16 -2 31 -7.5t27 -15t19 -24.5t7 -36q0 -40 -27 -65.5t-68 -25.5q-29 0 -48 8t-27 16z" />
    <glyph glyph-name="scedilla" unicode="&#x15f;" horiz-adv-x="477" 
d="M181 -159q8 -6 23.5 -12.5t33.5 -6.5q27 0 39.5 15t12.5 35q0 26 -17.5 40t-63.5 15l8 62q-69 5 -111.5 40t-53.5 115l47 9q5 -24 13 -45.5t24 -38.5t42 -27t67 -10q27 0 50 5.5t40 17.5t27 31t10 47q0 26 -9.5 43t-26.5 28.5t-40 18t-50 11.5q-32 6 -63.5 14t-57 23
t-41.5 40.5t-16 67.5q0 35 14 61t38 43.5t55.5 26t65.5 8.5q46 0 77 -11t50 -31t28.5 -48t12.5 -62l-47 -6q-3 27 -10 48.5t-21 36.5t-36.5 23t-56.5 8q-35 0 -58.5 -8t-37 -21t-19 -30t-5.5 -34q0 -27 10.5 -44.5t29 -29t43 -18t53.5 -12.5q30 -6 60.5 -14.5t54.5 -23.5
t39 -40.5t15 -65.5q0 -62 -41 -102.5t-126 -44.5l-4 -31q16 -2 31 -7.5t27 -15t19 -24.5t7 -36q0 -40 -27 -65.5t-68 -25.5q-29 0 -48 8t-27 16z" />
    <glyph glyph-name="Scaron" unicode="&#x160;" horiz-adv-x="578" 
d="M298 694q-51 0 -85.5 -11.5t-55.5 -31t-30 -45.5t-9 -55q0 -37 12.5 -62t34 -42t52 -29t66.5 -22q42 -12 84.5 -25t77 -35.5t56.5 -58t22 -91.5q0 -54 -19.5 -91.5t-52.5 -61t-76.5 -34.5t-91.5 -11q-63 0 -107 15t-73.5 41t-46.5 62t-24 78l49 10q6 -30 18.5 -59
t35.5 -51.5t58.5 -36.5t88.5 -14q33 0 66 6t60 22.5t44 45.5t17 74q0 44 -17 72.5t-45.5 46.5t-64.5 29.5t-73 21.5q-39 10 -75.5 23.5t-65 35.5t-45.5 55.5t-17 83.5q0 43 16.5 77.5t46.5 59t72 38t94 13.5q94 0 152.5 -46.5t72.5 -152.5l-46 -5q-6 27 -15 55.5t-28 52
t-50.5 38.5t-82.5 15zM298 814l90 85l48 -11l-123 -116h-36l-123 116l50 9z" />
    <glyph glyph-name="scaron" unicode="&#x161;" horiz-adv-x="477" 
d="M241 518q46 0 77 -11t50 -31t28.5 -48t12.5 -62l-47 -6q-3 27 -10 48.5t-21 36.5t-36.5 23t-56.5 8q-35 0 -58.5 -8t-37 -21t-19 -30t-5.5 -34q0 -27 10.5 -44.5t29 -29t43 -18t53.5 -12.5q30 -6 60.5 -14.5t54.5 -23.5t39 -40.5t15 -65.5q0 -64 -44 -105.5t-136 -41.5
q-80 0 -129.5 35t-61.5 121l47 9q5 -24 13 -45.5t24 -38.5t42 -27t67 -10q27 0 50 5.5t40 17.5t27 31t10 47q0 26 -9.5 43t-26.5 28.5t-40 18t-50 11.5q-32 6 -63.5 14t-57 23t-41.5 40.5t-16 67.5q0 35 14 61t38 43.5t55.5 26t65.5 8.5zM146 744l96 -130l98 132l43 -9
l-116 -165h-51l-121 165z" />
    <glyph glyph-name="Scommaaccent" unicode="&#x218;" horiz-adv-x="578" 
d="M298 694q-51 0 -85.5 -11.5t-55.5 -31t-30 -45.5t-9 -55q0 -37 12.5 -62t34 -42t52 -29t66.5 -22q42 -12 84.5 -25t77 -35.5t56.5 -58t22 -91.5q0 -54 -19.5 -91.5t-52.5 -61t-76.5 -34.5t-91.5 -11q-63 0 -107 15t-73.5 41t-46.5 62t-24 78l49 10q6 -30 18.5 -59
t35.5 -51.5t58.5 -36.5t88.5 -14q33 0 66 6t60 22.5t44 45.5t17 74q0 44 -17 72.5t-45.5 46.5t-64.5 29.5t-73 21.5q-39 10 -75.5 23.5t-65 35.5t-45.5 55.5t-17 83.5q0 43 16.5 77.5t46.5 59t72 38t94 13.5q94 0 152.5 -46.5t72.5 -152.5l-46 -5q-6 27 -15 55.5t-28 52
t-50.5 38.5t-82.5 15zM268 -69h66l-58 -147l-42 7z" />
    <glyph glyph-name="scommaaccent" unicode="&#x219;" horiz-adv-x="477" 
d="M241 518q46 0 77 -11t50 -31t28.5 -48t12.5 -62l-47 -6q-3 27 -10 48.5t-21 36.5t-36.5 23t-56.5 8q-35 0 -58.5 -8t-37 -21t-19 -30t-5.5 -34q0 -27 10.5 -44.5t29 -29t43 -18t53.5 -12.5q30 -6 60.5 -14.5t54.5 -23.5t39 -40.5t15 -65.5q0 -64 -44 -105.5t-136 -41.5
q-80 0 -129.5 35t-61.5 121l47 9q5 -24 13 -45.5t24 -38.5t42 -27t67 -10q27 0 50 5.5t40 17.5t27 31t10 47q0 26 -9.5 43t-26.5 28.5t-40 18t-50 11.5q-32 6 -63.5 14t-57 23t-41.5 40.5t-16 67.5q0 35 14 61t38 43.5t55.5 26t65.5 8.5zM220 -69h66l-58 -147l-42 7z" />
    <glyph glyph-name="uni0162" unicode="&#x162;" horiz-adv-x="532" 
d="M208 -159q8 -6 23.5 -12.5t33.5 -6.5q27 0 39.5 15t12.5 35q0 26 -17.5 40t-63.5 15l10 73h-4v682h-222v42h492v-42h-222v-682h-5l-6 -43q16 -2 31 -7.5t27 -15t19 -24.5t7 -36q0 -40 -27 -65.5t-68 -25.5q-29 0 -48 8t-27 16z" />
    <glyph glyph-name="uni0163" unicode="&#x163;" horiz-adv-x="364" 
d="M148 -159q8 -6 23.5 -12.5t33.5 -6.5q27 0 39.5 15t12.5 35q0 26 -17.5 40t-63.5 15l9 66q-43 10 -61 39.5t-18 83.5v349h-81v43h81v145l49 8v-153h144v-43h-144v-339q0 -23 3.5 -41t12.5 -30.5t25 -19t42 -6.5q23 0 49 8t43 19l14 -38q-18 -13 -50 -21.5t-59 -8.5h-12
l-4 -31q16 -2 31 -7.5t27 -15t19 -24.5t7 -36q0 -40 -27 -65.5t-68 -25.5q-29 0 -48 8t-27 16z" />
    <glyph glyph-name="Tcaron" unicode="&#x164;" horiz-adv-x="532" 
d="M242 0v682h-222v42h492v-42h-222v-682h-48zM269 814l90 85l48 -11l-123 -116h-36l-123 116l50 9z" />
    <glyph glyph-name="tcaron" unicode="&#x165;" horiz-adv-x="364" 
d="M344 18q-18 -13 -50 -21.5t-59 -8.5q-71 0 -100 30.5t-29 97.5v349h-81v43h81v145l49 8v-153h144v-43h-144v-339q0 -23 3.5 -41t12.5 -30.5t25 -19t42 -6.5q23 0 49 8t43 19zM259 755h64l-59 -197l-38 8z" />
    <glyph glyph-name="Tbar" unicode="&#x166;" horiz-adv-x="532" 
d="M242 0v352h-146v44h146v286h-222v42h492v-42h-222v-286h146v-44h-146v-352h-48z" />
    <glyph glyph-name="tbar" unicode="&#x167;" horiz-adv-x="364" 
d="M344 18q-18 -13 -50 -21.5t-59 -8.5q-71 0 -100 30.5t-29 97.5v146h-81v43h81v160h-81v43h81v145l49 8v-153h144v-43h-144v-160h144v-43h-144v-136q0 -23 3.5 -41t12.5 -30.5t25 -19t42 -6.5q23 0 49 8t43 19z" />
    <glyph glyph-name="uni021A" unicode="&#x21a;" horiz-adv-x="532" 
d="M242 0v682h-222v42h492v-42h-222v-682h-48zM241 -69h66l-58 -147l-42 7z" />
    <glyph glyph-name="uni021B" unicode="&#x21b;" horiz-adv-x="364" 
d="M344 18q-18 -13 -50 -21.5t-59 -8.5q-71 0 -100 30.5t-29 97.5v349h-81v43h81v145l49 8v-153h144v-43h-144v-339q0 -23 3.5 -41t12.5 -30.5t25 -19t42 -6.5q23 0 49 8t43 19zM193 -69h66l-58 -147l-42 7z" />
    <glyph glyph-name="Utilde" unicode="&#x168;" horiz-adv-x="718" 
d="M360 32q47 0 84.5 9.5t63.5 32.5t40 61t14 95v494h48v-496q0 -120 -65 -180t-191 -60q-132 0 -189 63t-57 177v496h48v-492q0 -57 14.5 -95t41.5 -61.5t64.5 -33.5t83.5 -10zM281 877q23 0 43.5 -7t39 -15.5t36 -15.5t34.5 -7q20 0 31.5 9.5t11.5 48.5l38 -2
q4 -31 -2 -50.5t-17 -31t-26.5 -16t-31.5 -4.5q-22 0 -42 7t-39.5 16t-38 16t-36.5 7q-16 0 -28 -11.5t-11 -48.5l-36 2q-4 30 1.5 50t17 31.5t26 16.5t29.5 5z" />
    <glyph glyph-name="utilde" unicode="&#x169;" horiz-adv-x="581" 
d="M90 508h49v-340q0 -63 23.5 -98t87.5 -35q27 0 55 8t52.5 20t45 25.5t32.5 25.5v394h49v-508h-43l-3 65q-45 -32 -91 -53.5t-106 -21.5q-83 0 -117 45t-34 132v341zM206 699q23 0 43.5 -7t39 -15.5t36 -15.5t34.5 -7q20 0 31.5 9.5t11.5 48.5l38 -2q4 -31 -2 -50.5
t-17 -31t-26.5 -16t-31.5 -4.5q-22 0 -42 7t-39.5 16t-38 16t-36.5 7q-16 0 -28 -11.5t-11 -48.5l-36 2q-4 30 1.5 50t17 31.5t26 16.5t29.5 5z" />
    <glyph glyph-name="Umacron" unicode="&#x16a;" horiz-adv-x="718" 
d="M360 32q47 0 84.5 9.5t63.5 32.5t40 61t14 95v494h48v-496q0 -120 -65 -180t-191 -60q-132 0 -189 63t-57 177v496h48v-492q0 -57 14.5 -95t41.5 -61.5t64.5 -33.5t83.5 -10zM209 800v45h300v-45h-300z" />
    <glyph glyph-name="umacron" unicode="&#x16b;" horiz-adv-x="581" 
d="M90 508h49v-340q0 -63 23.5 -98t87.5 -35q27 0 55 8t52.5 20t45 25.5t32.5 25.5v394h49v-508h-43l-3 65q-45 -32 -91 -53.5t-106 -21.5q-83 0 -117 45t-34 132v341zM148 645v45h277v-45h-277z" />
    <glyph glyph-name="Ubreve" unicode="&#x16c;" horiz-adv-x="718" 
d="M360 32q47 0 84.5 9.5t63.5 32.5t40 61t14 95v494h48v-496q0 -120 -65 -180t-191 -60q-132 0 -189 63t-57 177v496h48v-492q0 -57 14.5 -95t41.5 -61.5t64.5 -33.5t83.5 -10zM360 827q37 0 60.5 16.5t31.5 59.5l45 -4q-7 -50 -40 -82t-98 -32q-62 0 -91.5 29.5
t-35.5 83.5l44 5q8 -44 28 -60t56 -16z" />
    <glyph glyph-name="ubreve" unicode="&#x16d;" horiz-adv-x="581" 
d="M90 508h49v-340q0 -63 23.5 -98t87.5 -35q27 0 55 8t52.5 20t45 25.5t32.5 25.5v394h49v-508h-43l-3 65q-45 -32 -91 -53.5t-106 -21.5q-83 0 -117 45t-34 132v341zM425 724q2 -66 -32 -108t-107 -42q-69 0 -100.5 37t-32.5 111l44 6q4 -66 25.5 -89t64.5 -23
q45 0 69 23.5t26 88.5z" />
    <glyph glyph-name="Uring" unicode="&#x16e;" horiz-adv-x="718" 
d="M360 32q47 0 84.5 9.5t63.5 32.5t40 61t14 95v494h48v-496q0 -120 -65 -180t-191 -60q-132 0 -189 63t-57 177v496h48v-492q0 -57 14.5 -95t41.5 -61.5t64.5 -33.5t83.5 -10zM461 833q0 -46 -27 -72t-75 -26q-46 0 -73.5 24.5t-27.5 67.5q0 50 30 74.5t71 24.5
q42 0 72 -21.5t30 -71.5zM359 773q29 0 42 17t13 43q0 55 -55 55q-25 0 -41 -15t-16 -44q0 -26 14 -41t43 -15z" />
    <glyph glyph-name="uring" unicode="&#x16f;" horiz-adv-x="581" 
d="M90 508h49v-340q0 -63 23.5 -98t87.5 -35q27 0 55 8t52.5 20t45 25.5t32.5 25.5v394h49v-508h-43l-3 65q-45 -32 -91 -53.5t-106 -21.5q-83 0 -117 45t-34 132v341zM389 674q0 -46 -27 -72t-75 -26q-46 0 -73.5 24.5t-27.5 67.5q0 50 30 74.5t71 24.5q42 0 72 -21.5
t30 -71.5zM287 614q29 0 42 17t13 43q0 55 -55 55q-25 0 -41 -15t-16 -44q0 -26 14 -41t43 -15z" />
    <glyph glyph-name="Uhungarumlaut" unicode="&#x170;" horiz-adv-x="718" 
d="M360 32q47 0 84.5 9.5t63.5 32.5t40 61t14 95v494h48v-496q0 -120 -65 -180t-191 -60q-132 0 -189 63t-57 177v496h48v-492q0 -57 14.5 -95t41.5 -61.5t64.5 -33.5t83.5 -10zM315 767l-39 13l76 131h70zM424 767l-42 14l104 134h72z" />
    <glyph glyph-name="uhungarumlaut" unicode="&#x171;" horiz-adv-x="581" 
d="M90 508h49v-340q0 -63 23.5 -98t87.5 -35q27 0 55 8t52.5 20t45 25.5t32.5 25.5v394h49v-508h-43l-3 65q-45 -32 -91 -53.5t-106 -21.5q-83 0 -117 45t-34 132v341zM231 572l-38 13l94 164h69zM345 572l-38 14l110 164h69z" />
    <glyph glyph-name="Uogonek" unicode="&#x172;" horiz-adv-x="718" 
d="M529 -160q-17 -34 -46.5 -48.5t-56.5 -14.5q-36 0 -62 20.5t-26 59.5q0 42 22.5 76t48.5 59q-14 -2 -27.5 -3t-27.5 -1q-132 0 -189 63t-57 177v496h48v-492q0 -57 14.5 -95t41.5 -61.5t64.5 -33.5t83.5 -10q47 0 84.5 9.5t63.5 32.5t40 61t14 95v494h48v-496
q0 -82 -28.5 -131.5t-83.5 -84.5q-45 -29 -75.5 -67.5t-30.5 -80.5q0 -19 11 -31t31 -12q36 0 59 39z" />
    <glyph glyph-name="uogonek" unicode="&#x173;" horiz-adv-x="581" 
d="M543 -160q-17 -34 -46.5 -48.5t-56.5 -14.5q-36 0 -62 20.5t-26 59.5q0 25 8.5 47t21.5 40.5t28.5 34.5t29.5 28l-2 58q-45 -32 -91 -53.5t-106 -21.5q-83 0 -117 45t-34 132v341h49v-340q0 -63 23.5 -98t87.5 -35q27 0 55 8t52.5 20t45 25.5t32.5 25.5v394h49v-508
q-38 -34 -58 -64t-20 -72q0 -19 11 -31t31 -12q36 0 59 39z" />
    <glyph glyph-name="Wcircumflex" unicode="&#x174;" horiz-adv-x="870" 
d="M615 0l-174 673h-3l-184 -673h-57l-157 724h51l137 -661h2l178 661h63l175 -673h2l135 673h47l-150 -724h-65zM439 852l-90 -85l-48 11l123 116h36l123 -116l-50 -9z" />
    <glyph glyph-name="wcircumflex" unicode="&#x175;" horiz-adv-x="721" 
d="M179 0l-166 508h51l144 -459h2l123 459h62l122 -457h2l143 457h46l-163 -508h-61l-119 458h-2l-125 -458h-59zM464 579l-101 129l-95 -132l-45 9l116 165h50l122 -165z" />
    <glyph glyph-name="Wgrave" unicode="&#x1e80;" horiz-adv-x="870" 
d="M615 0l-174 673h-3l-184 -673h-57l-157 724h51l137 -661h2l178 661h63l175 -673h2l135 673h47l-150 -724h-65zM336 911h73l105 -130l-43 -14z" />
    <glyph glyph-name="wgrave" unicode="&#x1e81;" horiz-adv-x="721" 
d="M179 0l-166 508h51l144 -459h2l123 459h62l122 -457h2l143 457h46l-163 -508h-61l-119 458h-2l-125 -458h-59zM258 751h72l113 -165l-41 -14z" />
    <glyph glyph-name="Wacute" unicode="&#x1e82;" horiz-adv-x="870" 
d="M615 0l-174 673h-3l-184 -673h-57l-157 724h51l137 -661h2l178 661h63l175 -673h2l135 673h47l-150 -724h-65zM413 767l-42 14l104 130h73z" />
    <glyph glyph-name="wacute" unicode="&#x1e83;" horiz-adv-x="721" 
d="M179 0l-166 508h51l144 -459h2l123 459h62l122 -457h2l143 457h46l-163 -508h-61l-119 458h-2l-125 -458h-59zM332 572l-42 14l113 165h72z" />
    <glyph glyph-name="Wdieresis" unicode="&#x1e84;" horiz-adv-x="870" 
d="M615 0l-174 673h-3l-184 -673h-57l-157 724h51l137 -661h2l178 661h63l175 -673h2l135 673h47l-150 -724h-65zM389 826q0 -20 -12 -31t-32 -11q-21 0 -33 11t-12 31t12 31t33 11q20 0 32 -11t12 -31zM580 826q0 -20 -12 -31t-32 -11t-32.5 11t-12.5 31t12.5 31t32.5 11
t32 -11t12 -31z" />
    <glyph glyph-name="wdieresis" unicode="&#x1e85;" horiz-adv-x="721" 
d="M179 0l-166 508h51l144 -459h2l123 459h62l122 -457h2l143 457h46l-163 -508h-61l-119 458h-2l-125 -458h-59zM312 665q0 -20 -12 -31t-32 -11q-21 0 -33 11t-12 31t12 31t33 11q20 0 32 -11t12 -31zM503 665q0 -20 -12 -31t-32 -11t-32.5 11t-12.5 31t12.5 31t32.5 11
t32 -11t12 -31z" />
    <glyph glyph-name="Ygrave" unicode="&#x1ef2;" horiz-adv-x="538" 
d="M297 0h-48v287l-245 437h54l216 -384h1l210 384h49l-237 -433v-291zM164 911h73l105 -130l-43 -14z" />
    <glyph glyph-name="ygrave" unicode="&#x1ef3;" horiz-adv-x="457" 
d="M17 508h52l159 -441h1l163 441h52q-27 -69 -56.5 -146t-59.5 -155.5t-59.5 -155.5t-56.5 -146q-15 -37 -31 -61.5t-34.5 -39.5t-40 -21t-45.5 -6q-27 0 -50 6.5t-37 11.5l10 41q11 -5 34 -10.5t46 -5.5q16 0 30.5 4.5t28 16t25.5 31.5t24 51l29 77zM116 751h72l113 -165
l-41 -14z" />
    <glyph glyph-name="Ycircumflex" unicode="&#x176;" horiz-adv-x="538" 
d="M297 0h-48v287l-245 437h54l216 -384h1l210 384h49l-237 -433v-291zM272 852l-90 -85l-48 11l123 116h36l123 -116l-50 -9z" />
    <glyph glyph-name="ycircumflex" unicode="&#x177;" horiz-adv-x="457" 
d="M17 508h52l159 -441h1l163 441h52q-27 -69 -56.5 -146t-59.5 -155.5t-59.5 -155.5t-56.5 -146q-15 -37 -31 -61.5t-34.5 -39.5t-40 -21t-45.5 -6q-27 0 -50 6.5t-37 11.5l10 41q11 -5 34 -10.5t46 -5.5q16 0 30.5 4.5t28 16t25.5 31.5t24 51l29 77zM336 579l-101 129
l-95 -132l-45 9l116 165h50l122 -165z" />
    <glyph glyph-name="Ydieresis" unicode="&#x178;" horiz-adv-x="538" 
d="M297 0h-48v287l-245 437h54l216 -384h1l210 384h49l-237 -433v-291zM222 826q0 -20 -12 -31t-32 -11q-21 0 -33 11t-12 31t12 31t33 11q20 0 32 -11t12 -31zM413 826q0 -20 -12 -31t-32 -11t-32.5 11t-12.5 31t12.5 31t32.5 11t32 -11t12 -31z" />
    <glyph glyph-name="Zacute" unicode="&#x179;" horiz-adv-x="585" 
d="M100 42h436v-42h-497v34l417 648h-404v42h467v-35zM254 767l-42 14l104 130h73z" />
    <glyph glyph-name="zacute" unicode="&#x17a;" horiz-adv-x="454" 
d="M92 40h334v-40h-393v33l323 433h-317v42h377v-34zM195 572l-42 14l113 165h72z" />
    <glyph glyph-name="Zdotaccent" unicode="&#x17b;" horiz-adv-x="585" 
d="M100 42h436v-42h-497v34l417 648h-404v42h467v-35zM327 826q0 -42 -46 -42t-46 42q0 43 46 43t46 -43z" />
    <glyph glyph-name="zdotaccent" unicode="&#x17c;" horiz-adv-x="454" 
d="M92 40h334v-40h-393v33l323 433h-317v42h377v-34zM273 677q0 -42 -46 -42t-46 42q0 43 46 43t46 -43z" />
    <glyph glyph-name="Zcaron" unicode="&#x17d;" horiz-adv-x="585" 
d="M100 42h436v-42h-497v34l417 648h-404v42h467v-35zM284 814l90 85l48 -11l-123 -116h-36l-123 116l50 9z" />
    <glyph glyph-name="zcaron" unicode="&#x17e;" horiz-adv-x="454" 
d="M92 40h334v-40h-393v33l323 433h-317v42h377v-34zM132 744l96 -130l98 132l43 -9l-116 -165h-51l-121 165z" />
    <glyph glyph-name="longs" unicode="&#x17f;" horiz-adv-x="269" 
d="M295 708q-15 5 -35 9t-38 4q-35 0 -57.5 -20.5t-22.5 -74.5v-626h-49v610q0 75 30.5 114t95.5 39q26 0 46 -4.5t33 -10.5z" />
    <glyph glyph-name="dotlessj" unicode="&#x237;" horiz-adv-x="233" 
d="M26 -223q-6 0 -17 1t-22 3t-22 5t-17 6l9 43q17 -6 36 -9t35 -3q33 0 50.5 19.5t17.5 64.5v601h49v-597q0 -69 -28.5 -101.5t-90.5 -32.5z" />
    <glyph glyph-name="s_t" unicode="&#xfb06;" horiz-adv-x="814" 
d="M242 518q46 0 77 -11t50 -31t28.5 -48t12.5 -62l-47 -6q-3 27 -10 48.5t-21 36.5t-36.5 23t-56.5 8q-35 0 -58.5 -8t-37 -21t-19 -30t-5.5 -34q0 -27 10.5 -44.5t29 -29t43 -18t53.5 -12.5q30 -6 60.5 -14.5t54.5 -23.5t39 -40.5t15 -65.5q0 -64 -44 -105.5t-136 -41.5
q-80 0 -129.5 35t-61.5 121l47 9q5 -24 13 -45.5t24 -38.5t42 -27t67 -10q27 0 50 5.5t40 17.5t27 31t10 47q0 26 -9.5 43t-26.5 28.5t-40 18t-50 11.5q-32 6 -63.5 14t-57 23t-41.5 40.5t-16 67.5q0 35 14 61t38 43.5t55.5 26t65.5 8.5zM794 18q-18 -13 -50 -21.5t-59 -8.5
q-71 0 -100 30.5t-29 97.5v537l49 8v-153h144v-43h-144v-339q0 -23 3.5 -41t12.5 -30.5t25 -19t42 -6.5q23 0 49 8t43 19z" />
    <glyph glyph-name="s_p" horiz-adv-x="1037" 
d="M552 508h43l4 -65q15 13 35 26.5t43.5 24t51 17.5t58.5 7q40 0 73.5 -13t58.5 -42.5t39 -77.5t14 -118q0 -74 -17 -127t-46.5 -86.5t-68.5 -49.5t-82 -16q-48 0 -89 18t-70 38v-256h-47v720zM601 93q10 -8 25.5 -18.5t35 -20t44 -16t52.5 -6.5q44 0 75 17.5t50.5 49
t28.5 76t9 97.5q0 112 -34.5 158.5t-108.5 46.5q-27 0 -53 -7.5t-49 -19.5t-42.5 -26.5t-32.5 -28.5v-302zM242 518q46 0 77 -11t50 -31t28.5 -48t12.5 -62l-47 -6q-3 27 -10 48.5t-21 36.5t-36.5 23t-56.5 8q-35 0 -58.5 -8t-37 -21t-19 -30t-5.5 -34q0 -27 10.5 -44.5
t29 -29t43 -18t53.5 -12.5q30 -6 60.5 -14.5t54.5 -23.5t39 -40.5t15 -65.5q0 -64 -44 -105.5t-136 -41.5q-80 0 -129.5 35t-61.5 121l47 9q5 -24 13 -45.5t24 -38.5t42 -27t67 -10q27 0 50 5.5t40 17.5t27 31t10 47q0 26 -9.5 43t-26.5 28.5t-40 18t-50 11.5
q-32 6 -63.5 14t-57 23t-41.5 40.5t-16 67.5q0 35 14 61t38 43.5t55.5 26t65.5 8.5z" />
    <glyph glyph-name="c_t" horiz-adv-x="858" 
d="M285 -12q-63 0 -106 19.5t-69.5 54.5t-38 83.5t-11.5 106.5q0 135 62 200.5t174 65.5q36 0 68 -10.5t56 -31t39 -51.5t17 -72l-53 -6q-7 66 -39 97t-94 31q-32 0 -64 -10t-57.5 -35t-41.5 -66.5t-16 -104.5q0 -68 15 -111.5t39.5 -69t55.5 -35t63 -9.5q59 0 97 28t49 88
l50 -10q-7 -41 -26 -70t-45.5 -47t-58.5 -26.5t-65 -8.5zM838 18q-18 -13 -50 -21.5t-59 -8.5q-71 0 -100 30.5t-29 97.5v537l49 8v-153h144v-43h-144v-339q0 -23 3.5 -41t12.5 -30.5t25 -19t42 -6.5q23 0 49 8t43 19z" />
    <glyph glyph-name="c_h" horiz-adv-x="1093" 
d="M1005 0h-49v340q0 63 -24.5 97.5t-89.5 34.5q-27 0 -55 -8t-52.5 -19.5t-45 -25t-32.5 -25.5v-394h-49v755h49v-312q45 32 93 53.5t101 21.5q81 0 117.5 -45t36.5 -131v-342zM285 -12q-63 0 -106 19.5t-69.5 54.5t-38 83.5t-11.5 106.5q0 135 62 200.5t174 65.5
q36 0 68 -10.5t56 -31t39 -51.5t17 -72l-53 -6q-7 66 -39 97t-94 31q-32 0 -64 -10t-57.5 -35t-41.5 -66.5t-16 -104.5q0 -68 15 -111.5t39.5 -69t55.5 -35t63 -9.5q59 0 97 28t49 88l50 -10q-7 -41 -26 -70t-45.5 -47t-58.5 -26.5t-65 -8.5z" />
    <glyph glyph-name="c_k" horiz-adv-x="1020" 
d="M285 -12q-63 0 -106 19.5t-69.5 54.5t-38 83.5t-11.5 106.5q0 135 62 200.5t174 65.5q36 0 68 -10.5t56 -31t39 -51.5t17 -72l-53 -6q-7 66 -39 97t-94 31q-32 0 -64 -10t-57.5 -35t-41.5 -66.5t-16 -104.5q0 -68 15 -111.5t39.5 -69t55.5 -35t63 -9.5q59 0 97 28t49 88
l50 -10q-7 -41 -26 -70t-45.5 -47t-58.5 -26.5t-65 -8.5zM658 245l254 263h59l-180 -187l193 -321h-53l-175 286l-98 -99v-187h-49v755h49v-510z" />
    <glyph glyph-name="T_h" horiz-adv-x="1016" 
d="M928 0h-49v340q0 63 -24.5 97.5t-89.5 34.5q-27 0 -55 -8t-52.5 -19.5t-45 -25t-32.5 -25.5v-394h-49v682h-241v-682h-48v682h-222v42h511v31h49v-312q45 32 93 53.5t101 21.5q81 0 117.5 -45t36.5 -131v-342z" />
    <glyph glyph-name="a.smcp" horiz-adv-x="544" 
d="M304 548l194 -548h-54l-61 176h-228l-61 -176h-48l193 548h65zM270 510l-99 -289h197z" />
    <glyph glyph-name="b.smcp" horiz-adv-x="503" 
d="M93 0v548h182q49 0 82 -10.5t52 -28.5t27 -42.5t8 -52.5q0 -30 -9.5 -52t-25.5 -37.5t-37.5 -25t-45.5 -13.5v-2q70 -10 102.5 -45t32.5 -91q0 -42 -15 -70.5t-42 -46t-65 -24.5t-83 -7h-163zM253 44q33 0 61.5 3.5t50 14.5t33.5 31.5t12 55.5q0 37 -14.5 59t-40 33
t-59 14.5t-70.5 3.5h-85v-215h112zM239 301q24 0 50.5 4.5t49 16.5t37.5 33t15 54q0 34 -10 53t-31 28.5t-52.5 12t-74.5 2.5h-82v-204h98z" />
    <glyph glyph-name="c.smcp" horiz-adv-x="559" 
d="M294 -9q-65 0 -110.5 20t-74.5 56t-42.5 86.5t-13.5 110.5q0 71 19 126t52.5 92.5t81 56.5t104.5 19q85 0 140 -43.5t63 -134.5l-47 -5q-10 67 -46 103t-111 36q-97 0 -152 -61.5t-55 -182.5q0 -125 51.5 -180.5t142.5 -55.5q72 0 112 29.5t56 95.5l44 -10
q-8 -44 -29 -74t-50 -48.5t-64 -27t-71 -8.5z" />
    <glyph glyph-name="d.smcp" horiz-adv-x="585" 
d="M93 0v548h161q73 0 125 -18.5t86 -53t50 -84t16 -110.5q0 -63 -17 -114.5t-53 -89t-90.5 -58t-129.5 -20.5h-148zM245 43q115 0 175 59.5t60 168.5q0 68 -16 113t-45.5 72t-72.5 38t-97 11h-107v-462h103z" />
    <glyph glyph-name="e.smcp" horiz-adv-x="463" 
d="M142 44h273v-44h-322v548h315v-44h-266v-204h248v-45h-248v-211z" />
    <glyph glyph-name="f.smcp" horiz-adv-x="442" 
d="M142 0h-49v548h315v-44h-266v-214h247v-45h-247v-245z" />
    <glyph glyph-name="g.smcp" horiz-adv-x="587" 
d="M465 77q-7 -17 -23 -32.5t-39 -27.5t-51 -19t-59 -7q-63 0 -108.5 19.5t-75 55.5t-43 87.5t-13.5 114.5q0 71 18 125.5t52 91t81.5 55t106.5 18.5q86 0 139.5 -42.5t61.5 -138.5l-47 -4q-8 78 -48 109.5t-108 31.5q-96 0 -151 -63t-55 -179q0 -71 15.5 -117.5t42 -73.5
t62 -37.5t76.5 -10.5q42 0 73 12.5t52 34t31.5 49.5t10.5 59v52h-171v43h215v-283h-36z" />
    <glyph glyph-name="h.smcp" horiz-adv-x="582" 
d="M490 0h-50v258h-298v-258h-49v548h49v-245h298v245h50v-548z" />
    <glyph glyph-name="i.smcp" horiz-adv-x="235" 
d="M142 0h-49v548h49v-548z" />
    <glyph glyph-name="j.smcp" horiz-adv-x="395" 
d="M262 548h49v-405q0 -45 -11 -74t-31 -46.5t-47 -24.5t-59 -7q-68 0 -99 36t-34 94l47 7q2 -18 6.5 -35t14 -30t26 -21t43.5 -8q19 0 36.5 4.5t30.5 16t20.5 31.5t7.5 51v411z" />
    <glyph glyph-name="k.smcp" horiz-adv-x="508" 
d="M142 267l267 281h59l-228 -239l245 -309h-59l-219 272l-65 -67v-205h-49v548h49v-281z" />
    <glyph glyph-name="l.smcp" horiz-adv-x="441" 
d="M142 44h257v-44h-306v548h49v-504z" />
    <glyph glyph-name="m.smcp" horiz-adv-x="709" 
d="M616 0h-47v492l-186 -492h-59l-185 493v-493h-46v548h76l186 -500l186 500h75v-548z" />
    <glyph glyph-name="n.smcp" horiz-adv-x="598" 
d="M442 0l-302 495v-495h-47v548h71l295 -487v487h46v-548h-63z" />
    <glyph glyph-name="o.smcp" horiz-adv-x="607" 
d="M301 -9q-63 0 -110 21t-77.5 59t-45.5 90t-15 114q0 61 17 113t50 89.5t81 59t110 21.5t107.5 -21t75.5 -58t45 -86.5t15 -106.5q0 -67 -16.5 -121.5t-48.5 -93t-79 -59.5t-109 -21zM303 36q44 0 80.5 15t63 45t41.5 75.5t15 107.5q0 113 -53.5 173.5t-140.5 60.5
q-44 0 -81 -15.5t-64.5 -45.5t-43 -74.5t-15.5 -102.5t14.5 -102.5t40.5 -75t62.5 -46t80.5 -15.5z" />
    <glyph glyph-name="p.smcp" horiz-adv-x="495" 
d="M141 0h-48v548h169q54 0 89.5 -13t57 -34.5t30.5 -51t9 -62.5q0 -48 -14.5 -82t-42 -55.5t-66.5 -31t-88 -9.5h-96v-209zM236 254q34 0 63 4.5t51 18.5t34.5 40t12.5 69q0 38 -11 61.5t-34 36t-58 17t-83 4.5h-70v-251h95z" />
    <glyph glyph-name="q.smcp" horiz-adv-x="607" 
d="M301 -9q-63 0 -110 21t-77.5 59t-45.5 90t-15 114q0 61 17 113t50 89.5t81 59t110 21.5t107.5 -21t75.5 -58t45 -86.5t15 -106.5q0 -74 -20 -132t-58 -96l72 -76l-31 -28l-73 75q-29 -18 -65 -28t-78 -10zM303 35q62 0 109 30l-106 113l33 30l106 -115q27 31 42.5 77
t15.5 109q0 113 -53.5 173.5t-140.5 60.5q-44 0 -81 -15.5t-64.5 -45.5t-43 -74.5t-15.5 -102.5t14.5 -103t41 -75.5t62.5 -46t80 -15.5z" />
    <glyph glyph-name="r.smcp" horiz-adv-x="505" 
d="M480 0h-53l-136 236h-150v-236h-48v548h180q52 0 86.5 -12.5t55 -33.5t29 -47.5t8.5 -53.5q0 -62 -30.5 -100.5t-82.5 -54.5zM265 280q31 0 56 6t42.5 20t27 37t9.5 58q0 32 -10.5 52.5t-30 32t-47 15.5t-60.5 4h-111v-225h124z" />
    <glyph glyph-name="s.smcp" horiz-adv-x="478" 
d="M259 514q-37 0 -62 -7.5t-40.5 -21t-22 -31.5t-6.5 -39q0 -30 12.5 -49t33 -31.5t47 -20t54.5 -14.5q30 -8 59 -17t52 -25.5t37 -42.5t14 -66q0 -43 -15.5 -73t-42 -49t-61 -27.5t-71.5 -8.5q-93 0 -139.5 40.5t-58.5 111.5l50 7q6 -23 15 -43.5t25.5 -36t42.5 -25
t65 -9.5q24 0 48.5 4.5t44.5 16.5t32.5 32.5t12.5 52.5q0 30 -12 49.5t-31.5 32t-45 20t-52.5 14.5q-31 7 -61 16.5t-54 26t-39 43t-15 68.5q0 33 13.5 60t37.5 46t57.5 29.5t73.5 10.5q72 0 119.5 -34.5t57.5 -117.5l-47 -7q-3 20 -10 40.5t-21.5 37t-37.5 27t-59 10.5z
" />
    <glyph glyph-name="t.smcp" horiz-adv-x="435" 
d="M193 0v504h-171v44h391v-44h-170v-504h-50z" />
    <glyph glyph-name="u.smcp" horiz-adv-x="574" 
d="M287 36q36 0 64 7.5t47 24.5t29 45t10 69v366h49v-371q0 -94 -52 -140t-151 -46q-104 0 -149.5 48.5t-45.5 138.5v370h49v-365q0 -41 10.5 -69t30 -45.5t47.5 -25t62 -7.5z" />
    <glyph glyph-name="v.smcp" horiz-adv-x="486" 
d="M215 0l-193 548h55l172 -504h2l163 504h49l-181 -548h-67z" />
    <glyph glyph-name="w.smcp" horiz-adv-x="682" 
d="M476 0l-131 490h-2l-135 -490h-58l-124 548h53l102 -485h2l133 485h59l132 -493h2l98 493h49l-118 -548h-62z" />
    <glyph glyph-name="x.smcp" horiz-adv-x="494" 
d="M274 282l194 -282h-55l-169 244l-163 -244h-55l186 278l-177 270h55l152 -233l155 233h53z" />
    <glyph glyph-name="y.smcp" horiz-adv-x="443" 
d="M250 0h-49v215l-191 333h55l161 -283h1l157 283h49l-183 -330v-218z" />
    <glyph glyph-name="z.smcp" horiz-adv-x="472" 
d="M100 45h327v-45h-388v37l315 466h-306v45h367v-39z" />
    <glyph glyph-name="thorn.smcp" horiz-adv-x="491" 
d="M141 0h-48v550h48v-87h116q54 0 89.5 -12.5t57 -34t30.5 -50t9 -60.5q0 -48 -14.5 -81t-42 -53.5t-66.5 -30t-88 -9.5h-91v-132zM231 177q34 0 63 4t51 17.5t34.5 39t12.5 67.5q0 37 -11 59.5t-34 35t-58 16.5t-83 4h-65v-243h90z" />
    <glyph glyph-name="agrave.smcp" horiz-adv-x="544" 
d="M304 548l194 -548h-54l-61 176h-228l-61 -176h-48l193 548h65zM270 510l-99 -289h197zM166 786h72l113 -165l-41 -14z" />
    <glyph glyph-name="aacute.smcp" horiz-adv-x="544" 
d="M304 548l194 -548h-54l-61 176h-228l-61 -176h-48l193 548h65zM270 510l-99 -289h197zM240 607l-42 14l113 165h72z" />
    <glyph glyph-name="acircumflex.smcp" horiz-adv-x="544" 
d="M304 548l194 -548h-54l-61 176h-228l-61 -176h-48l193 548h65zM270 510l-99 -289h197zM372 614l-101 129l-95 -132l-45 9l116 165h50l122 -165z" />
    <glyph glyph-name="atilde.smcp" horiz-adv-x="544" 
d="M304 548l194 -548h-54l-61 176h-228l-61 -176h-48l193 548h65zM270 510l-99 -289h197zM191 734q23 0 43.5 -7t39 -15.5t36 -15.5t34.5 -7q20 0 31.5 9.5t11.5 48.5l38 -2q4 -31 -2 -50.5t-17 -31t-26.5 -16t-31.5 -4.5q-22 0 -42 7t-39.5 16t-38 16t-36.5 7
q-16 0 -28 -11.5t-11 -48.5l-36 2q-4 30 1.5 50t17 31.5t26 16.5t29.5 5z" />
    <glyph glyph-name="adieresis.smcp" horiz-adv-x="544" 
d="M304 548l194 -548h-54l-61 176h-228l-61 -176h-48l193 548h65zM270 510l-99 -289h197zM220 700q0 -20 -12 -31t-32 -11q-21 0 -33 11t-12 31t12 31t33 11q20 0 32 -11t12 -31zM411 700q0 -20 -12 -31t-32 -11t-32.5 11t-12.5 31t12.5 31t32.5 11t32 -11t12 -31z" />
    <glyph glyph-name="aring.smcp" horiz-adv-x="544" 
d="M372 619q0 -35 -16 -58.5t-45 -33.5l187 -527h-54l-61 176h-228l-61 -176h-48l185 526q-29 9 -45.5 31.5t-16.5 55.5q0 50 30 74.5t71 24.5q42 0 72 -21.5t30 -71.5zM270 510l-99 -289h197zM270 559q29 0 42 17t13 43q0 55 -55 55q-25 0 -41 -15t-16 -44q0 -26 14 -41
t43 -15z" />
    <glyph glyph-name="aringacute.smcp" horiz-adv-x="544" 
d="M372 619q0 -35 -16 -58.5t-45 -33.5l187 -527h-54l-61 176h-228l-61 -176h-48l185 526q-29 9 -45.5 31.5t-16.5 55.5q0 50 30 74.5t71 24.5q42 0 72 -21.5t30 -71.5zM270 510l-99 -289h197zM270 559q29 0 42 17t13 43q0 55 -55 55q-25 0 -41 -15t-16 -44q0 -26 14 -41
t43 -15zM233 743l-42 14l104 130h73z" />
    <glyph glyph-name="ccedilla.smcp" horiz-adv-x="559" 
d="M222 -159q8 -6 23.5 -12.5t33.5 -6.5q27 0 39.5 15t12.5 35q0 26 -17.5 40t-63.5 15l9 66q-55 5 -94 27t-64 57.5t-36.5 83t-11.5 103.5q0 71 19 126t52.5 92.5t81 56.5t104.5 19q85 0 140 -43.5t63 -134.5l-47 -5q-10 67 -46 103t-111 36q-97 0 -152 -61.5t-55 -182.5
q0 -125 51.5 -180.5t142.5 -55.5q72 0 112 29.5t56 95.5l44 -10q-8 -43 -29 -73t-49.5 -49t-62.5 -27.5t-70 -8.5l-4 -34q16 -2 31 -7.5t27 -15t19 -24.5t7 -36q0 -40 -27 -65.5t-68 -25.5q-29 0 -48 8t-27 16z" />
    <glyph glyph-name="egrave.smcp" horiz-adv-x="463" 
d="M142 44h273v-44h-322v548h315v-44h-266v-204h248v-45h-248v-211zM144 786h72l113 -165l-41 -14z" />
    <glyph glyph-name="eacute.smcp" horiz-adv-x="463" 
d="M142 44h273v-44h-322v548h315v-44h-266v-204h248v-45h-248v-211zM218 607l-42 14l113 165h72z" />
    <glyph glyph-name="ecircumflex.smcp" horiz-adv-x="463" 
d="M142 44h273v-44h-322v548h315v-44h-266v-204h248v-45h-248v-211zM350 614l-101 129l-95 -132l-45 9l116 165h50l122 -165z" />
    <glyph glyph-name="edieresis.smcp" horiz-adv-x="463" 
d="M142 44h273v-44h-322v548h315v-44h-266v-204h248v-45h-248v-211zM198 700q0 -20 -12 -31t-32 -11q-21 0 -33 11t-12 31t12 31t33 11q20 0 32 -11t12 -31zM389 700q0 -20 -12 -31t-32 -11t-32.5 11t-12.5 31t12.5 31t32.5 11t32 -11t12 -31z" />
    <glyph glyph-name="igrave.smcp" horiz-adv-x="235" 
d="M142 0h-49v548h49v-548zM12 786h72l113 -165l-41 -14z" />
    <glyph glyph-name="iacute.smcp" horiz-adv-x="235" 
d="M142 0h-49v548h49v-548zM86 607l-42 14l113 165h72z" />
    <glyph glyph-name="icircumflex.smcp" horiz-adv-x="235" 
d="M142 0h-49v548h49v-548zM218 614l-101 129l-95 -132l-45 9l116 165h50l122 -165z" />
    <glyph glyph-name="idieresis.smcp" horiz-adv-x="235" 
d="M142 0h-49v548h49v-548zM66 700q0 -20 -12 -31t-32 -11q-21 0 -33 11t-12 31t12 31t33 11q20 0 32 -11t12 -31zM257 700q0 -20 -12 -31t-32 -11t-32.5 11t-12.5 31t12.5 31t32.5 11t32 -11t12 -31z" />
    <glyph glyph-name="eth.smcp" horiz-adv-x="585" 
d="M93 0v261h-60v43h60v244h161q73 0 125 -18.5t86 -53t50 -84t16 -110.5q0 -63 -17 -114.5t-53 -89t-90.5 -58t-129.5 -20.5h-148zM245 43q115 0 175 59.5t60 168.5q0 68 -16 113t-45.5 72t-72.5 38t-97 11h-107v-201h184v-43h-184v-218h103z" />
    <glyph glyph-name="ntilde.smcp" horiz-adv-x="598" 
d="M442 0l-302 495v-495h-47v548h71l295 -487v487h46v-548h-63zM218 734q23 0 43.5 -7t39 -15.5t36 -15.5t34.5 -7q20 0 31.5 9.5t11.5 48.5l38 -2q4 -31 -2 -50.5t-17 -31t-26.5 -16t-31.5 -4.5q-22 0 -42 7t-39.5 16t-38 16t-36.5 7q-16 0 -28 -11.5t-11 -48.5l-36 2
q-4 30 1.5 50t17 31.5t26 16.5t29.5 5z" />
    <glyph glyph-name="ograve.smcp" horiz-adv-x="607" 
d="M301 -9q-63 0 -110 21t-77.5 59t-45.5 90t-15 114q0 61 17 113t50 89.5t81 59t110 21.5t107.5 -21t75.5 -58t45 -86.5t15 -106.5q0 -67 -16.5 -121.5t-48.5 -93t-79 -59.5t-109 -21zM303 36q44 0 80.5 15t63 45t41.5 75.5t15 107.5q0 113 -53.5 173.5t-140.5 60.5
q-44 0 -81 -15.5t-64.5 -45.5t-43 -74.5t-15.5 -102.5t14.5 -102.5t40.5 -75t62.5 -46t80.5 -15.5zM203 786h72l113 -165l-41 -14z" />
    <glyph glyph-name="oacute.smcp" horiz-adv-x="607" 
d="M301 -9q-63 0 -110 21t-77.5 59t-45.5 90t-15 114q0 61 17 113t50 89.5t81 59t110 21.5t107.5 -21t75.5 -58t45 -86.5t15 -106.5q0 -67 -16.5 -121.5t-48.5 -93t-79 -59.5t-109 -21zM303 36q44 0 80.5 15t63 45t41.5 75.5t15 107.5q0 113 -53.5 173.5t-140.5 60.5
q-44 0 -81 -15.5t-64.5 -45.5t-43 -74.5t-15.5 -102.5t14.5 -102.5t40.5 -75t62.5 -46t80.5 -15.5zM277 607l-42 14l113 165h72z" />
    <glyph glyph-name="ocircumflex.smcp" horiz-adv-x="607" 
d="M301 -9q-63 0 -110 21t-77.5 59t-45.5 90t-15 114q0 61 17 113t50 89.5t81 59t110 21.5t107.5 -21t75.5 -58t45 -86.5t15 -106.5q0 -67 -16.5 -121.5t-48.5 -93t-79 -59.5t-109 -21zM303 36q44 0 80.5 15t63 45t41.5 75.5t15 107.5q0 113 -53.5 173.5t-140.5 60.5
q-44 0 -81 -15.5t-64.5 -45.5t-43 -74.5t-15.5 -102.5t14.5 -102.5t40.5 -75t62.5 -46t80.5 -15.5zM409 614l-101 129l-95 -132l-45 9l116 165h50l122 -165z" />
    <glyph glyph-name="otilde.smcp" horiz-adv-x="607" 
d="M301 -9q-63 0 -110 21t-77.5 59t-45.5 90t-15 114q0 61 17 113t50 89.5t81 59t110 21.5t107.5 -21t75.5 -58t45 -86.5t15 -106.5q0 -67 -16.5 -121.5t-48.5 -93t-79 -59.5t-109 -21zM303 36q44 0 80.5 15t63 45t41.5 75.5t15 107.5q0 113 -53.5 173.5t-140.5 60.5
q-44 0 -81 -15.5t-64.5 -45.5t-43 -74.5t-15.5 -102.5t14.5 -102.5t40.5 -75t62.5 -46t80.5 -15.5zM228 734q23 0 43.5 -7t39 -15.5t36 -15.5t34.5 -7q20 0 31.5 9.5t11.5 48.5l38 -2q4 -31 -2 -50.5t-17 -31t-26.5 -16t-31.5 -4.5q-22 0 -42 7t-39.5 16t-38 16t-36.5 7
q-16 0 -28 -11.5t-11 -48.5l-36 2q-4 30 1.5 50t17 31.5t26 16.5t29.5 5z" />
    <glyph glyph-name="odieresis.smcp" horiz-adv-x="607" 
d="M301 -9q-63 0 -110 21t-77.5 59t-45.5 90t-15 114q0 61 17 113t50 89.5t81 59t110 21.5t107.5 -21t75.5 -58t45 -86.5t15 -106.5q0 -67 -16.5 -121.5t-48.5 -93t-79 -59.5t-109 -21zM303 36q44 0 80.5 15t63 45t41.5 75.5t15 107.5q0 113 -53.5 173.5t-140.5 60.5
q-44 0 -81 -15.5t-64.5 -45.5t-43 -74.5t-15.5 -102.5t14.5 -102.5t40.5 -75t62.5 -46t80.5 -15.5zM257 700q0 -20 -12 -31t-32 -11q-21 0 -33 11t-12 31t12 31t33 11q20 0 32 -11t12 -31zM448 700q0 -20 -12 -31t-32 -11t-32.5 11t-12.5 31t12.5 31t32.5 11t32 -11t12 -31z
" />
    <glyph glyph-name="oslash.smcp" horiz-adv-x="607" 
d="M301 -9q-31 0 -57.5 5t-49.5 14l-39 -77h-57l52 103q-50 37 -73.5 98.5t-23.5 140.5q0 61 17 113t50 89.5t81 59t110 21.5q54 0 97 -17l38 75h56l-50 -98q52 -36 77 -96.5t25 -135.5q0 -67 -16.5 -121.5t-48.5 -93t-79 -59.5t-109 -21zM303 36q44 0 80.5 15t63 45
t41.5 75.5t15 107.5q0 67 -19.5 115.5t-54.5 77.5l-212 -418q37 -18 86 -18zM105 275q0 -66 18.5 -114t50.5 -78l212 415q-35 15 -77 15q-44 0 -81 -15.5t-64.5 -45.5t-43 -74.5t-15.5 -102.5z" />
    <glyph glyph-name="oslashacute.smcp" horiz-adv-x="607" 
d="M301 -9q-31 0 -57.5 5t-49.5 14l-39 -77h-57l52 103q-50 37 -73.5 98.5t-23.5 140.5q0 61 17 113t50 89.5t81 59t110 21.5q54 0 97 -17l38 75h56l-50 -98q52 -36 77 -96.5t25 -135.5q0 -67 -16.5 -121.5t-48.5 -93t-79 -59.5t-109 -21zM303 36q44 0 80.5 15t63 45
t41.5 75.5t15 107.5q0 67 -19.5 115.5t-54.5 77.5l-212 -418q37 -18 86 -18zM105 275q0 -66 18.5 -114t50.5 -78l212 415q-35 15 -77 15q-44 0 -81 -15.5t-64.5 -45.5t-43 -74.5t-15.5 -102.5zM277 607l-42 14l113 165h72z" />
    <glyph glyph-name="ugrave.smcp" horiz-adv-x="574" 
d="M287 36q36 0 64 7.5t47 24.5t29 45t10 69v366h49v-371q0 -94 -52 -140t-151 -46q-104 0 -149.5 48.5t-45.5 138.5v370h49v-365q0 -41 10.5 -69t30 -45.5t47.5 -25t62 -7.5zM181 786h72l113 -165l-41 -14z" />
    <glyph glyph-name="uacute.smcp" horiz-adv-x="574" 
d="M287 36q36 0 64 7.5t47 24.5t29 45t10 69v366h49v-371q0 -94 -52 -140t-151 -46q-104 0 -149.5 48.5t-45.5 138.5v370h49v-365q0 -41 10.5 -69t30 -45.5t47.5 -25t62 -7.5zM255 607l-42 14l113 165h72z" />
    <glyph glyph-name="ucircumflex.smcp" horiz-adv-x="574" 
d="M287 36q36 0 64 7.5t47 24.5t29 45t10 69v366h49v-371q0 -94 -52 -140t-151 -46q-104 0 -149.5 48.5t-45.5 138.5v370h49v-365q0 -41 10.5 -69t30 -45.5t47.5 -25t62 -7.5zM387 614l-101 129l-95 -132l-45 9l116 165h50l122 -165z" />
    <glyph glyph-name="udieresis.smcp" horiz-adv-x="574" 
d="M287 36q36 0 64 7.5t47 24.5t29 45t10 69v366h49v-371q0 -94 -52 -140t-151 -46q-104 0 -149.5 48.5t-45.5 138.5v370h49v-365q0 -41 10.5 -69t30 -45.5t47.5 -25t62 -7.5zM235 700q0 -20 -12 -31t-32 -11q-21 0 -33 11t-12 31t12 31t33 11q20 0 32 -11t12 -31zM426 700
q0 -20 -12 -31t-32 -11t-32.5 11t-12.5 31t12.5 31t32.5 11t32 -11t12 -31z" />
    <glyph glyph-name="yacute.smcp" horiz-adv-x="443" 
d="M250 0h-49v215l-191 333h55l161 -283h1l157 283h49l-183 -330v-218zM195 607l-42 14l113 165h72z" />
    <glyph glyph-name="ydieresis.smcp" horiz-adv-x="443" 
d="M250 0h-49v215l-191 333h55l161 -283h1l157 283h49l-183 -330v-218zM175 700q0 -20 -12 -31t-32 -11q-21 0 -33 11t-12 31t12 31t33 11q20 0 32 -11t12 -31zM366 700q0 -20 -12 -31t-32 -11t-32.5 11t-12.5 31t12.5 31t32.5 11t32 -11t12 -31z" />
    <glyph glyph-name="amacron.smcp" horiz-adv-x="544" 
d="M304 548l194 -548h-54l-61 176h-228l-61 -176h-48l193 548h65zM270 510l-99 -289h197zM133 680v45h277v-45h-277z" />
    <glyph glyph-name="abreve.smcp" horiz-adv-x="544" 
d="M304 548l194 -548h-54l-61 176h-228l-61 -176h-48l193 548h65zM270 510l-99 -289h197zM410 759q2 -66 -32 -108t-107 -42q-69 0 -100.5 37t-32.5 111l44 6q4 -66 25.5 -89t64.5 -23q45 0 69 23.5t26 88.5z" />
    <glyph glyph-name="aogonek.smcp" horiz-adv-x="544" 
d="M546 -160q-17 -34 -46.5 -48.5t-56.5 -14.5q-36 0 -62 20.5t-26 59.5q0 24 8 46t21 40.5t28 34t30 27.5l-59 171h-228l-61 -176h-48l193 548h65l194 -548q-42 -34 -65.5 -64t-23.5 -72q0 -19 11 -31t31 -12q36 0 59 39zM270 510l-99 -289h197z" />
    <glyph glyph-name="cacute.smcp" horiz-adv-x="559" 
d="M294 -9q-65 0 -110.5 20t-74.5 56t-42.5 86.5t-13.5 110.5q0 71 19 126t52.5 92.5t81 56.5t104.5 19q85 0 140 -43.5t63 -134.5l-47 -5q-10 67 -46 103t-111 36q-97 0 -152 -61.5t-55 -182.5q0 -125 51.5 -180.5t142.5 -55.5q72 0 112 29.5t56 95.5l44 -10
q-8 -44 -29 -74t-50 -48.5t-64 -27t-71 -8.5zM270 607l-42 14l113 165h72z" />
    <glyph glyph-name="ccircumflex.smcp" horiz-adv-x="559" 
d="M294 -9q-65 0 -110.5 20t-74.5 56t-42.5 86.5t-13.5 110.5q0 71 19 126t52.5 92.5t81 56.5t104.5 19q85 0 140 -43.5t63 -134.5l-47 -5q-10 67 -46 103t-111 36q-97 0 -152 -61.5t-55 -182.5q0 -125 51.5 -180.5t142.5 -55.5q72 0 112 29.5t56 95.5l44 -10
q-8 -44 -29 -74t-50 -48.5t-64 -27t-71 -8.5zM402 614l-101 129l-95 -132l-45 9l116 165h50l122 -165z" />
    <glyph glyph-name="cdotaccent.smcp" horiz-adv-x="559" 
d="M294 -9q-65 0 -110.5 20t-74.5 56t-42.5 86.5t-13.5 110.5q0 71 19 126t52.5 92.5t81 56.5t104.5 19q85 0 140 -43.5t63 -134.5l-47 -5q-10 67 -46 103t-111 36q-97 0 -152 -61.5t-55 -182.5q0 -125 51.5 -180.5t142.5 -55.5q72 0 112 29.5t56 95.5l44 -10
q-8 -44 -29 -74t-50 -48.5t-64 -27t-71 -8.5zM348 712q0 -42 -46 -42t-46 42q0 43 46 43t46 -43z" />
    <glyph glyph-name="ccaron.smcp" horiz-adv-x="559" 
d="M294 -9q-65 0 -110.5 20t-74.5 56t-42.5 86.5t-13.5 110.5q0 71 19 126t52.5 92.5t81 56.5t104.5 19q85 0 140 -43.5t63 -134.5l-47 -5q-10 67 -46 103t-111 36q-97 0 -152 -61.5t-55 -182.5q0 -125 51.5 -180.5t142.5 -55.5q72 0 112 29.5t56 95.5l44 -10
q-8 -44 -29 -74t-50 -48.5t-64 -27t-71 -8.5zM207 779l96 -130l98 132l43 -9l-116 -165h-51l-121 165z" />
    <glyph glyph-name="dcaron.smcp" horiz-adv-x="585" 
d="M93 0v548h161q73 0 125 -18.5t86 -53t50 -84t16 -110.5q0 -63 -17 -114.5t-53 -89t-90.5 -58t-129.5 -20.5h-148zM245 43q115 0 175 59.5t60 168.5q0 68 -16 113t-45.5 72t-72.5 38t-97 11h-107v-462h103zM181 779l96 -130l98 132l43 -9l-116 -165h-51l-121 165z" />
    <glyph glyph-name="dcroat.smcp" horiz-adv-x="585" 
d="M93 0v261h-60v43h60v244h161q73 0 125 -18.5t86 -53t50 -84t16 -110.5q0 -63 -17 -114.5t-53 -89t-90.5 -58t-129.5 -20.5h-148zM245 43q115 0 175 59.5t60 168.5q0 68 -16 113t-45.5 72t-72.5 38t-97 11h-107v-201h184v-43h-184v-218h103z" />
    <glyph glyph-name="emacron.smcp" horiz-adv-x="463" 
d="M142 44h273v-44h-322v548h315v-44h-266v-204h248v-45h-248v-211zM111 680v45h277v-45h-277z" />
    <glyph glyph-name="ebreve.smcp" horiz-adv-x="463" 
d="M142 44h273v-44h-322v548h315v-44h-266v-204h248v-45h-248v-211zM388 759q2 -66 -32 -108t-107 -42q-69 0 -100.5 37t-32.5 111l44 6q4 -66 25.5 -89t64.5 -23q45 0 69 23.5t26 88.5z" />
    <glyph glyph-name="edotaccent.smcp" horiz-adv-x="463" 
d="M142 44h273v-44h-322v548h315v-44h-266v-204h248v-45h-248v-211zM296 712q0 -42 -46 -42t-46 42q0 43 46 43t46 -43z" />
    <glyph glyph-name="eogonek.smcp" horiz-adv-x="463" 
d="M426 -160q-17 -34 -46.5 -48.5t-56.5 -14.5q-36 0 -62 20.5t-26 59.5q0 23 7.5 43.5t19 38.5t25.5 33.5t28 27.5h-222v548h315v-44h-266v-204h248v-45h-248v-211h273v-44h-41q-39 -34 -62 -65t-23 -71q0 -19 11 -31t31 -12q36 0 59 39z" />
    <glyph glyph-name="ecaron.smcp" horiz-adv-x="463" 
d="M142 44h273v-44h-322v548h315v-44h-266v-204h248v-45h-248v-211zM155 779l96 -130l98 132l43 -9l-116 -165h-51l-121 165z" />
    <glyph glyph-name="gcircumflex.smcp" horiz-adv-x="587" 
d="M465 77q-7 -17 -23 -32.5t-39 -27.5t-51 -19t-59 -7q-63 0 -108.5 19.5t-75 55.5t-43 87.5t-13.5 114.5q0 71 18 125.5t52 91t81.5 55t106.5 18.5q86 0 139.5 -42.5t61.5 -138.5l-47 -4q-8 78 -48 109.5t-108 31.5q-96 0 -151 -63t-55 -179q0 -71 15.5 -117.5t42 -73.5
t62 -37.5t76.5 -10.5q42 0 73 12.5t52 34t31.5 49.5t10.5 59v52h-171v43h215v-283h-36zM402 614l-101 129l-95 -132l-45 9l116 165h50l122 -165z" />
    <glyph glyph-name="gbreve.smcp" horiz-adv-x="587" 
d="M465 77q-7 -17 -23 -32.5t-39 -27.5t-51 -19t-59 -7q-63 0 -108.5 19.5t-75 55.5t-43 87.5t-13.5 114.5q0 71 18 125.5t52 91t81.5 55t106.5 18.5q86 0 139.5 -42.5t61.5 -138.5l-47 -4q-8 78 -48 109.5t-108 31.5q-96 0 -151 -63t-55 -179q0 -71 15.5 -117.5t42 -73.5
t62 -37.5t76.5 -10.5q42 0 73 12.5t52 34t31.5 49.5t10.5 59v52h-171v43h215v-283h-36zM440 759q2 -66 -32 -108t-107 -42q-69 0 -100.5 37t-32.5 111l44 6q4 -66 25.5 -89t64.5 -23q45 0 69 23.5t26 88.5z" />
    <glyph glyph-name="gdotaccent.smcp" horiz-adv-x="587" 
d="M465 77q-7 -17 -23 -32.5t-39 -27.5t-51 -19t-59 -7q-63 0 -108.5 19.5t-75 55.5t-43 87.5t-13.5 114.5q0 71 18 125.5t52 91t81.5 55t106.5 18.5q86 0 139.5 -42.5t61.5 -138.5l-47 -4q-8 78 -48 109.5t-108 31.5q-96 0 -151 -63t-55 -179q0 -71 15.5 -117.5t42 -73.5
t62 -37.5t76.5 -10.5q42 0 73 12.5t52 34t31.5 49.5t10.5 59v52h-171v43h215v-283h-36zM348 712q0 -42 -46 -42t-46 42q0 43 46 43t46 -43z" />
    <glyph glyph-name="gcommaaccent.smcp" horiz-adv-x="587" 
d="M465 77q-7 -17 -23 -32.5t-39 -27.5t-51 -19t-59 -7q-63 0 -108.5 19.5t-75 55.5t-43 87.5t-13.5 114.5q0 71 18 125.5t52 91t81.5 55t106.5 18.5q86 0 139.5 -42.5t61.5 -138.5l-47 -4q-8 78 -48 109.5t-108 31.5q-96 0 -151 -63t-55 -179q0 -71 15.5 -117.5t42 -73.5
t62 -37.5t76.5 -10.5q42 0 73 12.5t52 34t31.5 49.5t10.5 59v52h-171v43h215v-283h-36zM267 -69h66l-58 -147l-42 7z" />
    <glyph glyph-name="hcircumflex.smcp" horiz-adv-x="582" 
d="M490 0h-50v258h-298v-258h-49v548h49v-245h298v245h50v-548zM391 614l-101 129l-95 -132l-45 9l116 165h50l122 -165z" />
    <glyph glyph-name="hbar.smcp" horiz-adv-x="582" 
d="M490 445h60v-42h-60v-403h-50v258h-298v-258h-49v403h-61v42h61v103h49v-103h298v103h50v-103zM440 303v100h-298v-100h298z" />
    <glyph glyph-name="itilde.smcp" horiz-adv-x="235" 
d="M142 0h-49v548h49v-548zM37 734q23 0 43.5 -7t39 -15.5t36 -15.5t34.5 -7q20 0 31.5 9.5t11.5 48.5l38 -2q4 -31 -2 -50.5t-17 -31t-26.5 -16t-31.5 -4.5q-22 0 -42 7t-39.5 16t-38 16t-36.5 7q-16 0 -28 -11.5t-11 -48.5l-36 2q-4 30 1.5 50t17 31.5t26 16.5t29.5 5z
" />
    <glyph glyph-name="imacron.smcp" horiz-adv-x="235" 
d="M142 0h-49v548h49v-548zM-21 680v45h277v-45h-277z" />
    <glyph glyph-name="ibreve.smcp" horiz-adv-x="235" 
d="M142 0h-49v548h49v-548zM256 759q2 -66 -32 -108t-107 -42q-69 0 -100.5 37t-32.5 111l44 6q4 -66 25.5 -89t64.5 -23q45 0 69 23.5t26 88.5z" />
    <glyph glyph-name="iogonek.smcp" horiz-adv-x="235" 
d="M194 -160q-17 -34 -46.5 -48.5t-56.5 -14.5q-36 0 -62 20.5t-26 59.5q0 25 8.5 47.5t22 41.5t29 34.5t30.5 27.5v540h49v-548q-41 -35 -63 -64.5t-22 -71.5q0 -19 11 -31t31 -12q36 0 59 39z" />
    <glyph glyph-name="idotaccent.smcp" horiz-adv-x="235" 
d="M142 0h-49v548h49v-548zM164 712q0 -42 -46 -42t-46 42q0 43 46 43t46 -43z" />
    <glyph glyph-name="dotlessi.smcp" horiz-adv-x="235" 
d="M142 0h-49v548h49v-548z" />
    <glyph glyph-name="jcircumflex.smcp" horiz-adv-x="395" 
d="M262 548h49v-405q0 -45 -11 -74t-31 -46.5t-47 -24.5t-59 -7q-68 0 -99 36t-34 94l47 7q2 -18 6.5 -35t14 -30t26 -21t43.5 -8q19 0 36.5 4.5t30.5 16t20.5 31.5t7.5 51v411zM387 614l-101 129l-95 -132l-45 9l116 165h50l122 -165z" />
    <glyph glyph-name="kcommaaccent.smcp" horiz-adv-x="508" 
d="M142 267l267 281h59l-228 -239l245 -309h-59l-219 272l-65 -67v-205h-49v548h49v-281zM239 -69h66l-58 -147l-42 7z" />
    <glyph glyph-name="kgreenlandic.smcp" horiz-adv-x="508" 
d="M142 267l267 281h59l-228 -239l245 -309h-59l-219 272l-65 -67v-205h-49v548h49v-281z" />
    <glyph glyph-name="lacute.smcp" horiz-adv-x="441" 
d="M142 44h257v-44h-306v548h49v-504zM98 607l-42 14l113 165h72z" />
    <glyph glyph-name="lcommaaccent.smcp" horiz-adv-x="441" 
d="M142 44h257v-44h-306v548h49v-504zM220 -69h66l-58 -147l-42 7z" />
    <glyph glyph-name="lcaron.smcp" horiz-adv-x="441" 
d="M142 44h257v-44h-306v548h49v-504zM321 549h64l-59 -197l-38 8z" />
    <glyph glyph-name="ldot.smcp" horiz-adv-x="441" 
d="M142 44h257v-44h-306v548h49v-504zM378 315q0 -42 -46 -42t-46 42q0 43 46 43t46 -43z" />
    <glyph glyph-name="nacute.smcp" horiz-adv-x="598" 
d="M442 0l-302 495v-495h-47v548h71l295 -487v487h46v-548h-63zM272 607l-42 14l113 165h72z" />
    <glyph glyph-name="ncommaaccent.smcp" horiz-adv-x="598" 
d="M442 0l-302 495v-495h-47v548h71l295 -487v487h46v-548h-63zM266 -69h66l-58 -147l-42 7z" />
    <glyph glyph-name="ncaron.smcp" horiz-adv-x="598" 
d="M442 0l-302 495v-495h-47v548h71l295 -487v487h46v-548h-63zM204 779l96 -130l98 132l43 -9l-116 -165h-51l-121 165z" />
    <glyph glyph-name="napostrophe.smcp" horiz-adv-x="598" 
d="M442 0l-302 495v-495h-47v548h71l295 -487v487h46v-548h-63zM0 681h66l-57 -146l-42 6z" />
    <glyph glyph-name="eng.smcp" horiz-adv-x="598" 
d="M382 -223q-14 0 -30.5 2t-32 5t-28 6.5t-18.5 7.5l13 43q17 -6 44 -12.5t54 -6.5q32 0 52 19.5t20 64.5v87l-316 502v-495h-47v548h71l295 -472v472h46v-635q0 -70 -33.5 -103t-89.5 -33z" />
    <glyph glyph-name="omacron.smcp" horiz-adv-x="607" 
d="M301 -9q-63 0 -110 21t-77.5 59t-45.5 90t-15 114q0 61 17 113t50 89.5t81 59t110 21.5t107.5 -21t75.5 -58t45 -86.5t15 -106.5q0 -67 -16.5 -121.5t-48.5 -93t-79 -59.5t-109 -21zM303 36q44 0 80.5 15t63 45t41.5 75.5t15 107.5q0 113 -53.5 173.5t-140.5 60.5
q-44 0 -81 -15.5t-64.5 -45.5t-43 -74.5t-15.5 -102.5t14.5 -102.5t40.5 -75t62.5 -46t80.5 -15.5zM170 680v45h277v-45h-277z" />
    <glyph glyph-name="obreve.smcp" horiz-adv-x="607" 
d="M301 -9q-63 0 -110 21t-77.5 59t-45.5 90t-15 114q0 61 17 113t50 89.5t81 59t110 21.5t107.5 -21t75.5 -58t45 -86.5t15 -106.5q0 -67 -16.5 -121.5t-48.5 -93t-79 -59.5t-109 -21zM303 36q44 0 80.5 15t63 45t41.5 75.5t15 107.5q0 113 -53.5 173.5t-140.5 60.5
q-44 0 -81 -15.5t-64.5 -45.5t-43 -74.5t-15.5 -102.5t14.5 -102.5t40.5 -75t62.5 -46t80.5 -15.5zM447 759q2 -66 -32 -108t-107 -42q-69 0 -100.5 37t-32.5 111l44 6q4 -66 25.5 -89t64.5 -23q45 0 69 23.5t26 88.5z" />
    <glyph glyph-name="ohungarumlaut.smcp" horiz-adv-x="607" 
d="M301 -9q-63 0 -110 21t-77.5 59t-45.5 90t-15 114q0 61 17 113t50 89.5t81 59t110 21.5t107.5 -21t75.5 -58t45 -86.5t15 -106.5q0 -67 -16.5 -121.5t-48.5 -93t-79 -59.5t-109 -21zM303 36q44 0 80.5 15t63 45t41.5 75.5t15 107.5q0 113 -53.5 173.5t-140.5 60.5
q-44 0 -81 -15.5t-64.5 -45.5t-43 -74.5t-15.5 -102.5t14.5 -102.5t40.5 -75t62.5 -46t80.5 -15.5zM253 607l-38 13l94 164h69zM367 607l-38 14l110 164h69z" />
    <glyph glyph-name="racute.smcp" horiz-adv-x="505" 
d="M480 0h-53l-136 236h-150v-236h-48v548h180q52 0 86.5 -12.5t55 -33.5t29 -47.5t8.5 -53.5q0 -62 -30.5 -100.5t-82.5 -54.5zM265 280q31 0 56 6t42.5 20t27 37t9.5 58q0 32 -10.5 52.5t-30 32t-47 15.5t-60.5 4h-111v-225h124zM225 607l-42 14l113 165h72z" />
    <glyph glyph-name="rcommaaccent.smcp" horiz-adv-x="505" 
d="M480 0h-53l-136 236h-150v-236h-48v548h180q52 0 86.5 -12.5t55 -33.5t29 -47.5t8.5 -53.5q0 -62 -30.5 -100.5t-82.5 -54.5zM265 280q31 0 56 6t42.5 20t27 37t9.5 58q0 32 -10.5 52.5t-30 32t-47 15.5t-60.5 4h-111v-225h124zM243 -69h66l-58 -147l-42 7z" />
    <glyph glyph-name="rcaron.smcp" horiz-adv-x="505" 
d="M480 0h-53l-136 236h-150v-236h-48v548h180q52 0 86.5 -12.5t55 -33.5t29 -47.5t8.5 -53.5q0 -62 -30.5 -100.5t-82.5 -54.5zM265 280q31 0 56 6t42.5 20t27 37t9.5 58q0 32 -10.5 52.5t-30 32t-47 15.5t-60.5 4h-111v-225h124zM162 779l96 -130l98 132l43 -9l-116 -165
h-51l-121 165z" />
    <glyph glyph-name="sacute.smcp" horiz-adv-x="478" 
d="M259 514q-37 0 -62 -7.5t-40.5 -21t-22 -31.5t-6.5 -39q0 -30 12.5 -49t33 -31.5t47 -20t54.5 -14.5q30 -8 59 -17t52 -25.5t37 -42.5t14 -66q0 -43 -15.5 -73t-42 -49t-61 -27.5t-71.5 -8.5q-93 0 -139.5 40.5t-58.5 111.5l50 7q6 -23 15 -43.5t25.5 -36t42.5 -25
t65 -9.5q24 0 48.5 4.5t44.5 16.5t32.5 32.5t12.5 52.5q0 30 -12 49.5t-31.5 32t-45 20t-52.5 14.5q-31 7 -61 16.5t-54 26t-39 43t-15 68.5q0 33 13.5 60t37.5 46t57.5 29.5t73.5 10.5q72 0 119.5 -34.5t57.5 -117.5l-47 -7q-3 20 -10 40.5t-21.5 37t-37.5 27t-59 10.5z
M224 607l-42 14l113 165h72z" />
    <glyph glyph-name="scircumflex.smcp" horiz-adv-x="478" 
d="M259 514q-37 0 -62 -7.5t-40.5 -21t-22 -31.5t-6.5 -39q0 -30 12.5 -49t33 -31.5t47 -20t54.5 -14.5q30 -8 59 -17t52 -25.5t37 -42.5t14 -66q0 -43 -15.5 -73t-42 -49t-61 -27.5t-71.5 -8.5q-93 0 -139.5 40.5t-58.5 111.5l50 7q6 -23 15 -43.5t25.5 -36t42.5 -25
t65 -9.5q24 0 48.5 4.5t44.5 16.5t32.5 32.5t12.5 52.5q0 30 -12 49.5t-31.5 32t-45 20t-52.5 14.5q-31 7 -61 16.5t-54 26t-39 43t-15 68.5q0 33 13.5 60t37.5 46t57.5 29.5t73.5 10.5q72 0 119.5 -34.5t57.5 -117.5l-47 -7q-3 20 -10 40.5t-21.5 37t-37.5 27t-59 10.5z
M356 614l-101 129l-95 -132l-45 9l116 165h50l122 -165z" />
    <glyph glyph-name="scedilla.smcp" horiz-adv-x="478" 
d="M189 -159q8 -6 23.5 -12.5t33.5 -6.5q27 0 39.5 15t12.5 35q0 26 -17.5 40t-63.5 15l9 65q-83 5 -124.5 44t-52.5 107l50 7q6 -23 15 -43.5t25.5 -36t42.5 -25t65 -9.5q24 0 48.5 4.5t44.5 16.5t32.5 32.5t12.5 52.5q0 30 -12 49.5t-31.5 32t-45 20t-52.5 14.5
q-31 7 -61 16.5t-54 26t-39 43t-15 68.5q0 33 13.5 60t37.5 46t57.5 29.5t73.5 10.5q72 0 119.5 -34.5t57.5 -117.5l-47 -7q-3 20 -10 40.5t-21.5 37t-37.5 27t-59 10.5q-37 0 -62 -7.5t-40.5 -21t-22 -31.5t-6.5 -39q0 -30 12.5 -49t33 -31.5t47 -20t54.5 -14.5
q30 -8 59 -17t52 -25.5t37 -42.5t14 -66q0 -41 -14 -70t-37.5 -47.5t-55 -28t-66.5 -11.5l-4 -35q16 -2 31 -7.5t27 -15t19 -24.5t7 -36q0 -40 -27 -65.5t-68 -25.5q-29 0 -48 8t-27 16z" />
    <glyph glyph-name="tcaron.smcp" horiz-adv-x="435" 
d="M193 0v504h-171v44h391v-44h-170v-504h-50zM123 779l96 -130l98 132l43 -9l-116 -165h-51l-121 165z" />
    <glyph glyph-name="tbar.smcp" horiz-adv-x="435" 
d="M193 0v246h-122v42h122v216h-171v44h391v-44h-170v-216h121v-42h-121v-246h-50z" />
    <glyph glyph-name="utilde.smcp" horiz-adv-x="574" 
d="M287 36q36 0 64 7.5t47 24.5t29 45t10 69v366h49v-371q0 -94 -52 -140t-151 -46q-104 0 -149.5 48.5t-45.5 138.5v370h49v-365q0 -41 10.5 -69t30 -45.5t47.5 -25t62 -7.5zM206 734q23 0 43.5 -7t39 -15.5t36 -15.5t34.5 -7q20 0 31.5 9.5t11.5 48.5l38 -2
q4 -31 -2 -50.5t-17 -31t-26.5 -16t-31.5 -4.5q-22 0 -42 7t-39.5 16t-38 16t-36.5 7q-16 0 -28 -11.5t-11 -48.5l-36 2q-4 30 1.5 50t17 31.5t26 16.5t29.5 5z" />
    <glyph glyph-name="umacron.smcp" horiz-adv-x="574" 
d="M287 36q36 0 64 7.5t47 24.5t29 45t10 69v366h49v-371q0 -94 -52 -140t-151 -46q-104 0 -149.5 48.5t-45.5 138.5v370h49v-365q0 -41 10.5 -69t30 -45.5t47.5 -25t62 -7.5zM148 680v45h277v-45h-277z" />
    <glyph glyph-name="ubreve.smcp" horiz-adv-x="574" 
d="M287 36q36 0 64 7.5t47 24.5t29 45t10 69v366h49v-371q0 -94 -52 -140t-151 -46q-104 0 -149.5 48.5t-45.5 138.5v370h49v-365q0 -41 10.5 -69t30 -45.5t47.5 -25t62 -7.5zM425 759q2 -66 -32 -108t-107 -42q-69 0 -100.5 37t-32.5 111l44 6q4 -66 25.5 -89t64.5 -23
q45 0 69 23.5t26 88.5z" />
    <glyph glyph-name="uring.smcp" horiz-adv-x="574" 
d="M287 36q36 0 64 7.5t47 24.5t29 45t10 69v366h49v-371q0 -94 -52 -140t-151 -46q-104 0 -149.5 48.5t-45.5 138.5v370h49v-365q0 -41 10.5 -69t30 -45.5t47.5 -25t62 -7.5zM389 709q0 -46 -27 -72t-75 -26q-46 0 -73.5 24.5t-27.5 67.5q0 50 30 74.5t71 24.5
q42 0 72 -21.5t30 -71.5zM287 649q29 0 42 17t13 43q0 55 -55 55q-25 0 -41 -15t-16 -44q0 -26 14 -41t43 -15z" />
    <glyph glyph-name="uhungarumlaut.smcp" horiz-adv-x="574" 
d="M287 36q36 0 64 7.5t47 24.5t29 45t10 69v366h49v-371q0 -94 -52 -140t-151 -46q-104 0 -149.5 48.5t-45.5 138.5v370h49v-365q0 -41 10.5 -69t30 -45.5t47.5 -25t62 -7.5zM231 607l-38 13l94 164h69zM345 607l-38 14l110 164h69z" />
    <glyph glyph-name="uogonek.smcp" horiz-adv-x="574" 
d="M430 -160q-17 -34 -46.5 -48.5t-56.5 -14.5q-36 0 -62 20.5t-26 59.5q0 43 22.5 76.5t48.5 58.5q-7 0 -13.5 -0.5t-13.5 -0.5q-104 0 -149.5 48.5t-45.5 138.5v370h49v-365q0 -41 10.5 -69t30 -45.5t47.5 -25t62 -7.5q36 0 64 7.5t47 24.5t29 45t10 69v366h49v-371
q0 -65 -24.5 -103.5t-69.5 -64.5t-72 -64.5t-27 -80.5q0 -19 11 -31t31 -12q36 0 59 39z" />
    <glyph glyph-name="wcircumflex.smcp" horiz-adv-x="682" 
d="M476 0l-131 490h-2l-135 -490h-58l-124 548h53l102 -485h2l133 485h59l132 -493h2l98 493h49l-118 -548h-62zM445 614l-101 129l-95 -132l-45 9l116 165h50l122 -165z" />
    <glyph glyph-name="ycircumflex.smcp" horiz-adv-x="443" 
d="M250 0h-49v215l-191 333h55l161 -283h1l157 283h49l-183 -330v-218zM327 614l-101 129l-95 -132l-45 9l116 165h50l122 -165z" />
    <glyph glyph-name="zacute.smcp" horiz-adv-x="472" 
d="M100 45h327v-45h-388v37l315 466h-306v45h367v-39zM198 607l-42 14l113 165h72z" />
    <glyph glyph-name="zdotaccent.smcp" horiz-adv-x="472" 
d="M100 45h327v-45h-388v37l315 466h-306v45h367v-39zM276 712q0 -42 -46 -42t-46 42q0 43 46 43t46 -43z" />
    <glyph glyph-name="scommaaccent.smcp" horiz-adv-x="478" 
d="M259 514q-37 0 -62 -7.5t-40.5 -21t-22 -31.5t-6.5 -39q0 -30 12.5 -49t33 -31.5t47 -20t54.5 -14.5q30 -8 59 -17t52 -25.5t37 -42.5t14 -66q0 -43 -15.5 -73t-42 -49t-61 -27.5t-71.5 -8.5q-93 0 -139.5 40.5t-58.5 111.5l50 7q6 -23 15 -43.5t25.5 -36t42.5 -25
t65 -9.5q24 0 48.5 4.5t44.5 16.5t32.5 32.5t12.5 52.5q0 30 -12 49.5t-31.5 32t-45 20t-52.5 14.5q-31 7 -61 16.5t-54 26t-39 43t-15 68.5q0 33 13.5 60t37.5 46t57.5 29.5t73.5 10.5q72 0 119.5 -34.5t57.5 -117.5l-47 -7q-3 20 -10 40.5t-21.5 37t-37.5 27t-59 10.5z
M225 -69h66l-58 -147l-42 7z" />
    <glyph glyph-name="uni021B.smcp" horiz-adv-x="435" 
d="M193 0v504h-171v44h391v-44h-170v-504h-50zM195 -69h66l-58 -147l-42 7z" />
    <glyph glyph-name="wgrave.smcp" horiz-adv-x="682" 
d="M476 0l-131 490h-2l-135 -490h-58l-124 548h53l102 -485h2l133 485h59l132 -493h2l98 493h49l-118 -548h-62zM239 786h72l113 -165l-41 -14z" />
    <glyph glyph-name="wacute.smcp" horiz-adv-x="682" 
d="M476 0l-131 490h-2l-135 -490h-58l-124 548h53l102 -485h2l133 485h59l132 -493h2l98 493h49l-118 -548h-62zM313 607l-42 14l113 165h72z" />
    <glyph glyph-name="wdieresis.smcp" horiz-adv-x="682" 
d="M476 0l-131 490h-2l-135 -490h-58l-124 548h53l102 -485h2l133 485h59l132 -493h2l98 493h49l-118 -548h-62zM293 700q0 -20 -12 -31t-32 -11q-21 0 -33 11t-12 31t12 31t33 11q20 0 32 -11t12 -31zM484 700q0 -20 -12 -31t-32 -11t-32.5 11t-12.5 31t12.5 31t32.5 11
t32 -11t12 -31z" />
    <glyph glyph-name="ygrave.smcp" horiz-adv-x="443" 
d="M250 0h-49v215l-191 333h55l161 -283h1l157 283h49l-183 -330v-218zM101 786h72l113 -165l-41 -14z" />
    <glyph glyph-name="uni0163.smcp" horiz-adv-x="435" 
d="M160 -159q8 -6 23.5 -12.5t33.5 -6.5q27 0 39.5 15t12.5 35q0 26 -17.5 40t-63.5 15l10 73h-5v504h-171v44h391v-44h-170v-504h-6l-6 -43q16 -2 31 -7.5t27 -15t19 -24.5t7 -36q0 -40 -27 -65.5t-68 -25.5q-29 0 -48 8t-27 16z" />
    <glyph glyph-name="lslash.smcp" horiz-adv-x="441" 
d="M142 292l176 73v-47l-176 -73v-201h257v-44h-306v225l-72 -30v47l72 30v276h49v-256z" />
    <glyph glyph-name="scaron.smcp" horiz-adv-x="478" 
d="M259 514q-37 0 -62 -7.5t-40.5 -21t-22 -31.5t-6.5 -39q0 -30 12.5 -49t33 -31.5t47 -20t54.5 -14.5q30 -8 59 -17t52 -25.5t37 -42.5t14 -66q0 -43 -15.5 -73t-42 -49t-61 -27.5t-71.5 -8.5q-93 0 -139.5 40.5t-58.5 111.5l50 7q6 -23 15 -43.5t25.5 -36t42.5 -25
t65 -9.5q24 0 48.5 4.5t44.5 16.5t32.5 32.5t12.5 52.5q0 30 -12 49.5t-31.5 32t-45 20t-52.5 14.5q-31 7 -61 16.5t-54 26t-39 43t-15 68.5q0 33 13.5 60t37.5 46t57.5 29.5t73.5 10.5q72 0 119.5 -34.5t57.5 -117.5l-47 -7q-3 20 -10 40.5t-21.5 37t-37.5 27t-59 10.5z
M161 779l96 -130l98 132l43 -9l-116 -165h-51l-121 165z" />
    <glyph glyph-name="zcaron.smcp" horiz-adv-x="472" 
d="M100 45h327v-45h-388v37l315 466h-306v45h367v-39zM135 779l96 -130l98 132l43 -9l-116 -165h-51l-121 165z" />
    <glyph glyph-name="oe.smcp" horiz-adv-x="870" 
d="M504 0v95q-31 -50 -81 -77t-120 -27q-64 0 -111 21t-78 59t-46 90t-15 114q0 61 17 113t50 89.5t81 59t111 21.5q70 0 116.5 -26t75.5 -70v86h311v-44h-266v-204h248v-45h-248v-211h273v-44h-318zM303 36q44 0 80.5 15t63 45t41.5 75t15 105q0 117 -53 177t-141 60
q-44 0 -81 -15.5t-64.5 -45.5t-43 -74.5t-15.5 -102.5q0 -59 14.5 -103.5t40.5 -74.5t62.5 -45.5t80.5 -15.5z" />
    <glyph glyph-name="ae.smcp" horiz-adv-x="774" 
d="M452 44h274v-44h-323v248h-178l-147 -248h-50l321 548h369v-44h-266v-213h248v-43h-248v-204zM403 503l-31 1l-123 -213h154v212z" />
    <glyph glyph-name="aeacute.smcp" horiz-adv-x="774" 
d="M452 44h274v-44h-323v248h-178l-147 -248h-50l321 548h369v-44h-266v-213h248v-43h-248v-204zM403 503l-31 1l-123 -213h154v212zM496 607l-42 14l113 165h72z" />
    <glyph glyph-name="germandbls.smcp" unicode="&#xf637;" horiz-adv-x="928" 
d="M259 514q-37 0 -62 -7.5t-40.5 -21t-22 -31.5t-6.5 -39q0 -30 12.5 -49t33 -31.5t47 -20t54.5 -14.5q30 -8 59 -17t52 -25.5t37 -42.5t14 -66q0 -43 -15.5 -73t-42 -49t-61 -27.5t-71.5 -8.5q-93 0 -139.5 40.5t-58.5 111.5l50 7q6 -23 15 -43.5t25.5 -36t42.5 -25
t65 -9.5q24 0 48.5 4.5t44.5 16.5t32.5 32.5t12.5 52.5q0 30 -12 49.5t-31.5 32t-45 20t-52.5 14.5q-31 7 -61 16.5t-54 26t-39 43t-15 68.5q0 33 13.5 60t37.5 46t57.5 29.5t73.5 10.5q72 0 119.5 -34.5t57.5 -117.5l-47 -7q-3 20 -10 40.5t-21.5 37t-37.5 27t-59 10.5z
M709 514q-37 0 -62 -7.5t-40.5 -21t-22 -31.5t-6.5 -39q0 -30 12.5 -49t33 -31.5t47 -20t54.5 -14.5q30 -8 59 -17t52 -25.5t37 -42.5t14 -66q0 -43 -15.5 -73t-42 -49t-61 -27.5t-71.5 -8.5q-93 0 -139.5 40.5t-58.5 111.5l50 7q6 -23 15 -43.5t25.5 -36t42.5 -25t65 -9.5
q24 0 48.5 4.5t44.5 16.5t32.5 32.5t12.5 52.5q0 30 -12 49.5t-31.5 32t-45 20t-52.5 14.5q-31 7 -61 16.5t-54 26t-39 43t-15 68.5q0 33 13.5 60t37.5 46t57.5 29.5t73.5 10.5q72 0 119.5 -34.5t57.5 -117.5l-47 -7q-3 20 -10 40.5t-21.5 37t-37.5 27t-59 10.5z" />
    <glyph glyph-name="question.smcp" horiz-adv-x="385" 
d="M116 141v136q33 4 63 11.5t53 22.5t36.5 39t13.5 61q0 30 -8.5 50t-23 31.5t-33 16.5t-39.5 5q-43 0 -73 -20t-43 -75l-47 11q4 22 14.5 45t30 41.5t49 30t72.5 11.5q30 0 58 -7.5t49.5 -24.5t34 -44.5t12.5 -67.5q0 -42 -13.5 -71.5t-37 -50t-54.5 -33t-66 -19.5v-99
h-48zM184 35q0 -23 -12 -33.5t-33 -10.5q-43 0 -43 43t43 43q45 0 45 -42z" />
    <glyph glyph-name="exclam.smcp" horiz-adv-x="209" 
d="M82 142l-7 408h57l-4 -408h-46zM149 34q0 -21 -12 -32t-32 -11q-44 0 -44 43t44 43q20 0 32 -10.5t12 -32.5z" />
    <glyph glyph-name="questiondown.smcp" horiz-adv-x="385" 
d="M269.007 408.009v-135.992q-32.998 -3.99902 -62.9961 -11.499t-52.9971 -22.499q-22.998 -14.999 -36.4971 -38.9971q-13.499 -23.999 -13.499 -60.9961q0 -29.998 8.49902 -49.9971q8.5 -19.999 22.999 -31.498t32.998 -16.499q18.498 -5 39.4971 -5
q42.9971 0 72.9961 19.999q29.998 19.999 42.9971 74.9951l46.9971 -10.999q-4 -21.999 -14.499 -44.9971q-10.5 -22.999 -29.998 -41.498q-19.499 -18.499 -48.9971 -29.998t-72.4961 -11.499q-29.998 0 -57.9961 7.49902q-27.998 7.5 -49.4971 24.499t-33.998 44.4971
t-12.499 67.4961q0 41.9971 13.499 71.4951q13.499 29.499 36.998 49.9971q23.498 20.499 54.4961 32.998t65.9961 19.499v98.9941h47.9971zM201.012 514.002q0 22.999 11.999 33.498t32.998 10.499q42.9971 0 42.9971 -42.9971t-42.9971 -42.9971
q-44.9971 0 -44.9971 41.9971z" />
    <glyph glyph-name="exclamdown.smcp" horiz-adv-x="209" 
d="M127.005 407.009l7 -407.976h-56.9971l4 407.976h45.9971zM60.0088 515.002q0 20.999 12 31.998q11.999 10.999 31.998 10.999q43.9971 0 43.9971 -42.9971t-43.9971 -42.9971q-19.999 0 -31.998 10.499q-12 10.5 -12 32.498z" />
    <glyph glyph-name="ordmasculine.smcp" horiz-adv-x="387" 
d="M192 246q-43 0 -72 13t-46.5 36t-25 54t-7.5 67q0 79 41 124.5t119 45.5q76 0 110.5 -45t34.5 -117q0 -40 -8.5 -73t-27 -56t-48 -36t-70.5 -13zM196 286q48 0 75 30.5t27 103.5q0 71 -26.5 99t-73.5 28q-49 0 -79.5 -30.5t-30.5 -99.5q0 -68 27 -99.5t81 -31.5z" />
    <glyph glyph-name="ordfeminine.smcp" horiz-adv-x="364" 
d="M298 308q0 -14 4.5 -19.5t16.5 -5.5q8 0 20 3l3 -28q-10 -6 -19.5 -8t-20.5 -2q-24 0 -35 12.5t-11 29.5q-19 -19 -47 -31.5t-63 -12.5q-32 0 -51 9.5t-30 23t-14.5 28.5t-3.5 27q0 34 14.5 55.5t37.5 33.5t52.5 16.5t58.5 4.5q14 0 23.5 -0.5t19.5 -0.5v38
q0 31 -14.5 50t-58.5 19q-38 0 -55 -14t-22 -43l-41 7q7 47 37.5 66.5t84.5 19.5q60 0 87 -24.5t27 -85.5v-168zM254 407q-8 1 -17.5 1.5t-23.5 0.5q-17 0 -37.5 -1.5t-38.5 -8t-30 -20t-12 -37.5t12 -41.5t51 -17.5q29 0 54.5 13t41.5 30v81z" />
    <glyph glyph-name="at.smcp" horiz-adv-x="646" 
d="M538 29q-35 -34 -87 -50t-112 -16q-63 0 -117 18t-93.5 53.5t-62.5 89t-23 124.5q0 69 22 126.5t62.5 98t97.5 63t126 22.5q58 0 108.5 -16.5t87.5 -50t58 -84.5t21 -119q0 -95 -39 -141t-97 -46q-32 0 -53 12t-31 31q-15 -21 -39 -34t-59 -13q-32 0 -54 11.5t-35.5 31
t-20 45.5t-6.5 55q0 39 10 71.5t28 56t43.5 36.5t57.5 13q42 0 72 -27l3 22h44v-202v-26t3.5 -23.5t12 -17t24.5 -6.5q35 0 59.5 33.5t24.5 112.5q0 60 -16.5 104t-45.5 72.5t-70 42.5t-90 14q-62 0 -109 -20t-79.5 -56t-49 -84.5t-16.5 -105.5q0 -62 19 -107.5t51.5 -75.5
t77 -44.5t95.5 -14.5q59 0 100 15.5t67 38.5zM401 353q-13 10 -29.5 17.5t-36.5 7.5q-38 0 -63.5 -32t-25.5 -102q0 -46 15 -77.5t55 -31.5q27 0 49.5 15.5t35.5 39.5v163z" />
    <glyph glyph-name="copyright.smcp" horiz-adv-x="750" 
d="M701 287q0 -73 -24 -133t-67 -102.5t-103 -66t-133 -23.5q-81 0 -142 24t-101.5 66t-61 98.5t-20.5 122.5q0 76 25.5 136.5t70 102.5t104 64t127.5 22q76 0 136 -22t102 -62.5t64.5 -98t22.5 -128.5zM376 -5q66 0 118 20t89 57t56.5 90t19.5 119q0 69 -21 122t-58.5 89
t-89.5 54t-114 18q-61 0 -113 -19.5t-90 -56.5t-59.5 -91t-21.5 -123q0 -65 19.5 -116.5t56.5 -87.5t89.5 -55.5t118.5 -19.5zM525 215q-5 -39 -20.5 -63.5t-36 -38.5t-44 -19t-45.5 -5q-48 0 -82.5 14.5t-56.5 41t-32 62t-10 77.5t12 78t35 61.5t57 40t78 14.5
q28 0 52.5 -6.5t43.5 -21.5t30.5 -39t13.5 -59l-45 -6q-4 46 -26 69.5t-70 23.5q-27 0 -51 -8.5t-42 -27.5t-28.5 -48.5t-10.5 -72.5q0 -32 7.5 -60t23 -48.5t40 -32.5t58.5 -12q27 0 45.5 6t30.5 17.5t19.5 29t12.5 40.5z" />
    <glyph glyph-name="ampersand.smcp" horiz-adv-x="536" 
d="M371 458q0 -23 -7.5 -41.5t-25 -35t-46.5 -33.5t-71 -36q12 -24 29.5 -53t37.5 -59t40 -58t37 -49q23 38 33 87t12 108h46q-2 -63 -15.5 -121t-45.5 -105q19 -14 38 -23.5t39 -9.5q19 0 37 9l13 -33q-11 -8 -25.5 -11t-27.5 -3q-32 0 -55.5 11t-47.5 30
q-25 -18 -59.5 -29.5t-76.5 -11.5q-41 0 -74.5 12t-57.5 33.5t-37.5 52.5t-13.5 69q0 59 30.5 98.5t83.5 66.5q-12 20 -21 48t-9 58q0 24 7 47t22 41t39.5 29.5t59.5 11.5q48 0 80 -24t32 -76zM237 33q28 0 53 6.5t45 20.5q-54 58 -92.5 120t-64.5 112q-37 -20 -57.5 -51.5
t-20.5 -76.5q0 -61 37 -96t100 -35zM182 439q0 -19 5.5 -42.5t18.5 -49.5l29 12q45 18 66 42t21 53q0 26 -16 44t-49 18q-32 0 -53.5 -19t-21.5 -58z" />
    <glyph glyph-name="parenleft.smcp" horiz-adv-x="244" 
d="M165 -69q-21 32 -40.5 68t-35 76.5t-25 86t-9.5 96.5t10.5 98.5t27 90t37.5 79.5t42 68h51q-57 -88 -87.5 -169t-30.5 -166q0 -50 8 -94t22.5 -83.5t34.5 -77t44 -74.5z" />
    <glyph glyph-name="parenright.smcp" horiz-adv-x="244" 
d="M79.0098 592.996q20.999 -31.998 40.498 -67.9961t34.998 -76.4951q15.499 -40.498 24.998 -85.9951t9.49902 -96.4941t-10.499 -98.4941t-26.998 -89.9941t-37.498 -79.4951t-41.9971 -67.9961h-50.9971q56.9961 87.9951 87.4941 168.99q30.499 80.9951 30.499 165.989
q0 49.9971 -8 93.9941q-7.99902 43.998 -22.499 83.4951q-14.499 39.498 -34.4971 76.9951q-19.999 37.498 -43.998 74.4961z" />
    <glyph glyph-name="bracketleft.smcp" horiz-adv-x="201" 
d="M61 -79v691h110v-33l-64 -6v-611l64 -7v-34h-110z" />
    <glyph glyph-name="bracketright.smcp" horiz-adv-x="201" 
d="M140.004 611.995v-690.958h-109.993v32.998l63.9961 6v610.963l-63.9961 6.99902v33.998h109.993z" />
    <glyph glyph-name="braceleft.smcp" horiz-adv-x="237" 
d="M213 -81h-39q-55 0 -74.5 24t-17.5 70q0 4 1 8.5t1 10.5q1 15 2 34.5t2.5 39t2.5 37t1 27.5q0 43 -16.5 57.5t-44.5 14.5h-13v41h12q29 0 45.5 16t16.5 59q0 10 -1 28t-2.5 39t-2.5 42t-2 37q0 5 -1 10t-1 9q-2 46 20 68.5t72 22.5h39v-42q-24 0 -40 -0.5t-26 -5
t-14 -14.5t-4 -28q0 -12 1.5 -34t3 -47t3 -48.5t1.5 -39.5q0 -24 -4.5 -40t-12 -26t-17 -16t-20.5 -10q11 -5 21 -10.5t17.5 -15.5t11.5 -26t4 -41q0 -15 -1.5 -37t-3 -45t-3 -43.5t-1.5 -32.5q0 -27 11.5 -40.5t46.5 -13.5h26v-39z" />
    <glyph glyph-name="braceright.smcp" horiz-adv-x="237" 
d="M24.0127 613.995h38.998q54.9961 0 74.4951 -23.999q19.499 -23.998 17.499 -69.9951q0 -4 -1 -8.5q-1 -4.49902 -1 -10.499q-1 -14.999 -2 -34.498t-2.49902 -38.9971q-1.5 -19.499 -2.5 -36.998t-1 -27.498q0 -42.998 16.499 -57.4971t44.4971 -14.499h12.999v-40.9971
h-11.999q-28.998 0 -45.4971 -15.999t-16.499 -58.9971q0 -9.99902 1 -27.998t2.5 -38.9971q1.49902 -20.999 2.49902 -41.998t2 -36.9971q0 -5 1 -10t1 -8.99902q2 -45.9971 -19.999 -68.4961q-21.998 -22.499 -71.9951 -22.499h-38.998v41.998q23.999 0 39.998 0.5
t25.998 4.99902q10 4.5 13.999 14.499q4 10 4 27.999q0 11.999 -1.5 33.998q-1.5 21.998 -3 46.9971q-1.5 24.998 -2.99902 48.4971q-1.5 23.498 -1.5 39.4971q0 23.999 4.49902 39.998q4.5 15.999 12 25.998q7.49902 9.99902 16.999 15.999q9.49902 6 20.498 9.99902
q-10.999 5 -20.998 10.5q-10 5.49902 -17.499 15.499q-7.5 9.99902 -11.5 25.998q-3.99902 15.999 -3.99902 40.998q0 14.999 1.5 36.9971q1.49902 21.999 2.99902 44.998q1.5 22.998 3 43.4971t1.5 32.498q0 26.998 -11.499 40.4971t-46.4971 13.499h-25.999v38.998z" />
    <glyph glyph-name="quoteleft.smcp" horiz-adv-x="176" 
d="M100 392h-65l70 193l41 -7z" />
    <glyph glyph-name="quoteright.smcp" horiz-adv-x="176" 
d="M76.0059 584.023h64.9961l-69.9951 -192.987l-40.998 6.99902z" />
    <glyph glyph-name="quotedblleft.smcp" horiz-adv-x="318" 
d="M241 392h-64l70 193l41 -7zM99 392h-64l70 193l40 -7z" />
    <glyph glyph-name="quotedblright.smcp" horiz-adv-x="309" 
d="M76 582h65l-70 -193l-41 7zM209 582h65l-70 -193l-41 7z" />
    <glyph glyph-name="asterisk.smcp" horiz-adv-x="467" 
d="M264 481l137 36l7 -19l-127 -64l84 -131l-18 -12l-113 107l-111 -109l-17 13l83 131l-130 64l9 19l138 -35l20 151h21z" />
    <glyph glyph-name="hyphen.smcp" horiz-adv-x="325" 
d="M27 247v51h271v-51h-271z" />
    <glyph glyph-name="endash.smcp" horiz-adv-x="500" 
d="M0 254v39h499v-39h-499z" />
    <glyph glyph-name="emdash.smcp" horiz-adv-x="1000" 
d="M0 254v39h999v-39h-999z" />
    <glyph glyph-name="slash.smcp" horiz-adv-x="297" 
d="M28 -35l202 610h44l-201 -610h-45z" />
    <glyph glyph-name="backslash.smcp" horiz-adv-x="301" 
d="M239 -35l-201 610h43l202 -610h-44z" />
    <glyph glyph-name="zero.smcp" horiz-adv-x="471" 
d="M234 -10q-60 0 -96.5 22.5t-56 61t-26 89.5t-6.5 108q0 55 8 106.5t29 91.5t58.5 64.5t97.5 24.5q59 0 94.5 -24t54.5 -63t25 -88.5t6 -100.5q0 -60 -7 -113t-27.5 -93t-57.5 -63t-96 -23zM237 34q44 0 70.5 19t41 51.5t19 77t4.5 95.5q0 47 -4 90t-17.5 75.5t-40 51.5
t-70.5 19q-45 0 -72.5 -19.5t-42.5 -53t-20.5 -78t-5.5 -93.5q0 -47 5 -90t20 -75t42 -51t71 -19z" />
    <glyph glyph-name="one.smcp" horiz-adv-x="364" 
d="M179 0v465q-11 -6 -28 -11.5t-35.5 -9t-35.5 -5.5t-27 -2l-6 43q58 5 95 20t64 47h20v-547h-47z" />
    <glyph glyph-name="two.smcp" horiz-adv-x="443" 
d="M221 558q70 0 112.5 -34.5t42.5 -97.5q0 -54 -32 -109t-86 -117l-137 -156v-1h266v-43h-324v41l146 171q30 35 52 63.5t36.5 53t21.5 46.5t7 45q0 48 -29.5 72t-80.5 24q-32 0 -52.5 -8.5t-33 -23.5t-19 -34t-10.5 -40l-44 9q11 74 55 106.5t109 32.5z" />
    <glyph glyph-name="three.smcp" horiz-adv-x="463" 
d="M98 126q3 -16 8.5 -32.5t17.5 -29.5t32.5 -21.5t53.5 -8.5q25 0 48.5 7t41.5 22t29 38t11 56q0 59 -39 84.5t-100 25.5h-49v44h33q67 0 107 32t40 83q0 16 -5.5 32t-17.5 28.5t-32.5 20.5t-50.5 8t-49.5 -6t-32 -17.5t-20.5 -28t-14 -37.5l-45 11q14 67 59 94t108 27
q74 0 112 -38t38 -92q0 -33 -11 -56t-28.5 -39t-38 -25t-39.5 -13v-2q57 -8 91.5 -42t34.5 -94q0 -36 -12.5 -66.5t-36 -53t-56.5 -35t-74 -12.5q-69 0 -111.5 30.5t-50.5 96.5z" />
    <glyph glyph-name="four.smcp" horiz-adv-x="437" 
d="M290 0v132h-270v39l256 376h63v-370h71v-45h-72v-132h-48zM291 177v319l-215 -319h215z" />
    <glyph glyph-name="five.smcp" horiz-adv-x="455" 
d="M91 547h271v-44h-229l-17 -193q17 16 47.5 31t75.5 15q27 0 54.5 -7.5t50.5 -26.5t37.5 -52.5t14.5 -84.5q0 -41 -12 -77t-36 -62t-59.5 -41t-81.5 -15q-32 0 -60 8t-50.5 24t-37.5 40.5t-21 57.5l50 13q4 -17 11.5 -34.5t21.5 -31.5t35.5 -23t53.5 -9q24 0 47.5 7.5
t42.5 25t30.5 46t11.5 70.5q0 69 -33 98.5t-82 29.5q-39 0 -69.5 -16.5t-52.5 -39.5l-34 17z" />
    <glyph glyph-name="six.smcp" horiz-adv-x="484" 
d="M375 431q-6 25 -15.5 41.5t-22 26t-27 13t-30.5 3.5q-50 0 -81 -25t-48.5 -62.5t-23.5 -81.5t-7 -82q23 28 64 52t96 24q38 0 66 -13.5t46.5 -36t27.5 -52.5t9 -64q0 -41 -12 -74.5t-35 -58t-56 -38t-74 -13.5q-56 0 -91 23t-54.5 60t-27 83t-7.5 92q0 49 8.5 103.5
t31 100.5t63 76t104.5 30q53 0 90.5 -25t50.5 -89zM123 218q1 -28 6 -60.5t18.5 -60.5t39 -46.5t66.5 -18.5q26 0 49 8.5t40 25.5t27 44t10 63q0 58 -26.5 90.5t-79.5 32.5q-48 0 -86 -23t-64 -55z" />
    <glyph glyph-name="seven.smcp" horiz-adv-x="414" 
d="M102 0l240 502h-303v45h355v-39l-239 -508h-53z" />
    <glyph glyph-name="eight.smcp" horiz-adv-x="449" 
d="M271 283q25 -10 49.5 -22t43.5 -28.5t31 -40t12 -55.5q0 -66 -49.5 -106.5t-137.5 -40.5q-44 0 -76.5 10.5t-54 29t-32 43t-10.5 53.5q0 30 11 53.5t29 42t41.5 32t49.5 24.5q-54 26 -83.5 58t-29.5 81q0 33 13.5 59t36.5 44t55 28t69 10q72 0 115.5 -35t43.5 -90
q0 -51 -36.5 -87.5t-90.5 -62.5zM223 259q-58 -23 -92.5 -52t-34.5 -77q0 -41 30.5 -70t98.5 -29q37 0 62.5 9t41.5 24t23 33.5t7 36.5q0 28 -13 48t-32.5 34.5t-44 24.5t-46.5 18zM225 301q54 23 89 56t35 76q0 36 -28 60.5t-85 24.5q-61 0 -92 -27.5t-31 -69.5
q0 -47 32 -74t80 -46z" />
    <glyph glyph-name="nine.smcp" horiz-adv-x="485" 
d="M104 123q13 -52 42.5 -71.5t69.5 -19.5q46 0 75 21t46 56t24 80.5t8 95.5q-22 -29 -63 -52.5t-95 -23.5q-39 0 -67 13.5t-47 37t-28 54t-9 65.5q0 81 47 130t130 49q55 0 90 -21.5t55 -58t27 -84.5t7 -101q0 -54 -8 -108.5t-30 -97.5t-61 -70t-102 -27q-60 0 -101.5 28
t-54.5 92zM365 333q-2 30 -7 62t-18.5 59t-38.5 44.5t-67 17.5q-26 0 -49 -8t-40 -25t-27 -43t-10 -62q0 -60 28 -92t81 -32q46 0 84.5 23t63.5 56z" />
    <glyph glyph-name="dollar.smcp" horiz-adv-x="404" 
d="M309 407q-4 19 -9.5 35t-15.5 28t-24 20t-35 11v-205q21 -6 45 -16t44.5 -27t33.5 -42.5t13 -62.5q0 -61 -36 -99.5t-100 -46.5v-67h-43v67q-31 1 -57.5 8.5t-46.5 23.5t-33.5 42.5t-17.5 66.5l48 11q8 -53 32 -80.5t77 -28.5v210q-21 5 -45 14t-44.5 25t-34.5 41t-14 64
q0 34 10.5 60t29.5 44.5t44 29.5t54 14v59h41v-59q57 -4 89.5 -35.5t42.5 -95.5zM98 404q0 -44 24 -64.5t62 -32.5v194q-25 -3 -41.5 -12.5t-26.5 -23t-14 -29.5t-4 -32zM310 144q0 24 -7 40.5t-19 28t-27.5 19t-31.5 12.5v-197q39 7 62 30.5t23 66.5z" />
    <glyph glyph-name="Euro.smcp" horiz-adv-x="509" 
d="M285 -9q-49 0 -84 16.5t-58 45t-36 66.5t-17 81h-72l8 43h61v18v22t1 22h-54l8 43h52q17 101 69.5 155.5t133.5 54.5q70 0 117 -43.5t53 -133.5l-46 -4q-8 68 -37.5 103t-84.5 35q-24 0 -48.5 -7.5t-45.5 -26.5t-37.5 -51.5t-24.5 -81.5h196l-7 -43h-194q-1 -11 -1 -22
v-22v-18h187l-8 -43h-176q4 -38 14 -68.5t27.5 -52.5t44 -33.5t63.5 -11.5q51 0 85 26t46 91l42 -10q-6 -42 -22.5 -70.5t-40.5 -46t-53.5 -25.5t-60.5 -8z" />
    <glyph glyph-name="cent.smcp" horiz-adv-x="390" 
d="M234 556v-74q50 -4 84.5 -34t37.5 -88l-48 -7q-5 42 -22.5 59.5t-51.5 20.5v-308q33 3 52.5 20.5t27.5 54.5l46 -8q-10 -54 -45 -82t-80 -33v-77h-40v77q-75 8 -111 64t-36 139q0 92 40.5 141t106.5 59v76h39zM100 282q0 -29 4.5 -55t15.5 -47t29 -35t46 -18v305
q-19 -3 -36 -11t-30 -25.5t-21 -45t-8 -68.5z" />
    <glyph glyph-name="sterling.smcp" horiz-adv-x="438" 
d="M79 43q68 63 68 130q0 18 -5.5 37t-14.5 38h-84v42h64q-11 18 -24 48t-13 69q0 34 13 62t36.5 48t55.5 30.5t71 10.5q65 0 104.5 -32.5t47.5 -103.5l-45 -7q-5 46 -29 72.5t-80 26.5q-54 0 -88 -25t-34 -79q0 -36 13 -67.5t24 -52.5h185v-42h-167q9 -19 13 -38t4 -38
q0 -72 -59 -129h153q44 0 63.5 20.5t27.5 67.5l45 -10q-9 -65 -42.5 -93t-93.5 -28h-251v43h42z" />
    <glyph glyph-name="yen.smcp" horiz-adv-x="393" 
d="M233 148v-148h-49v148h-126v43h126v63h-126v43h101l-146 251h55l141 -243h1l137 243h49l-141 -251h100v-43h-122v-63h122v-43h-122z" />
    <glyph glyph-name="florin.smcp" horiz-adv-x="399" 
d="M382 467q-10 23 -23 36t-38 13q-24 0 -43.5 -14.5t-26.5 -56.5l-18 -107h113l-9 -42h-112l-50 -260q-11 -58 -39.5 -83.5t-76.5 -25.5q-38 0 -65.5 17t-41.5 55l44 18q9 -22 23 -34.5t42 -12.5q25 0 41.5 14t24.5 56l47 256h-59l9 42h59l20 108q11 60 42 86t78 26
q37 0 62.5 -16.5t40.5 -55.5z" />
    <glyph glyph-name="afii61352.smcp" horiz-adv-x="793" 
d="M386 0l-248 488v-488h-49v548h74l241 -482v482h48v-548h-66zM536 252h207v-44h-207v44zM636 293q-62 0 -89.5 36.5t-27.5 93.5q0 55 32 90.5t89 35.5q58 0 85.5 -34.5t27.5 -88.5q0 -61 -28.5 -97t-88.5 -36zM637 333q35 0 52.5 23.5t17.5 65.5q0 41 -16.5 64t-51.5 23
q-36 0 -55 -23.5t-19 -63.5q0 -42 18 -65.5t54 -23.5z" />
    <glyph glyph-name="percent.smcp" horiz-adv-x="708" 
d="M174 205q-35 0 -59 11.5t-39 31t-21.5 45t-6.5 52.5q0 32 8.5 59.5t25.5 47.5t41.5 31t57.5 11q34 0 58 -10t39 -28t22 -43.5t7 -56.5q0 -66 -34 -108.5t-99 -42.5zM174 -15l308 510h48l-307 -510h-49zM177 245q23 0 38.5 8.5t24.5 23t13 34t4 42.5q0 19 -3.5 37.5
t-12 32t-23.5 22t-39 8.5t-39.5 -10t-25 -25t-13.5 -33.5t-4 -35.5q0 -21 3.5 -39.5t12.5 -33t24.5 -23t39.5 -8.5zM527 -10q-36 0 -60 12t-38.5 31.5t-21 45t-6.5 52.5q0 32 8.5 59.5t25.5 47.5t41.5 31t57.5 11q67 0 96 -38t29 -100q0 -68 -33.5 -110t-98.5 -42zM529 30
q24 0 39.5 8.5t24.5 23t13 34t4 41.5q0 20 -3.5 38.5t-12.5 32.5t-24 22.5t-38 8.5q-24 0 -39.5 -10t-25 -25t-13.5 -33.5t-4 -35.5q0 -21 3.5 -40t12.5 -33.5t24.5 -23t38.5 -8.5z" />
    <glyph glyph-name="perthousand.smcp" horiz-adv-x="1002" 
d="M174 205q-35 0 -59 11.5t-39 31t-21.5 45t-6.5 52.5q0 32 8.5 59.5t25.5 47.5t41.5 31t57.5 11q34 0 58 -10t39 -28t22 -43.5t7 -56.5q0 -66 -34 -108.5t-99 -42.5zM174 -15l308 510h48l-307 -510h-49zM177 245q23 0 38.5 8.5t24.5 23t13 34t4 42.5q0 19 -3.5 37.5
t-12 32t-23.5 22t-39 8.5t-39.5 -10t-25 -25t-13.5 -33.5t-4 -35.5q0 -21 3.5 -39.5t12.5 -33t24.5 -23t39.5 -8.5zM527 -10q-36 0 -60 12t-38.5 31.5t-21 45t-6.5 52.5q0 32 8.5 59.5t25.5 47.5t41.5 31t57.5 11q67 0 96 -38t29 -100q0 -68 -33.5 -110t-98.5 -42zM529 30
q24 0 39.5 8.5t24.5 23t13 34t4 41.5q0 20 -3.5 38.5t-12.5 32.5t-24 22.5t-38 8.5q-24 0 -39.5 -10t-25 -25t-13.5 -33.5t-4 -35.5q0 -21 3.5 -40t12.5 -33.5t24.5 -23t38.5 -8.5zM820 -10q-35 0 -59 12t-38.5 31.5t-21 45t-6.5 52.5q0 65 33.5 107t98.5 42q34 0 58 -10
t39 -28t22 -43.5t7 -56.5q0 -68 -33.5 -110t-99.5 -42zM823 30q24 0 39.5 8.5t24.5 23t13 34t4 41.5q0 20 -3.5 38.5t-12.5 32.5t-24 22.5t-38 8.5q-24 0 -39.5 -10t-25 -25t-13.5 -33.5t-4 -35.5q0 -21 3.5 -40t12.5 -33.5t24.5 -23t38.5 -8.5z" />
    <glyph glyph-name="circumflex" unicode="&#x2c6;" horiz-adv-x="500" 
d="M350 579l-101 129l-95 -132l-45 9l116 165h50l122 -165z" />
    <glyph glyph-name="caron" unicode="&#x2c7;" horiz-adv-x="500" 
d="M155 744l96 -130l98 132l43 -9l-116 -165h-51l-121 165z" />
    <glyph glyph-name="uni02C9" unicode="&#x2c9;" horiz-adv-x="500" 
d="M111 633v45h277v-45h-277z" />
    <glyph glyph-name="breve" unicode="&#x2d8;" horiz-adv-x="500" 
d="M388 724q2 -66 -32 -108t-107 -42q-69 0 -100.5 37t-32.5 111l44 6q4 -66 25.5 -89t64.5 -23q45 0 69 23.5t26 88.5z" />
    <glyph glyph-name="dieresis" unicode="&#xa8;" horiz-adv-x="500" 
d="M198 665q0 -20 -12 -31t-32 -11q-21 0 -33 11t-12 31t12 31t33 11q20 0 32 -11t12 -31zM389 665q0 -20 -12 -31t-32 -11t-32.5 11t-12.5 31t12.5 31t32.5 11t32 -11t12 -31z" />
    <glyph glyph-name="macron" unicode="&#xaf;" horiz-adv-x="500" 
d="M111 645v45h277v-45h-277z" />
    <glyph glyph-name="degree" unicode="&#xb0;" horiz-adv-x="299" 
d="M152 576q29 0 43.5 17.5t14.5 48.5q0 64 -58 64q-28 0 -44 -16.5t-16 -51.5q0 -62 60 -62zM259 642q0 -51 -28 -79.5t-79 -28.5t-80 27.5t-29 76.5q0 55 31.5 82.5t77.5 27.5q48 0 77.5 -26t29.5 -80z" />
    <glyph glyph-name="acute" unicode="&#xb4;" horiz-adv-x="500" 
d="M218 572l-42 14l113 165h72z" />
    <glyph glyph-name="grave" unicode="`" horiz-adv-x="500" 
d="M144 751h72l113 -165l-41 -14z" />
    </font>
</defs>
</svg>
